<?xml version="1.0" encoding="UTF-8" standalone="no"?>
<!DOCTYPE svg PUBLIC "-//W3C//DTD SVG 1.1//EN"
 "http://www.w3.org/Graphics/SVG/1.1/DTD/svg11.dtd">
<!-- Generated by graphviz version 2.43.0 (0)
 -->
<!-- Title: EAD_DFA Pages: 1 -->
<svg width="1389pt" height="969pt"
 viewBox="0.00 0.00 1388.80 969.00" xmlns="http://www.w3.org/2000/svg" xmlns:xlink="http://www.w3.org/1999/xlink">
<g id="graph0" class="graph" transform="scale(1 1) rotate(0) translate(4 965)">
<title>EAD_DFA</title>
<polygon fill="white" stroke="transparent" points="-4,4 -4,-965 1384.8,-965 1384.8,4 -4,4"/>
<!-- _start -->
<g id="node1" class="node">
<title>_start</title>
<ellipse fill="black" stroke="black" cx="5.4" cy="-237" rx="5.4" ry="5.4"/>
</g>
<!-- 0 -->
<g id="node2" class="node">
<title>0</title>
<ellipse fill="none" stroke="black" cx="69.8" cy="-237" rx="18" ry="18"/>
<ellipse fill="none" stroke="black" cx="69.8" cy="-237" rx="22" ry="22"/>
<text text-anchor="middle" x="69.8" y="-234.5" font-family="Courier,monospace" font-size="10.00">0</text>
</g>
<!-- _start&#45;&gt;0 -->
<g id="edge1" class="edge">
<title>_start&#45;&gt;0</title>
<path fill="none" stroke="black" d="M10.89,-237C16.59,-237 26.94,-237 37.33,-237"/>
<polygon fill="black" stroke="black" points="37.57,-240.5 47.57,-237 37.57,-233.5 37.57,-240.5"/>
</g>
<!-- 1 -->
<g id="node3" class="node">
<title>1</title>
<ellipse fill="none" stroke="black" cx="156.8" cy="-544" rx="18" ry="18"/>
<ellipse fill="none" stroke="black" cx="156.8" cy="-544" rx="22" ry="22"/>
<text text-anchor="middle" x="156.8" y="-541.5" font-family="Courier,monospace" font-size="10.00">1</text>
</g>
<!-- 0&#45;&gt;1 -->
<g id="edge2" class="edge">
<title>0&#45;&gt;1</title>
<path fill="none" stroke="black" d="M76.64,-258.1C91.35,-311.23 129.97,-450.7 147.24,-513.08"/>
<polygon fill="black" stroke="black" points="143.88,-514.05 149.92,-522.75 150.62,-512.18 143.88,-514.05"/>
<text text-anchor="middle" x="113.3" y="-402" font-family="Courier,monospace" font-size="10.00">a</text>
</g>
<!-- 2 -->
<g id="node4" class="node">
<title>2</title>
<ellipse fill="none" stroke="black" cx="330.8" cy="-249" rx="18" ry="18"/>
<ellipse fill="none" stroke="black" cx="330.8" cy="-249" rx="22" ry="22"/>
<text text-anchor="middle" x="330.8" y="-246.5" font-family="Courier,monospace" font-size="10.00">2</text>
</g>
<!-- 0&#45;&gt;2 -->
<g id="edge3" class="edge">
<title>0&#45;&gt;2</title>
<path fill="none" stroke="darkred" d="M92,-237.98C137.55,-240.09 244.96,-245.07 298.43,-247.55"/>
<polygon fill="darkred" stroke="darkred" points="298.52,-251.05 308.68,-248.02 298.85,-244.06 298.52,-251.05"/>
<text text-anchor="middle" x="200.3" y="-246" font-family="Courier,monospace" font-size="10.00" fill="darkred">b</text>
</g>
<!-- 3 -->
<g id="node5" class="node">
<title>3</title>
<ellipse fill="none" stroke="black" cx="243.8" cy="-384" rx="18" ry="18"/>
<ellipse fill="none" stroke="black" cx="243.8" cy="-384" rx="22" ry="22"/>
<text text-anchor="middle" x="243.8" y="-381.5" font-family="Courier,monospace" font-size="10.00">3</text>
</g>
<!-- 0&#45;&gt;3 -->
<g id="edge4" class="edge">
<title>0&#45;&gt;3</title>
<path fill="none" stroke="darkgreen" d="M86.98,-250.83C117.33,-276.77 182.94,-332.84 218.58,-363.3"/>
<polygon fill="darkgreen" stroke="darkgreen" points="216.66,-366.26 226.54,-370.1 221.21,-360.94 216.66,-366.26"/>
<text text-anchor="middle" x="156.8" y="-330" font-family="Courier,monospace" font-size="10.00" fill="darkgreen">c</text>
</g>
<!-- 1&#45;&gt;1 -->
<g id="edge5" class="edge">
<title>1&#45;&gt;1</title>
<path fill="none" stroke="black" d="M149.12,-564.99C148.17,-575.09 150.73,-584 156.8,-584 160.69,-584 163.14,-580.34 164.15,-575.06"/>
<polygon fill="black" stroke="black" points="167.65,-575.1 164.48,-564.99 160.65,-574.87 167.65,-575.1"/>
<text text-anchor="middle" x="156.8" y="-587" font-family="Courier,monospace" font-size="10.00">a</text>
</g>
<!-- 1&#45;&gt;3 -->
<g id="edge6" class="edge">
<title>1&#45;&gt;3</title>
<path fill="none" stroke="darkred" d="M168.05,-524.7C182.92,-496.71 210.57,-444.67 227.75,-412.33"/>
<polygon fill="darkred" stroke="darkred" points="230.91,-413.84 232.51,-403.37 224.73,-410.56 230.91,-413.84"/>
<text text-anchor="middle" x="200.3" y="-471" font-family="Courier,monospace" font-size="10.00" fill="darkred">c</text>
</g>
<!-- 4 -->
<g id="node6" class="node">
<title>4</title>
<ellipse fill="none" stroke="black" cx="931.8" cy="-691" rx="18" ry="18"/>
<ellipse fill="none" stroke="black" cx="931.8" cy="-691" rx="22" ry="22"/>
<text text-anchor="middle" x="931.8" y="-688.5" font-family="Courier,monospace" font-size="10.00">4</text>
</g>
<!-- 1&#45;&gt;4 -->
<g id="edge7" class="edge">
<title>1&#45;&gt;4</title>
<path fill="none" stroke="darkgreen" d="M159.37,-565.88C163.19,-614.08 174.4,-727.6 196.8,-758 210.48,-776.56 219.74,-782 242.8,-782 242.8,-782 242.8,-782 505.8,-782 562.91,-782 577.19,-781 634.3,-781 634.3,-781 634.3,-781 849.8,-781 882.94,-781 905.98,-746.87 918.79,-720.65"/>
<polygon fill="darkgreen" stroke="darkgreen" points="922.04,-721.97 923.05,-711.42 915.68,-719.04 922.04,-721.97"/>
<text text-anchor="middle" x="548.3" y="-784" font-family="Courier,monospace" font-size="10.00" fill="darkgreen">b</text>
</g>
<!-- 2&#45;&gt;1 -->
<g id="edge8" class="edge">
<title>2&#45;&gt;1</title>
<path fill="none" stroke="black" d="M308.9,-251.45C300.57,-253.16 291.22,-256.07 283.8,-261 246.04,-286.08 242.74,-301.79 221.8,-342 192.26,-398.73 173.32,-471.58 164.21,-512.48"/>
<polygon fill="black" stroke="black" points="160.76,-511.89 162.06,-522.41 167.6,-513.38 160.76,-511.89"/>
<text text-anchor="middle" x="243.8" y="-345" font-family="Courier,monospace" font-size="10.00">a</text>
</g>
<!-- 2&#45;&gt;3 -->
<g id="edge9" class="edge">
<title>2&#45;&gt;3</title>
<path fill="none" stroke="darkred" d="M309.24,-254.85C300.38,-258.28 290.52,-263.47 283.8,-271 263.61,-293.63 253.76,-327.24 249.03,-351.93"/>
<polygon fill="darkred" stroke="darkred" points="245.56,-351.45 247.3,-361.9 252.46,-352.65 245.56,-351.45"/>
<text text-anchor="middle" x="287.3" y="-274" font-family="Courier,monospace" font-size="10.00" fill="darkred">c</text>
</g>
<!-- 5 -->
<g id="node7" class="node">
<title>5</title>
<ellipse fill="none" stroke="black" cx="417.8" cy="-250" rx="18" ry="18"/>
<ellipse fill="none" stroke="black" cx="417.8" cy="-250" rx="22" ry="22"/>
<text text-anchor="middle" x="417.8" y="-247.5" font-family="Courier,monospace" font-size="10.00">5</text>
</g>
<!-- 2&#45;&gt;5 -->
<g id="edge10" class="edge">
<title>2&#45;&gt;5</title>
<path fill="none" stroke="darkgreen" d="M352.81,-249.25C362.72,-249.36 374.75,-249.51 385.69,-249.63"/>
<polygon fill="darkgreen" stroke="darkgreen" points="385.7,-253.13 395.74,-249.75 385.78,-246.13 385.7,-253.13"/>
<text text-anchor="middle" x="374.3" y="-252" font-family="Courier,monospace" font-size="10.00" fill="darkgreen">b</text>
</g>
<!-- 3&#45;&gt;1 -->
<g id="edge11" class="edge">
<title>3&#45;&gt;1</title>
<path fill="none" stroke="black" d="M228.58,-399.93C218.73,-411.55 205.82,-427.99 196.8,-444 184.36,-466.08 174.13,-492.93 167.27,-513.25"/>
<polygon fill="black" stroke="black" points="163.89,-512.34 164.09,-522.93 170.54,-514.52 163.89,-512.34"/>
<text text-anchor="middle" x="200.3" y="-447" font-family="Courier,monospace" font-size="10.00">a</text>
</g>
<!-- 3&#45;&gt;2 -->
<g id="edge12" class="edge">
<title>3&#45;&gt;2</title>
<path fill="none" stroke="darkred" d="M253.21,-363.84C260.41,-347.45 271.52,-324.02 283.8,-305 291.05,-293.77 300.2,-282.21 308.44,-272.54"/>
<polygon fill="darkred" stroke="darkred" points="311.15,-274.75 315.07,-264.9 305.87,-270.16 311.15,-274.75"/>
<text text-anchor="middle" x="287.3" y="-308" font-family="Courier,monospace" font-size="10.00" fill="darkred">b</text>
</g>
<!-- 3&#45;&gt;3 -->
<g id="edge13" class="edge">
<title>3&#45;&gt;3</title>
<path fill="none" stroke="darkgreen" d="M236.12,-404.99C235.17,-415.09 237.73,-424 243.8,-424 247.69,-424 250.14,-420.34 251.15,-415.06"/>
<polygon fill="darkgreen" stroke="darkgreen" points="254.65,-415.1 251.48,-404.99 247.65,-414.87 254.65,-415.1"/>
<text text-anchor="middle" x="243.8" y="-427" font-family="Courier,monospace" font-size="10.00" fill="darkgreen">c</text>
</g>
<!-- 4&#45;&gt;1 -->
<g id="edge14" class="edge">
<title>4&#45;&gt;1</title>
<path fill="none" stroke="black" d="M916.73,-707.17C901.81,-722.43 876.7,-743 849.8,-743 634.3,-743 634.3,-743 634.3,-743 577.19,-743 562.91,-744 505.8,-744 242.8,-744 242.8,-744 242.8,-744 170.85,-744 158.93,-633.01 157.53,-576.39"/>
<polygon fill="black" stroke="black" points="161.02,-576.11 157.37,-566.17 154.02,-576.22 161.02,-576.11"/>
<text text-anchor="middle" x="548.3" y="-746" font-family="Courier,monospace" font-size="10.00">a</text>
</g>
<!-- 4&#45;&gt;3 -->
<g id="edge15" class="edge">
<title>4&#45;&gt;3</title>
<path fill="none" stroke="darkred" d="M911.67,-681.55C895.57,-674.47 871.73,-666 849.8,-666 634.3,-666 634.3,-666 634.3,-666 557.79,-666 538.81,-659 462.3,-659 329.8,-659 329.8,-659 329.8,-659 306.74,-659 297.24,-653.74 283.8,-635 259.07,-600.5 249.48,-475.94 246.24,-416.29"/>
<polygon fill="darkred" stroke="darkred" points="249.72,-415.74 245.71,-405.94 242.73,-416.1 249.72,-415.74"/>
<text text-anchor="middle" x="591.8" y="-668" font-family="Courier,monospace" font-size="10.00" fill="darkred">c</text>
</g>
<!-- 6 -->
<g id="node8" class="node">
<title>6</title>
<ellipse fill="none" stroke="black" cx="1018.8" cy="-689" rx="18" ry="18"/>
<ellipse fill="none" stroke="black" cx="1018.8" cy="-689" rx="22" ry="22"/>
<text text-anchor="middle" x="1018.8" y="-686.5" font-family="Courier,monospace" font-size="10.00">6</text>
</g>
<!-- 4&#45;&gt;6 -->
<g id="edge16" class="edge">
<title>4&#45;&gt;6</title>
<path fill="none" stroke="darkgreen" d="M953.81,-690.51C963.72,-690.27 975.75,-689.99 986.69,-689.73"/>
<polygon fill="darkgreen" stroke="darkgreen" points="986.82,-693.23 996.74,-689.5 986.66,-686.23 986.82,-693.23"/>
<text text-anchor="middle" x="975.3" y="-693" font-family="Courier,monospace" font-size="10.00" fill="darkgreen">b</text>
</g>
<!-- 5&#45;&gt;1 -->
<g id="edge17" class="edge">
<title>5&#45;&gt;1</title>
<path fill="none" stroke="black" d="M398.91,-238.22C386.53,-230.8 369.36,-221.91 352.8,-218 291.83,-203.61 258.74,-219.41 221.8,-270 167.78,-343.97 158.56,-456.57 157.49,-511.53"/>
<polygon fill="black" stroke="black" points="153.99,-511.69 157.38,-521.73 160.99,-511.77 153.99,-511.69"/>
<text text-anchor="middle" x="287.3" y="-220" font-family="Courier,monospace" font-size="10.00">a</text>
</g>
<!-- 5&#45;&gt;3 -->
<g id="edge18" class="edge">
<title>5&#45;&gt;3</title>
<path fill="none" stroke="darkred" d="M398.22,-260.94C376.19,-274.2 338.7,-297.67 308.8,-321 296.9,-330.29 294.63,-333.48 283.8,-344 278.25,-349.39 272.38,-355.3 266.91,-360.89"/>
<polygon fill="darkred" stroke="darkred" points="264.25,-358.62 259.79,-368.23 269.27,-363.49 264.25,-358.62"/>
<text text-anchor="middle" x="330.8" y="-324" font-family="Courier,monospace" font-size="10.00" fill="darkred">c</text>
</g>
<!-- 7 -->
<g id="node9" class="node">
<title>7</title>
<ellipse fill="none" stroke="black" cx="504.8" cy="-250" rx="18" ry="18"/>
<ellipse fill="none" stroke="black" cx="504.8" cy="-250" rx="22" ry="22"/>
<text text-anchor="middle" x="504.8" y="-247.5" font-family="Courier,monospace" font-size="10.00">7</text>
</g>
<!-- 5&#45;&gt;7 -->
<g id="edge19" class="edge">
<title>5&#45;&gt;7</title>
<path fill="none" stroke="darkgreen" d="M439.81,-250C449.72,-250 461.75,-250 472.69,-250"/>
<polygon fill="darkgreen" stroke="darkgreen" points="472.74,-253.5 482.74,-250 472.74,-246.5 472.74,-253.5"/>
<text text-anchor="middle" x="461.3" y="-253" font-family="Courier,monospace" font-size="10.00" fill="darkgreen">b</text>
</g>
<!-- 6&#45;&gt;1 -->
<g id="edge20" class="edge">
<title>6&#45;&gt;1</title>
<path fill="none" stroke="black" d="M1014.59,-710.87C1007.52,-749.78 986.69,-827 932.8,-827 242.8,-827 242.8,-827 242.8,-827 211.94,-827 210.1,-802.84 196.8,-775 165.4,-709.29 158.85,-622.5 157.74,-576.25"/>
<polygon fill="black" stroke="black" points="161.24,-576.16 157.57,-566.22 154.24,-576.27 161.24,-576.16"/>
<text text-anchor="middle" x="591.8" y="-830" font-family="Courier,monospace" font-size="10.00">a</text>
</g>
<!-- 6&#45;&gt;3 -->
<g id="edge21" class="edge">
<title>6&#45;&gt;3</title>
<path fill="none" stroke="darkred" d="M999.37,-678.65C986.9,-672.16 969.84,-664.24 953.8,-660 916.26,-650.07 905.48,-655.44 866.8,-652 706.4,-637.74 666.83,-621 505.8,-621 329.8,-621 329.8,-621 329.8,-621 306.74,-621 297.49,-615.56 283.8,-597 262.98,-568.77 251.79,-468.48 247.25,-416.22"/>
<polygon fill="darkred" stroke="darkred" points="250.73,-415.81 246.41,-406.14 243.75,-416.39 250.73,-415.81"/>
<text text-anchor="middle" x="635.3" y="-629" font-family="Courier,monospace" font-size="10.00" fill="darkred">c</text>
</g>
<!-- 8 -->
<g id="node10" class="node">
<title>8</title>
<ellipse fill="none" stroke="black" cx="1105.8" cy="-683" rx="18" ry="18"/>
<ellipse fill="none" stroke="black" cx="1105.8" cy="-683" rx="22" ry="22"/>
<text text-anchor="middle" x="1105.8" y="-680.5" font-family="Courier,monospace" font-size="10.00">8</text>
</g>
<!-- 6&#45;&gt;8 -->
<g id="edge22" class="edge">
<title>6&#45;&gt;8</title>
<path fill="none" stroke="darkgreen" d="M1040.81,-687.52C1050.72,-686.82 1062.75,-685.97 1073.69,-685.2"/>
<polygon fill="darkgreen" stroke="darkgreen" points="1074.01,-688.68 1083.74,-684.49 1073.51,-681.7 1074.01,-688.68"/>
<text text-anchor="middle" x="1062.3" y="-689" font-family="Courier,monospace" font-size="10.00" fill="darkgreen">b</text>
</g>
<!-- 7&#45;&gt;1 -->
<g id="edge23" class="edge">
<title>7&#45;&gt;1</title>
<path fill="none" stroke="black" d="M499.74,-228.29C491.52,-191.77 469.22,-122 418.8,-122 242.8,-122 242.8,-122 242.8,-122 187.34,-122 210.64,-184.29 196.8,-238 183.58,-289.32 167.49,-444.18 160.87,-511.81"/>
<polygon fill="black" stroke="black" points="157.37,-511.6 159.89,-521.89 164.34,-512.27 157.37,-511.6"/>
<text text-anchor="middle" x="330.8" y="-125" font-family="Courier,monospace" font-size="10.00">a</text>
</g>
<!-- 7&#45;&gt;3 -->
<g id="edge24" class="edge">
<title>7&#45;&gt;3</title>
<path fill="none" stroke="darkred" d="M485.36,-260.39C457.06,-276.25 401.13,-307.26 352.8,-332 326.01,-345.71 295.03,-360.52 273.14,-370.82"/>
<polygon fill="darkred" stroke="darkred" points="271.63,-367.66 264.06,-375.07 274.6,-374 271.63,-367.66"/>
<text text-anchor="middle" x="374.3" y="-325" font-family="Courier,monospace" font-size="10.00" fill="darkred">c</text>
</g>
<!-- 9 -->
<g id="node11" class="node">
<title>9</title>
<ellipse fill="none" stroke="black" cx="591.8" cy="-220" rx="18" ry="18"/>
<ellipse fill="none" stroke="black" cx="591.8" cy="-220" rx="22" ry="22"/>
<text text-anchor="middle" x="591.8" y="-217.5" font-family="Courier,monospace" font-size="10.00">9</text>
</g>
<!-- 7&#45;&gt;9 -->
<g id="edge25" class="edge">
<title>7&#45;&gt;9</title>
<path fill="none" stroke="darkgreen" d="M525.94,-242.89C536.42,-239.19 549.44,-234.6 561.05,-230.5"/>
<polygon fill="darkgreen" stroke="darkgreen" points="562.54,-233.69 570.8,-227.06 560.21,-227.09 562.54,-233.69"/>
<text text-anchor="middle" x="548.3" y="-238" font-family="Courier,monospace" font-size="10.00" fill="darkgreen">b</text>
</g>
<!-- 8&#45;&gt;1 -->
<g id="edge26" class="edge">
<title>8&#45;&gt;1</title>
<path fill="none" stroke="black" d="M1104.39,-705.32C1102.19,-753.92 1089.55,-865 1019.8,-865 677.8,-865 677.8,-865 677.8,-865 620.69,-865 606.41,-866 549.3,-866 242.8,-866 242.8,-866 242.8,-866 183.32,-866 164.54,-657.98 159.46,-576.33"/>
<polygon fill="black" stroke="black" points="162.94,-575.91 158.86,-566.13 155.96,-576.32 162.94,-575.91"/>
<text text-anchor="middle" x="635.3" y="-868" font-family="Courier,monospace" font-size="10.00">a</text>
</g>
<!-- 8&#45;&gt;3 -->
<g id="edge27" class="edge">
<title>8&#45;&gt;3</title>
<path fill="none" stroke="darkred" d="M1097.87,-662.07C1086.6,-632.49 1061.28,-582 1019.8,-582 634.3,-582 634.3,-582 634.3,-582 577.19,-582 562.91,-583 505.8,-583 329.8,-583 329.8,-583 329.8,-583 258.15,-583 246.08,-472.56 244.59,-416.23"/>
<polygon fill="darkred" stroke="darkred" points="248.08,-416 244.41,-406.06 241.08,-416.11 248.08,-416"/>
<text text-anchor="middle" x="678.8" y="-585" font-family="Courier,monospace" font-size="10.00" fill="darkred">c</text>
</g>
<!-- 10 -->
<g id="node12" class="node">
<title>10</title>
<ellipse fill="none" stroke="black" cx="1192.8" cy="-658" rx="18" ry="18"/>
<ellipse fill="none" stroke="black" cx="1192.8" cy="-658" rx="22" ry="22"/>
<text text-anchor="middle" x="1192.8" y="-655.5" font-family="Courier,monospace" font-size="10.00">10</text>
</g>
<!-- 8&#45;&gt;10 -->
<g id="edge28" class="edge">
<title>8&#45;&gt;10</title>
<path fill="none" stroke="darkgreen" d="M1127.38,-676.95C1137.61,-673.94 1150.17,-670.24 1161.48,-666.92"/>
<polygon fill="darkgreen" stroke="darkgreen" points="1162.81,-670.18 1171.41,-664 1160.83,-663.46 1162.81,-670.18"/>
<text text-anchor="middle" x="1149.3" y="-674" font-family="Courier,monospace" font-size="10.00" fill="darkgreen">b</text>
</g>
<!-- 9&#45;&gt;1 -->
<g id="edge29" class="edge">
<title>9&#45;&gt;1</title>
<path fill="none" stroke="black" d="M590.39,-197.68C588.19,-149.08 575.55,-38 505.8,-38 242.8,-38 242.8,-38 242.8,-38 184.02,-38 210.05,-104.73 196.8,-162 178.67,-240.33 186.96,-262.02 178.8,-342 172.67,-402.08 165.34,-472.2 161.16,-512.02"/>
<polygon fill="black" stroke="black" points="157.66,-511.87 160.1,-522.18 164.62,-512.6 157.66,-511.87"/>
<text text-anchor="middle" x="374.3" y="-41" font-family="Courier,monospace" font-size="10.00">a</text>
</g>
<!-- 9&#45;&gt;3 -->
<g id="edge30" class="edge">
<title>9&#45;&gt;3</title>
<path fill="none" stroke="darkred" d="M570.88,-212.18C553.86,-206.21 528.6,-199 505.8,-199 373.3,-199 373.3,-199 373.3,-199 343.42,-199 332.31,-199.55 308.8,-218 257.93,-257.92 292.36,-298.04 265.8,-357 265.43,-357.83 265.02,-358.66 264.59,-359.48"/>
<polygon fill="darkred" stroke="darkred" points="261.62,-357.63 259.24,-367.95 267.54,-361.36 261.62,-357.63"/>
<text text-anchor="middle" x="417.8" y="-202" font-family="Courier,monospace" font-size="10.00" fill="darkred">c</text>
</g>
<!-- 11 -->
<g id="node13" class="node">
<title>11</title>
<ellipse fill="none" stroke="black" cx="678.8" cy="-372" rx="18" ry="18"/>
<ellipse fill="none" stroke="black" cx="678.8" cy="-372" rx="22" ry="22"/>
<text text-anchor="middle" x="678.8" y="-369.5" font-family="Courier,monospace" font-size="10.00">11</text>
</g>
<!-- 9&#45;&gt;11 -->
<g id="edge31" class="edge">
<title>9&#45;&gt;11</title>
<path fill="none" stroke="darkgreen" d="M603.39,-238.94C618.15,-265.34 645.02,-313.38 662.11,-343.94"/>
<polygon fill="darkgreen" stroke="darkgreen" points="659.14,-345.8 667.07,-352.82 665.25,-342.38 659.14,-345.8"/>
<text text-anchor="middle" x="635.3" y="-303" font-family="Courier,monospace" font-size="10.00" fill="darkgreen">b</text>
</g>
<!-- 10&#45;&gt;1 -->
<g id="edge32" class="edge">
<title>10&#45;&gt;1</title>
<path fill="none" stroke="black" d="M1189.21,-680.01C1181.36,-741.56 1155.34,-911 1106.8,-911 242.8,-911 242.8,-911 242.8,-911 174.38,-911 161.02,-665.82 158.42,-576.25"/>
<polygon fill="black" stroke="black" points="161.92,-576.04 158.16,-566.13 154.92,-576.22 161.92,-576.04"/>
<text text-anchor="middle" x="678.8" y="-914" font-family="Courier,monospace" font-size="10.00">a</text>
</g>
<!-- 10&#45;&gt;3 -->
<g id="edge33" class="edge">
<title>10&#45;&gt;3</title>
<path fill="none" stroke="darkred" d="M1192.1,-635.78C1191.51,-584.26 1182.23,-461 1106.8,-461 547.3,-461 547.3,-461 547.3,-461 440.62,-461 412.25,-460.04 308.8,-434 297.2,-431.08 293.75,-430.65 283.8,-424 277.26,-419.63 270.95,-414.01 265.38,-408.37"/>
<polygon fill="darkred" stroke="darkred" points="267.67,-405.71 258.29,-400.79 262.56,-410.49 267.67,-405.71"/>
<text text-anchor="middle" x="722.3" y="-464" font-family="Courier,monospace" font-size="10.00" fill="darkred">c</text>
</g>
<!-- 12 -->
<g id="node14" class="node">
<title>12</title>
<ellipse fill="none" stroke="black" cx="1279.8" cy="-624" rx="18" ry="18"/>
<ellipse fill="none" stroke="black" cx="1279.8" cy="-624" rx="22" ry="22"/>
<text text-anchor="middle" x="1279.8" y="-621.5" font-family="Courier,monospace" font-size="10.00">12</text>
</g>
<!-- 10&#45;&gt;12 -->
<g id="edge34" class="edge">
<title>10&#45;&gt;12</title>
<path fill="none" stroke="darkgreen" d="M1213.51,-650.11C1224.24,-645.82 1237.72,-640.43 1249.64,-635.66"/>
<polygon fill="darkgreen" stroke="darkgreen" points="1251.21,-638.81 1259.19,-631.84 1248.61,-632.31 1251.21,-638.81"/>
<text text-anchor="middle" x="1236.3" y="-645" font-family="Courier,monospace" font-size="10.00" fill="darkgreen">b</text>
</g>
<!-- 11&#45;&gt;1 -->
<g id="edge35" class="edge">
<title>11&#45;&gt;1</title>
<path fill="none" stroke="black" d="M676.87,-394.13C673.61,-440.59 658.92,-544 592.8,-544 242.8,-544 242.8,-544 242.8,-544 225.17,-544 205.49,-544 189.51,-544"/>
<polygon fill="black" stroke="black" points="189.11,-540.5 179.11,-544 189.11,-547.5 189.11,-540.5"/>
<text text-anchor="middle" x="417.8" y="-547" font-family="Courier,monospace" font-size="10.00">a</text>
</g>
<!-- 11&#45;&gt;3 -->
<g id="edge36" class="edge">
<title>11&#45;&gt;3</title>
<path fill="none" stroke="darkred" d="M656.66,-372.59C586.29,-374.54 359.66,-380.82 276.11,-383.13"/>
<polygon fill="darkred" stroke="darkred" points="275.88,-379.64 265.98,-383.41 276.07,-386.63 275.88,-379.64"/>
<text text-anchor="middle" x="461.3" y="-381" font-family="Courier,monospace" font-size="10.00" fill="darkred">c</text>
</g>
<!-- 13 -->
<g id="node15" class="node">
<title>13</title>
<ellipse fill="none" stroke="black" cx="765.8" cy="-377" rx="18" ry="18"/>
<ellipse fill="none" stroke="black" cx="765.8" cy="-377" rx="22" ry="22"/>
<text text-anchor="middle" x="765.8" y="-374.5" font-family="Courier,monospace" font-size="10.00">13</text>
</g>
<!-- 11&#45;&gt;13 -->
<g id="edge37" class="edge">
<title>11&#45;&gt;13</title>
<path fill="none" stroke="darkgreen" d="M700.81,-373.24C710.72,-373.82 722.75,-374.53 733.69,-375.17"/>
<polygon fill="darkgreen" stroke="darkgreen" points="733.55,-378.67 743.74,-375.76 733.96,-371.68 733.55,-378.67"/>
<text text-anchor="middle" x="722.3" y="-377" font-family="Courier,monospace" font-size="10.00" fill="darkgreen">b</text>
</g>
<!-- 12&#45;&gt;1 -->
<g id="edge38" class="edge">
<title>12&#45;&gt;1</title>
<path fill="none" stroke="black" d="M1277.81,-646.15C1273.93,-719.52 1256.75,-950 1193.8,-950 242.8,-950 242.8,-950 242.8,-950 166.61,-950 158.3,-672.63 157.71,-576.41"/>
<polygon fill="black" stroke="black" points="161.21,-576.1 157.67,-566.12 154.21,-576.13 161.21,-576.1"/>
<text text-anchor="middle" x="722.3" y="-953" font-family="Courier,monospace" font-size="10.00">a</text>
</g>
<!-- 12&#45;&gt;3 -->
<g id="edge39" class="edge">
<title>12&#45;&gt;3</title>
<path fill="none" stroke="darkred" d="M1277.19,-601.87C1270.13,-508.55 1240.11,-152 1193.8,-152 974.3,-152 974.3,-152 974.3,-152 893.96,-152 890.64,-76 810.3,-76 329.8,-76 329.8,-76 329.8,-76 201.71,-76 314.72,-238.62 265.8,-357 265.45,-357.84 265.07,-358.68 264.66,-359.51"/>
<polygon fill="darkred" stroke="darkred" points="261.68,-357.68 259.43,-368.04 267.64,-361.34 261.68,-357.68"/>
<text text-anchor="middle" x="765.8" y="-79" font-family="Courier,monospace" font-size="10.00" fill="darkred">c</text>
</g>
<!-- 14 -->
<g id="node16" class="node">
<title>14</title>
<ellipse fill="none" stroke="black" cx="1362.8" cy="-310" rx="18" ry="18"/>
<text text-anchor="middle" x="1362.8" y="-307.5" font-family="Courier,monospace" font-size="10.00">14</text>
</g>
<!-- 12&#45;&gt;14 -->
<g id="edge40" class="edge">
<title>12&#45;&gt;14</title>
<path fill="none" stroke="darkgreen" d="M1291.15,-604.83C1301.67,-584.56 1317.66,-551.38 1326.8,-521 1346.05,-457.02 1355.53,-378.75 1359.46,-337.88"/>
<polygon fill="darkgreen" stroke="darkgreen" points="1362.95,-338.13 1360.39,-327.85 1355.98,-337.49 1362.95,-338.13"/>
<text text-anchor="middle" x="1323.3" y="-544" font-family="Courier,monospace" font-size="10.00" fill="darkgreen">b</text>
</g>
<!-- 13&#45;&gt;3 -->
<g id="edge41" class="edge">
<title>13&#45;&gt;3</title>
<path fill="none" stroke="black" d="M748.87,-391.49C732.71,-404.64 706.35,-422 679.8,-422 329.8,-422 329.8,-422 329.8,-422 308.72,-422 287.06,-412.14 270.88,-402.46"/>
<polygon fill="black" stroke="black" points="272.36,-399.26 262.03,-396.87 268.61,-405.17 272.36,-399.26"/>
<text text-anchor="middle" x="504.8" y="-425" font-family="Courier,monospace" font-size="10.00">c</text>
</g>
<!-- 13&#45;&gt;13 -->
<g id="edge42" class="edge">
<title>13&#45;&gt;13</title>
<path fill="none" stroke="darkred" d="M758.12,-397.99C757.17,-408.09 759.73,-417 765.8,-417 769.69,-417 772.14,-413.34 773.15,-408.06"/>
<polygon fill="darkred" stroke="darkred" points="776.65,-408.1 773.48,-397.99 769.65,-407.87 776.65,-408.1"/>
<text text-anchor="middle" x="765.8" y="-420" font-family="Courier,monospace" font-size="10.00" fill="darkred">b</text>
</g>
<!-- 15 -->
<g id="node17" class="node">
<title>15</title>
<ellipse fill="none" stroke="black" cx="848.8" cy="-507" rx="18" ry="18"/>
<text text-anchor="middle" x="848.8" y="-504.5" font-family="Courier,monospace" font-size="10.00">15</text>
</g>
<!-- 13&#45;&gt;15 -->
<g id="edge43" class="edge">
<title>13&#45;&gt;15</title>
<path fill="none" stroke="darkgreen" d="M778.23,-395.35C792.6,-418.41 817.29,-458.04 833.07,-483.35"/>
<polygon fill="darkgreen" stroke="darkgreen" points="830.18,-485.34 838.44,-491.98 836.12,-481.64 830.18,-485.34"/>
<text text-anchor="middle" x="809.3" y="-452" font-family="Courier,monospace" font-size="10.00" fill="darkgreen">a</text>
</g>
<!-- 14&#45;&gt;3 -->
<g id="edge44" class="edge">
<title>14&#45;&gt;3</title>
<path fill="none" stroke="black" d="M1361.01,-291.99C1357.61,-225.83 1341.57,0 1280.8,0 329.8,0 329.8,0 329.8,0 288.4,0 295.67,-41.34 283.8,-81 248.55,-198.77 309.46,-242.09 265.8,-357 265.47,-357.87 265.1,-358.74 264.69,-359.6"/>
<polygon fill="black" stroke="black" points="261.56,-358.03 259.4,-368.4 267.55,-361.64 261.56,-358.03"/>
<text text-anchor="middle" x="809.3" y="-3" font-family="Courier,monospace" font-size="10.00">c</text>
</g>
<!-- 14&#45;&gt;13 -->
<g id="edge45" class="edge">
<title>14&#45;&gt;13</title>
<path fill="none" stroke="darkred" d="M1362.4,-291.91C1362.99,-243.39 1357.38,-114 1280.8,-114 847.8,-114 847.8,-114 847.8,-114 799.97,-114 777.41,-274.88 769.85,-344.98"/>
<polygon fill="darkred" stroke="darkred" points="766.36,-344.72 768.8,-355.03 773.32,-345.45 766.36,-344.72"/>
<text text-anchor="middle" x="1062.3" y="-117" font-family="Courier,monospace" font-size="10.00" fill="darkred">b</text>
</g>
<!-- 14&#45;&gt;15 -->
<g id="edge46" class="edge">
<title>14&#45;&gt;15</title>
<path fill="none" stroke="darkgreen" d="M1362.44,-328.18C1363.12,-376.95 1357.72,-507 1280.8,-507 930.8,-507 930.8,-507 930.8,-507 912.86,-507 892.69,-507 876.96,-507"/>
<polygon fill="darkgreen" stroke="darkgreen" points="876.87,-503.5 866.87,-507 876.87,-510.5 876.87,-503.5"/>
<text text-anchor="middle" x="1105.8" y="-510" font-family="Courier,monospace" font-size="10.00" fill="darkgreen">a</text>
</g>
<!-- 15&#45;&gt;1 -->
<g id="edge47" class="edge">
<title>15&#45;&gt;1</title>
<path fill="none" stroke="black" d="M848.47,-525.27C849.24,-574.29 844.05,-705 766.8,-705 242.8,-705 242.8,-705 242.8,-705 185.06,-705 166.44,-623.01 160.51,-576.05"/>
<polygon fill="black" stroke="black" points="163.98,-575.59 159.38,-566.05 157.03,-576.38 163.98,-575.59"/>
<text text-anchor="middle" x="504.8" y="-708" font-family="Courier,monospace" font-size="10.00">a</text>
</g>
<!-- 15&#45;&gt;3 -->
<g id="edge48" class="edge">
<title>15&#45;&gt;3</title>
<path fill="none" stroke="darkred" d="M830.78,-504.34C814.42,-502.01 788.99,-499 766.8,-499 547.3,-499 547.3,-499 547.3,-499 429.66,-499 378.98,-543.14 283.8,-474 265.03,-460.36 255.19,-435.75 250.09,-415.7"/>
<polygon fill="darkred" stroke="darkred" points="253.46,-414.7 247.84,-405.72 246.63,-416.25 253.46,-414.7"/>
<text text-anchor="middle" x="548.3" y="-502" font-family="Courier,monospace" font-size="10.00" fill="darkred">c</text>
</g>
<!-- 15&#45;&gt;4 -->
<g id="edge49" class="edge">
<title>15&#45;&gt;4</title>
<path fill="none" stroke="darkgreen" d="M856.99,-523.33C870.69,-554.46 900.73,-622.7 917.97,-661.85"/>
<polygon fill="darkgreen" stroke="darkgreen" points="914.82,-663.39 922.05,-671.13 921.23,-660.57 914.82,-663.39"/>
<text text-anchor="middle" x="888.3" y="-602" font-family="Courier,monospace" font-size="10.00" fill="darkgreen">b</text>
</g>
</g>
</svg>
