<?xml version="1.0" encoding="UTF-8" standalone="no"?>
<!DOCTYPE svg PUBLIC "-//W3C//DTD SVG 1.1//EN"
 "http://www.w3.org/Graphics/SVG/1.1/DTD/svg11.dtd">
<!-- Generated by graphviz version 2.43.0 (0)
 -->
<!-- Title: EAD_DFA Pages: 1 -->
<svg width="555pt" height="192pt"
 viewBox="0.00 0.00 554.80 192.00" xmlns="http://www.w3.org/2000/svg" xmlns:xlink="http://www.w3.org/1999/xlink">
<g id="graph0" class="graph" transform="scale(1 1) rotate(0) translate(4 188)">
<title>EAD_DFA</title>
<polygon fill="white" stroke="transparent" points="-4,4 -4,-188 550.8,-188 550.8,4 -4,4"/>
<!-- _start -->
<g id="node1" class="node">
<title>_start</title>
<ellipse fill="black" stroke="black" cx="5.4" cy="-92" rx="5.4" ry="5.4"/>
</g>
<!-- 0 -->
<g id="node2" class="node">
<title>0</title>
<ellipse fill="none" stroke="black" cx="69.8" cy="-92" rx="18" ry="18"/>
<ellipse fill="none" stroke="black" cx="69.8" cy="-92" rx="22" ry="22"/>
<text text-anchor="middle" x="69.8" y="-89.5" font-family="Courier,monospace" font-size="10.00">0</text>
</g>
<!-- _start&#45;&gt;0 -->
<g id="edge1" class="edge">
<title>_start&#45;&gt;0</title>
<path fill="none" stroke="black" d="M10.89,-92C16.59,-92 26.94,-92 37.33,-92"/>
<polygon fill="black" stroke="black" points="37.57,-95.5 47.57,-92 37.57,-88.5 37.57,-95.5"/>
</g>
<!-- 1 -->
<g id="node3" class="node">
<title>1</title>
<ellipse fill="none" stroke="black" cx="152.8" cy="-139" rx="18" ry="18"/>
<text text-anchor="middle" x="152.8" y="-136.5" font-family="Courier,monospace" font-size="10.00">1</text>
</g>
<!-- 0&#45;&gt;1 -->
<g id="edge2" class="edge">
<title>0&#45;&gt;1</title>
<path fill="none" stroke="black" d="M89.18,-102.67C100.64,-109.31 115.5,-117.94 127.87,-125.11"/>
<polygon fill="black" stroke="black" points="126.34,-128.27 136.75,-130.26 129.85,-122.22 126.34,-128.27"/>
<text text-anchor="middle" x="113.3" y="-121" font-family="Courier,monospace" font-size="10.00">c</text>
</g>
<!-- 4 -->
<g id="node6" class="node">
<title>4</title>
<ellipse fill="none" stroke="black" cx="322.8" cy="-65" rx="18" ry="18"/>
<ellipse fill="none" stroke="black" cx="322.8" cy="-65" rx="22" ry="22"/>
<text text-anchor="middle" x="322.8" y="-62.5" font-family="Courier,monospace" font-size="10.00">4</text>
</g>
<!-- 0&#45;&gt;4 -->
<g id="edge3" class="edge">
<title>0&#45;&gt;4</title>
<path fill="none" stroke="darkred" d="M91.44,-86.46C119.06,-79.35 169.69,-67.43 213.8,-63 233.26,-61.05 238.25,-62.69 257.8,-63 268.44,-63.17 280.08,-63.49 290.47,-63.83"/>
<polygon fill="darkred" stroke="darkred" points="290.65,-67.33 300.76,-64.18 290.89,-60.34 290.65,-67.33"/>
<text text-anchor="middle" x="192.3" y="-69" font-family="Courier,monospace" font-size="10.00" fill="darkred">b</text>
</g>
<!-- 5 -->
<g id="node7" class="node">
<title>5</title>
<ellipse fill="none" stroke="black" cx="235.8" cy="-94" rx="18" ry="18"/>
<ellipse fill="none" stroke="black" cx="235.8" cy="-94" rx="22" ry="22"/>
<text text-anchor="middle" x="235.8" y="-91.5" font-family="Courier,monospace" font-size="10.00">5</text>
</g>
<!-- 0&#45;&gt;5 -->
<g id="edge4" class="edge">
<title>0&#45;&gt;5</title>
<path fill="none" stroke="darkgreen" d="M91.9,-92.26C120.2,-92.6 170.64,-93.22 203.4,-93.62"/>
<polygon fill="darkgreen" stroke="darkgreen" points="203.73,-97.12 213.78,-93.74 203.82,-90.12 203.73,-97.12"/>
<text text-anchor="middle" x="152.8" y="-96" font-family="Courier,monospace" font-size="10.00" fill="darkgreen">a</text>
</g>
<!-- 3 -->
<g id="node5" class="node">
<title>3</title>
<ellipse fill="#e0c4c4" stroke="black" cx="528.8" cy="-99" rx="18" ry="18"/>
<text text-anchor="middle" x="528.8" y="-96.5" font-family="Courier,monospace" font-size="10.00">3</text>
</g>
<!-- 1&#45;&gt;3 -->
<g id="edge5" class="edge">
<title>1&#45;&gt;3</title>
<path fill="none" stroke="black" d="M167.97,-149.02C183.58,-159.05 209.79,-173 234.8,-173 234.8,-173 234.8,-173 422.8,-173 459.19,-173 491.84,-142.94 510.74,-121.14"/>
<polygon fill="black" stroke="black" points="513.59,-123.19 517.29,-113.27 508.21,-118.72 513.59,-123.19"/>
<text text-anchor="middle" x="322.8" y="-176" font-family="Courier,monospace" font-size="10.00">b,c</text>
</g>
<!-- 1&#45;&gt;5 -->
<g id="edge6" class="edge">
<title>1&#45;&gt;5</title>
<path fill="none" stroke="darkred" d="M169.04,-130.54C179.8,-124.55 194.54,-116.37 207.33,-109.26"/>
<polygon fill="darkred" stroke="darkred" points="209.18,-112.24 216.22,-104.32 205.78,-106.12 209.18,-112.24"/>
<text text-anchor="middle" x="192.3" y="-122" font-family="Courier,monospace" font-size="10.00" fill="darkred">a</text>
</g>
<!-- 2 -->
<g id="node4" class="node">
<title>2</title>
<ellipse fill="none" stroke="black" cx="421.8" cy="-22" rx="18" ry="18"/>
<ellipse fill="none" stroke="black" cx="421.8" cy="-22" rx="22" ry="22"/>
<text text-anchor="middle" x="421.8" y="-19.5" font-family="Courier,monospace" font-size="10.00">2</text>
</g>
<!-- 2&#45;&gt;3 -->
<g id="edge7" class="edge">
<title>2&#45;&gt;3</title>
<path fill="none" stroke="black" d="M442.87,-28.64C457.66,-34.17 477.74,-43.07 492.8,-55 500.17,-60.84 506.95,-68.51 512.54,-75.81"/>
<polygon fill="black" stroke="black" points="509.82,-78.02 518.52,-84.08 515.49,-73.92 509.82,-78.02"/>
<text text-anchor="middle" x="477.3" y="-58" font-family="Courier,monospace" font-size="10.00">a,b,c</text>
</g>
<!-- 3&#45;&gt;3 -->
<g id="edge8" class="edge">
<title>3&#45;&gt;3</title>
<path fill="none" stroke="black" d="M520.17,-114.92C517.91,-125.15 520.79,-135 528.8,-135 534.06,-135 537.1,-130.76 537.94,-124.95"/>
<polygon fill="black" stroke="black" points="541.43,-124.73 537.43,-114.92 534.44,-125.08 541.43,-124.73"/>
<text text-anchor="middle" x="528.8" y="-138" font-family="Courier,monospace" font-size="10.00">a,b,c</text>
</g>
<!-- 4&#45;&gt;2 -->
<g id="edge9" class="edge">
<title>4&#45;&gt;2</title>
<path fill="none" stroke="black" d="M343.43,-56.3C357.37,-50.12 376.3,-41.73 391.95,-34.79"/>
<polygon fill="black" stroke="black" points="393.48,-37.94 401.2,-30.69 390.64,-31.54 393.48,-37.94"/>
<text text-anchor="middle" x="372.3" y="-50" font-family="Courier,monospace" font-size="10.00">a,b</text>
</g>
<!-- 4&#45;&gt;3 -->
<g id="edge10" class="edge">
<title>4&#45;&gt;3</title>
<path fill="none" stroke="darkred" d="M344.86,-68.51C382.15,-74.72 459.71,-87.65 500.84,-94.51"/>
<polygon fill="darkred" stroke="darkred" points="500.5,-98 510.94,-96.19 501.65,-91.09 500.5,-98"/>
<text text-anchor="middle" x="421.8" y="-87" font-family="Courier,monospace" font-size="10.00" fill="darkred">c</text>
</g>
<!-- 5&#45;&gt;3 -->
<g id="edge11" class="edge">
<title>5&#45;&gt;3</title>
<path fill="none" stroke="black" d="M257.88,-95.25C297.71,-97.54 386.74,-102.33 461.8,-104 475.57,-104.31 479.06,-104.98 492.8,-104 495.37,-103.82 498.04,-103.56 500.71,-103.26"/>
<polygon fill="black" stroke="black" points="501.31,-106.71 510.76,-101.93 500.39,-99.77 501.31,-106.71"/>
<text text-anchor="middle" x="372.3" y="-104" font-family="Courier,monospace" font-size="10.00">c</text>
</g>
<!-- 5&#45;&gt;4 -->
<g id="edge12" class="edge">
<title>5&#45;&gt;4</title>
<path fill="none" stroke="darkred" d="M256.94,-87.13C267.42,-83.55 280.44,-79.11 292.05,-75.15"/>
<polygon fill="darkred" stroke="darkred" points="293.47,-78.36 301.8,-71.82 291.21,-71.74 293.47,-78.36"/>
<text text-anchor="middle" x="279.3" y="-83" font-family="Courier,monospace" font-size="10.00" fill="darkred">b</text>
</g>
<!-- 5&#45;&gt;5 -->
<g id="edge13" class="edge">
<title>5&#45;&gt;5</title>
<path fill="none" stroke="darkgreen" d="M228.12,-114.99C227.17,-125.09 229.73,-134 235.8,-134 239.69,-134 242.14,-130.34 243.15,-125.06"/>
<polygon fill="darkgreen" stroke="darkgreen" points="246.65,-125.1 243.48,-114.99 239.65,-124.87 246.65,-125.1"/>
<text text-anchor="middle" x="235.8" y="-137" font-family="Courier,monospace" font-size="10.00" fill="darkgreen">a</text>
</g>
</g>
</svg>
