<?xml version="1.0" encoding="UTF-8" standalone="no"?>
<!DOCTYPE svg PUBLIC "-//W3C//DTD SVG 1.1//EN"
 "http://www.w3.org/Graphics/SVG/1.1/DTD/svg11.dtd">
<!-- Generated by graphviz version 2.43.0 (0)
 -->
<!-- Title: EAD_DFA Pages: 1 -->
<svg width="1302pt" height="624pt"
 viewBox="0.00 0.00 1301.80 624.00" xmlns="http://www.w3.org/2000/svg" xmlns:xlink="http://www.w3.org/1999/xlink">
<g id="graph0" class="graph" transform="scale(1 1) rotate(0) translate(4 620)">
<title>EAD_DFA</title>
<polygon fill="white" stroke="transparent" points="-4,4 -4,-620 1297.8,-620 1297.8,4 -4,4"/>
<!-- _start -->
<g id="node1" class="node">
<title>_start</title>
<ellipse fill="black" stroke="black" cx="5.4" cy="-307" rx="5.4" ry="5.4"/>
</g>
<!-- 0 -->
<g id="node2" class="node">
<title>0</title>
<ellipse fill="none" stroke="black" cx="69.8" cy="-307" rx="18" ry="18"/>
<ellipse fill="none" stroke="black" cx="69.8" cy="-307" rx="22" ry="22"/>
<text text-anchor="middle" x="69.8" y="-304.5" font-family="Courier,monospace" font-size="10.00">0</text>
</g>
<!-- _start&#45;&gt;0 -->
<g id="edge1" class="edge">
<title>_start&#45;&gt;0</title>
<path fill="none" stroke="black" d="M10.89,-307C16.59,-307 26.94,-307 37.33,-307"/>
<polygon fill="black" stroke="black" points="37.57,-310.5 47.57,-307 37.57,-303.5 37.57,-310.5"/>
</g>
<!-- 0&#45;&gt;0 -->
<g id="edge2" class="edge">
<title>0&#45;&gt;0</title>
<path fill="none" stroke="black" d="M62.48,-327.99C61.58,-338.09 64.02,-347 69.8,-347 73.5,-347 75.84,-343.34 76.8,-338.06"/>
<polygon fill="black" stroke="black" points="80.3,-338.1 77.12,-327.99 73.3,-337.87 80.3,-338.1"/>
<text text-anchor="middle" x="69.8" y="-350" font-family="Courier,monospace" font-size="10.00">c</text>
</g>
<!-- 13 -->
<g id="node15" class="node">
<title>13</title>
<ellipse fill="none" stroke="black" cx="156.8" cy="-420" rx="18" ry="18"/>
<ellipse fill="none" stroke="black" cx="156.8" cy="-420" rx="22" ry="22"/>
<text text-anchor="middle" x="156.8" y="-417.5" font-family="Courier,monospace" font-size="10.00">13</text>
</g>
<!-- 0&#45;&gt;13 -->
<g id="edge3" class="edge">
<title>0&#45;&gt;13</title>
<path fill="none" stroke="darkred" d="M79.11,-327.08C86.03,-342.45 96.82,-363.71 109.8,-380 115.68,-387.38 123.04,-394.46 130.14,-400.57"/>
<polygon fill="darkred" stroke="darkred" points="128.3,-403.59 138.25,-407.25 132.75,-398.19 128.3,-403.59"/>
<text text-anchor="middle" x="113.3" y="-390" font-family="Courier,monospace" font-size="10.00" fill="darkred">b</text>
</g>
<!-- 14 -->
<g id="node16" class="node">
<title>14</title>
<ellipse fill="none" stroke="black" cx="591.8" cy="-421" rx="18" ry="18"/>
<ellipse fill="none" stroke="black" cx="591.8" cy="-421" rx="22" ry="22"/>
<text text-anchor="middle" x="591.8" y="-418.5" font-family="Courier,monospace" font-size="10.00">14</text>
</g>
<!-- 0&#45;&gt;14 -->
<g id="edge4" class="edge">
<title>0&#45;&gt;14</title>
<path fill="none" stroke="darkgreen" d="M69.89,-329.29C68.93,-383.72 74.71,-519 155.8,-519 155.8,-519 155.8,-519 505.8,-519 542.22,-519 566.55,-479.89 579.53,-451.09"/>
<polygon fill="darkgreen" stroke="darkgreen" points="582.79,-452.35 583.49,-441.78 576.35,-449.61 582.79,-452.35"/>
<text text-anchor="middle" x="330.8" y="-522" font-family="Courier,monospace" font-size="10.00" fill="darkgreen">a</text>
</g>
<!-- 1 -->
<g id="node3" class="node">
<title>1</title>
<ellipse fill="none" stroke="black" cx="504.8" cy="-257" rx="18" ry="18"/>
<ellipse fill="none" stroke="black" cx="504.8" cy="-257" rx="22" ry="22"/>
<text text-anchor="middle" x="504.8" y="-254.5" font-family="Courier,monospace" font-size="10.00">1</text>
</g>
<!-- 1&#45;&gt;0 -->
<g id="edge5" class="edge">
<title>1&#45;&gt;0</title>
<path fill="none" stroke="black" d="M482.94,-252.78C465.79,-249.68 440.82,-246 418.8,-246 155.8,-246 155.8,-246 155.8,-246 129.65,-246 106.03,-265.29 90.37,-282.17"/>
<polygon fill="black" stroke="black" points="87.74,-279.87 83.75,-289.68 92.99,-284.49 87.74,-279.87"/>
<text text-anchor="middle" x="287.3" y="-249" font-family="Courier,monospace" font-size="10.00">c</text>
</g>
<!-- 3 -->
<g id="node5" class="node">
<title>3</title>
<ellipse fill="none" stroke="black" cx="1192.8" cy="-85" rx="18" ry="18"/>
<ellipse fill="none" stroke="black" cx="1192.8" cy="-85" rx="22" ry="22"/>
<text text-anchor="middle" x="1192.8" y="-82.5" font-family="Courier,monospace" font-size="10.00">3</text>
</g>
<!-- 1&#45;&gt;3 -->
<g id="edge6" class="edge">
<title>1&#45;&gt;3</title>
<path fill="none" stroke="darkred" d="M526.7,-253.76C562.53,-248.07 637.9,-235.49 700.8,-221 876.97,-180.42 1084.81,-117.95 1161.46,-94.41"/>
<polygon fill="darkred" stroke="darkred" points="1162.86,-97.64 1171.38,-91.35 1160.8,-90.95 1162.86,-97.64"/>
<text text-anchor="middle" x="852.8" y="-191" font-family="Courier,monospace" font-size="10.00" fill="darkred">b</text>
</g>
<!-- 1&#45;&gt;14 -->
<g id="edge7" class="edge">
<title>1&#45;&gt;14</title>
<path fill="none" stroke="darkgreen" d="M516.47,-275.88C525.97,-292.81 540.11,-318.4 551.8,-341 560.48,-357.77 569.76,-376.77 577.09,-392.04"/>
<polygon fill="darkgreen" stroke="darkgreen" points="574.13,-393.96 581.6,-401.47 580.44,-390.94 574.13,-393.96"/>
<text text-anchor="middle" x="548.3" y="-344" font-family="Courier,monospace" font-size="10.00" fill="darkgreen">a</text>
</g>
<!-- 2 -->
<g id="node4" class="node">
<title>2</title>
<ellipse fill="none" stroke="black" cx="1275.8" cy="-431" rx="18" ry="18"/>
<text text-anchor="middle" x="1275.8" y="-428.5" font-family="Courier,monospace" font-size="10.00">2</text>
</g>
<!-- 2&#45;&gt;0 -->
<g id="edge8" class="edge">
<title>2&#45;&gt;0</title>
<path fill="none" stroke="black" d="M1274.57,-448.97C1272.96,-493.42 1262.11,-605 1193.8,-605 155.8,-605 155.8,-605 155.8,-605 100.95,-605 79.55,-415.94 73.11,-338.99"/>
<polygon fill="black" stroke="black" points="76.59,-338.6 72.3,-328.91 69.61,-339.16 76.59,-338.6"/>
<text text-anchor="middle" x="678.8" y="-608" font-family="Courier,monospace" font-size="10.00">c</text>
</g>
<!-- 12 -->
<g id="node14" class="node">
<title>12</title>
<ellipse fill="none" stroke="black" cx="678.8" cy="-380" rx="18" ry="18"/>
<ellipse fill="none" stroke="black" cx="678.8" cy="-380" rx="22" ry="22"/>
<text text-anchor="middle" x="678.8" y="-377.5" font-family="Courier,monospace" font-size="10.00">12</text>
</g>
<!-- 2&#45;&gt;12 -->
<g id="edge9" class="edge">
<title>2&#45;&gt;12</title>
<path fill="none" stroke="darkred" d="M1257.73,-431C1241.34,-431 1215.88,-431 1193.8,-431 938.8,-431 938.8,-431 938.8,-431 908.26,-431 904.37,-413.63 874.8,-406 818.12,-391.38 749.93,-384.68 711.05,-381.85"/>
<polygon fill="darkred" stroke="darkred" points="711.11,-378.35 700.89,-381.15 710.63,-385.33 711.11,-378.35"/>
<text text-anchor="middle" x="983.3" y="-434" font-family="Courier,monospace" font-size="10.00" fill="darkred">b</text>
</g>
<!-- 2&#45;&gt;14 -->
<g id="edge10" class="edge">
<title>2&#45;&gt;14</title>
<path fill="none" stroke="darkgreen" d="M1267.84,-447.6C1256.33,-472.08 1230.87,-515 1193.8,-515 677.8,-515 677.8,-515 677.8,-515 642.57,-515 618.16,-478.23 604.81,-450.68"/>
<polygon fill="darkgreen" stroke="darkgreen" points="607.91,-449.03 600.55,-441.4 601.54,-451.95 607.91,-449.03"/>
<text text-anchor="middle" x="939.8" y="-518" font-family="Courier,monospace" font-size="10.00" fill="darkgreen">a</text>
</g>
<!-- 3&#45;&gt;0 -->
<g id="edge11" class="edge">
<title>3&#45;&gt;0</title>
<path fill="none" stroke="black" d="M1183.32,-64.86C1171.23,-39.72 1146.47,0 1110.8,0 155.8,0 155.8,0 155.8,0 99.28,0 78.83,-195.69 72.88,-274.59"/>
<polygon fill="black" stroke="black" points="69.36,-274.7 72.13,-284.92 76.35,-275.2 69.36,-274.7"/>
<text text-anchor="middle" x="635.3" y="-3" font-family="Courier,monospace" font-size="10.00">c</text>
</g>
<!-- 3&#45;&gt;2 -->
<g id="edge12" class="edge">
<title>3&#45;&gt;2</title>
<path fill="none" stroke="darkred" d="M1198.81,-106.38C1212.88,-166.52 1252.81,-337.08 1268.43,-403.78"/>
<polygon fill="darkred" stroke="darkred" points="1265.03,-404.62 1270.72,-413.56 1271.85,-403.03 1265.03,-404.62"/>
<text text-anchor="middle" x="1236.3" y="-281" font-family="Courier,monospace" font-size="10.00" fill="darkred">a</text>
</g>
<!-- 3&#45;&gt;3 -->
<g id="edge13" class="edge">
<title>3&#45;&gt;3</title>
<path fill="none" stroke="darkgreen" d="M1185.12,-105.99C1184.17,-116.09 1186.73,-125 1192.8,-125 1196.69,-125 1199.14,-121.34 1200.15,-116.06"/>
<polygon fill="darkgreen" stroke="darkgreen" points="1203.65,-116.1 1200.48,-105.99 1196.65,-115.87 1203.65,-116.1"/>
<text text-anchor="middle" x="1192.8" y="-128" font-family="Courier,monospace" font-size="10.00" fill="darkgreen">b</text>
</g>
<!-- 4 -->
<g id="node6" class="node">
<title>4</title>
<ellipse fill="none" stroke="black" cx="1109.8" cy="-167" rx="18" ry="18"/>
<text text-anchor="middle" x="1109.8" y="-164.5" font-family="Courier,monospace" font-size="10.00">4</text>
</g>
<!-- 4&#45;&gt;0 -->
<g id="edge14" class="edge">
<title>4&#45;&gt;0</title>
<path fill="none" stroke="black" d="M1101.47,-150.68C1085.4,-117.65 1043.68,-46 984.3,-46 155.8,-46 155.8,-46 155.8,-46 108.09,-46 83.02,-205.66 74.35,-275.23"/>
<polygon fill="black" stroke="black" points="70.87,-274.85 73.15,-285.2 77.82,-275.69 70.87,-274.85"/>
<text text-anchor="middle" x="591.8" y="-49" font-family="Courier,monospace" font-size="10.00">c</text>
</g>
<!-- 4&#45;&gt;2 -->
<g id="edge15" class="edge">
<title>4&#45;&gt;2</title>
<path fill="none" stroke="darkred" d="M1120.09,-181.95C1147.25,-225.68 1226.74,-353.64 1259.95,-407.1"/>
<polygon fill="darkred" stroke="darkred" points="1257.16,-409.24 1265.41,-415.89 1263.11,-405.55 1257.16,-409.24"/>
<text text-anchor="middle" x="1192.8" y="-336" font-family="Courier,monospace" font-size="10.00" fill="darkred">a</text>
</g>
<!-- 4&#45;&gt;3 -->
<g id="edge16" class="edge">
<title>4&#45;&gt;3</title>
<path fill="none" stroke="darkgreen" d="M1123.1,-154.55C1135.31,-142.18 1154.31,-122.95 1169.24,-107.84"/>
<polygon fill="darkgreen" stroke="darkgreen" points="1172.08,-109.95 1176.62,-100.37 1167.1,-105.03 1172.08,-109.95"/>
<text text-anchor="middle" x="1149.3" y="-133" font-family="Courier,monospace" font-size="10.00" fill="darkgreen">b</text>
</g>
<!-- 5 -->
<g id="node7" class="node">
<title>5</title>
<ellipse fill="none" stroke="black" cx="1026.8" cy="-273" rx="18" ry="18"/>
<ellipse fill="none" stroke="black" cx="1026.8" cy="-273" rx="22" ry="22"/>
<text text-anchor="middle" x="1026.8" y="-270.5" font-family="Courier,monospace" font-size="10.00">5</text>
</g>
<!-- 5&#45;&gt;0 -->
<g id="edge17" class="edge">
<title>5&#45;&gt;0</title>
<path fill="none" stroke="black" d="M1021.72,-251.43C1011,-202.05 977.16,-85 897.3,-85 634.3,-85 634.3,-85 634.3,-85 577.19,-85 562.91,-84 505.8,-84 155.8,-84 155.8,-84 155.8,-84 125.6,-84 123.82,-107.25 109.8,-134 86.1,-179.23 76.74,-238.46 73.08,-274.57"/>
<polygon fill="black" stroke="black" points="69.56,-274.72 72.12,-284.99 76.53,-275.36 69.56,-274.72"/>
<text text-anchor="middle" x="548.3" y="-88" font-family="Courier,monospace" font-size="10.00">c</text>
</g>
<!-- 5&#45;&gt;4 -->
<g id="edge18" class="edge">
<title>5&#45;&gt;4</title>
<path fill="none" stroke="darkred" d="M1040.81,-255.97C1054.68,-237.82 1076.69,-209.02 1091.89,-189.13"/>
<polygon fill="darkred" stroke="darkred" points="1094.85,-191.01 1098.15,-180.94 1089.29,-186.76 1094.85,-191.01"/>
<text text-anchor="middle" x="1070.3" y="-223" font-family="Courier,monospace" font-size="10.00" fill="darkred">b</text>
</g>
<!-- 5&#45;&gt;14 -->
<g id="edge19" class="edge">
<title>5&#45;&gt;14</title>
<path fill="none" stroke="darkgreen" d="M1010.46,-287.86C974.9,-321.2 882.62,-401.4 787.8,-432 721.77,-453.31 699.72,-452.16 631.8,-438 628.3,-437.27 624.72,-436.21 621.23,-434.96"/>
<polygon fill="darkgreen" stroke="darkgreen" points="622.3,-431.62 611.72,-431.1 619.67,-438.11 622.3,-431.62"/>
<text text-anchor="middle" x="809.3" y="-428" font-family="Courier,monospace" font-size="10.00" fill="darkgreen">a</text>
</g>
<!-- 6 -->
<g id="node8" class="node">
<title>6</title>
<ellipse fill="none" stroke="black" cx="939.8" cy="-281" rx="18" ry="18"/>
<ellipse fill="none" stroke="black" cx="939.8" cy="-281" rx="22" ry="22"/>
<text text-anchor="middle" x="939.8" y="-278.5" font-family="Courier,monospace" font-size="10.00">6</text>
</g>
<!-- 6&#45;&gt;0 -->
<g id="edge20" class="edge">
<title>6&#45;&gt;0</title>
<path fill="none" stroke="black" d="M932.16,-260.32C917.45,-218.97 877.94,-130 810.3,-130 547.3,-130 547.3,-130 547.3,-130 470.79,-130 451.81,-123 375.3,-123 155.8,-123 155.8,-123 155.8,-123 89.79,-123 74.88,-221.79 71.62,-274.59"/>
<polygon fill="black" stroke="black" points="68.12,-274.64 71.1,-284.81 75.11,-275 68.12,-274.64"/>
<text text-anchor="middle" x="504.8" y="-132" font-family="Courier,monospace" font-size="10.00">c</text>
</g>
<!-- 6&#45;&gt;5 -->
<g id="edge21" class="edge">
<title>6&#45;&gt;5</title>
<path fill="none" stroke="darkred" d="M961.81,-279.02C971.72,-278.09 983.75,-276.96 994.69,-275.93"/>
<polygon fill="darkred" stroke="darkred" points="995.11,-279.4 1004.74,-274.98 994.45,-272.44 995.11,-279.4"/>
<text text-anchor="middle" x="983.3" y="-280" font-family="Courier,monospace" font-size="10.00" fill="darkred">b</text>
</g>
<!-- 6&#45;&gt;14 -->
<g id="edge22" class="edge">
<title>6&#45;&gt;14</title>
<path fill="none" stroke="darkgreen" d="M925.01,-297.53C900.64,-325.41 846.91,-381.07 787.8,-405 733.43,-427.01 663.69,-426.61 624.05,-424.01"/>
<polygon fill="darkgreen" stroke="darkgreen" points="624.18,-420.51 613.94,-423.26 623.66,-427.49 624.18,-420.51"/>
<text text-anchor="middle" x="765.8" y="-420" font-family="Courier,monospace" font-size="10.00" fill="darkgreen">a</text>
</g>
<!-- 7 -->
<g id="node9" class="node">
<title>7</title>
<ellipse fill="none" stroke="black" cx="417.8" cy="-342" rx="18" ry="18"/>
<ellipse fill="none" stroke="black" cx="417.8" cy="-342" rx="22" ry="22"/>
<text text-anchor="middle" x="417.8" y="-339.5" font-family="Courier,monospace" font-size="10.00">7</text>
</g>
<!-- 7&#45;&gt;0 -->
<g id="edge23" class="edge">
<title>7&#45;&gt;0</title>
<path fill="none" stroke="black" d="M395.96,-337.39C378.82,-334.01 353.86,-330 331.8,-330 155.8,-330 155.8,-330 155.8,-330 136.68,-330 115.96,-324.51 99.76,-318.9"/>
<polygon fill="black" stroke="black" points="100.91,-315.59 90.32,-315.43 98.5,-322.16 100.91,-315.59"/>
<text text-anchor="middle" x="243.8" y="-333" font-family="Courier,monospace" font-size="10.00">c</text>
</g>
<!-- 7&#45;&gt;1 -->
<g id="edge24" class="edge">
<title>7&#45;&gt;1</title>
<path fill="none" stroke="darkred" d="M434,-326.8C447.17,-313.63 466.42,-294.38 481.37,-279.43"/>
<polygon fill="darkred" stroke="darkred" points="484.14,-281.61 488.74,-272.06 479.19,-276.66 484.14,-281.61"/>
<text text-anchor="middle" x="461.3" y="-305" font-family="Courier,monospace" font-size="10.00" fill="darkred">b</text>
</g>
<!-- 7&#45;&gt;14 -->
<g id="edge25" class="edge">
<title>7&#45;&gt;14</title>
<path fill="none" stroke="darkgreen" d="M440.23,-343.42C468.4,-346.26 518.22,-354.74 551.8,-380 558.17,-384.79 564.42,-390.66 569.98,-396.45"/>
<polygon fill="darkgreen" stroke="darkgreen" points="567.75,-399.19 577.1,-404.18 572.9,-394.45 567.75,-399.19"/>
<text text-anchor="middle" x="504.8" y="-368" font-family="Courier,monospace" font-size="10.00" fill="darkgreen">a</text>
</g>
<!-- 8 -->
<g id="node10" class="node">
<title>8</title>
<ellipse fill="none" stroke="black" cx="852.8" cy="-286" rx="18" ry="18"/>
<ellipse fill="none" stroke="black" cx="852.8" cy="-286" rx="22" ry="22"/>
<text text-anchor="middle" x="852.8" y="-283.5" font-family="Courier,monospace" font-size="10.00">8</text>
</g>
<!-- 8&#45;&gt;0 -->
<g id="edge26" class="edge">
<title>8&#45;&gt;0</title>
<path fill="none" stroke="black" d="M833.02,-275.23C805.19,-259.91 750.89,-232.42 700.8,-221 578.47,-193.12 544.27,-208 418.8,-208 155.8,-208 155.8,-208 155.8,-208 118.96,-208 94.63,-247.95 81.77,-277.09"/>
<polygon fill="black" stroke="black" points="78.47,-275.91 77.85,-286.49 84.93,-278.61 78.47,-275.91"/>
<text text-anchor="middle" x="461.3" y="-210" font-family="Courier,monospace" font-size="10.00">c</text>
</g>
<!-- 8&#45;&gt;6 -->
<g id="edge27" class="edge">
<title>8&#45;&gt;6</title>
<path fill="none" stroke="darkred" d="M874.81,-284.76C884.72,-284.18 896.75,-283.47 907.69,-282.83"/>
<polygon fill="darkred" stroke="darkred" points="907.96,-286.32 917.74,-282.24 907.55,-279.33 907.96,-286.32"/>
<text text-anchor="middle" x="896.3" y="-286" font-family="Courier,monospace" font-size="10.00" fill="darkred">b</text>
</g>
<!-- 8&#45;&gt;14 -->
<g id="edge28" class="edge">
<title>8&#45;&gt;14</title>
<path fill="none" stroke="darkgreen" d="M833.65,-297.32C821.15,-304.69 803.96,-314.01 787.8,-320 761.31,-329.82 753.38,-327.89 725.8,-334 695.16,-340.79 684.65,-334.54 656.8,-349 637.14,-359.21 620.69,-378.13 609.39,-394.02"/>
<polygon fill="darkgreen" stroke="darkgreen" points="606.38,-392.22 603.66,-402.45 612.17,-396.15 606.38,-392.22"/>
<text text-anchor="middle" x="722.3" y="-338" font-family="Courier,monospace" font-size="10.00" fill="darkgreen">a</text>
</g>
<!-- 9 -->
<g id="node11" class="node">
<title>9</title>
<ellipse fill="none" stroke="black" cx="330.8" cy="-380" rx="18" ry="18"/>
<ellipse fill="none" stroke="black" cx="330.8" cy="-380" rx="22" ry="22"/>
<text text-anchor="middle" x="330.8" y="-377.5" font-family="Courier,monospace" font-size="10.00">9</text>
</g>
<!-- 9&#45;&gt;0 -->
<g id="edge29" class="edge">
<title>9&#45;&gt;0</title>
<path fill="none" stroke="black" d="M308.54,-380.57C267.77,-380.8 176.71,-377.2 109.8,-344 103.28,-340.77 97.12,-336.07 91.7,-331.11"/>
<polygon fill="black" stroke="black" points="93.89,-328.35 84.33,-323.78 88.95,-333.31 93.89,-328.35"/>
<text text-anchor="middle" x="200.3" y="-375" font-family="Courier,monospace" font-size="10.00">c</text>
</g>
<!-- 9&#45;&gt;7 -->
<g id="edge30" class="edge">
<title>9&#45;&gt;7</title>
<path fill="none" stroke="darkred" d="M351.09,-371.38C361.99,-366.5 375.82,-360.32 387.99,-354.88"/>
<polygon fill="darkred" stroke="darkred" points="389.59,-358 397.29,-350.72 386.74,-351.61 389.59,-358"/>
<text text-anchor="middle" x="374.3" y="-365" font-family="Courier,monospace" font-size="10.00" fill="darkred">b</text>
</g>
<!-- 9&#45;&gt;14 -->
<g id="edge31" class="edge">
<title>9&#45;&gt;14</title>
<path fill="none" stroke="darkgreen" d="M352.56,-383.29C398.02,-390.48 506.59,-407.67 560.03,-416.13"/>
<polygon fill="darkgreen" stroke="darkgreen" points="559.52,-419.59 569.94,-417.7 560.61,-412.68 559.52,-419.59"/>
<text text-anchor="middle" x="461.3" y="-403" font-family="Courier,monospace" font-size="10.00" fill="darkgreen">a</text>
</g>
<!-- 10 -->
<g id="node12" class="node">
<title>10</title>
<ellipse fill="none" stroke="black" cx="765.8" cy="-289" rx="18" ry="18"/>
<ellipse fill="none" stroke="black" cx="765.8" cy="-289" rx="22" ry="22"/>
<text text-anchor="middle" x="765.8" y="-286.5" font-family="Courier,monospace" font-size="10.00">10</text>
</g>
<!-- 10&#45;&gt;0 -->
<g id="edge32" class="edge">
<title>10&#45;&gt;0</title>
<path fill="none" stroke="black" d="M755.29,-269.45C737.21,-235.45 694.45,-169 636.3,-169 155.8,-169 155.8,-169 155.8,-169 106.23,-169 84.63,-234.35 75.98,-275.11"/>
<polygon fill="black" stroke="black" points="72.51,-274.65 74.01,-285.13 79.37,-276 72.51,-274.65"/>
<text text-anchor="middle" x="417.8" y="-172" font-family="Courier,monospace" font-size="10.00">c</text>
</g>
<!-- 10&#45;&gt;8 -->
<g id="edge33" class="edge">
<title>10&#45;&gt;8</title>
<path fill="none" stroke="darkred" d="M787.81,-288.26C797.72,-287.91 809.75,-287.48 820.69,-287.1"/>
<polygon fill="darkred" stroke="darkred" points="820.87,-290.59 830.74,-286.74 820.62,-283.6 820.87,-290.59"/>
<text text-anchor="middle" x="809.3" y="-290" font-family="Courier,monospace" font-size="10.00" fill="darkred">b</text>
</g>
<!-- 10&#45;&gt;14 -->
<g id="edge34" class="edge">
<title>10&#45;&gt;14</title>
<path fill="none" stroke="darkgreen" d="M743.74,-285.21C715.09,-281.32 663.73,-279.02 631.8,-305 606.92,-325.25 597.82,-361.95 594.54,-388.66"/>
<polygon fill="darkgreen" stroke="darkgreen" points="591.05,-388.41 593.52,-398.71 598.02,-389.12 591.05,-388.41"/>
<text text-anchor="middle" x="678.8" y="-293" font-family="Courier,monospace" font-size="10.00" fill="darkgreen">a</text>
</g>
<!-- 11 -->
<g id="node13" class="node">
<title>11</title>
<ellipse fill="none" stroke="black" cx="243.8" cy="-469" rx="18" ry="18"/>
<ellipse fill="none" stroke="black" cx="243.8" cy="-469" rx="22" ry="22"/>
<text text-anchor="middle" x="243.8" y="-466.5" font-family="Courier,monospace" font-size="10.00">11</text>
</g>
<!-- 11&#45;&gt;0 -->
<g id="edge35" class="edge">
<title>11&#45;&gt;0</title>
<path fill="none" stroke="black" d="M221.51,-469.62C198.65,-469.37 161.97,-466.28 134.8,-451 95.04,-428.64 79.92,-374.31 74.21,-339.15"/>
<polygon fill="black" stroke="black" points="77.63,-338.3 72.73,-328.91 70.7,-339.31 77.63,-338.3"/>
<text text-anchor="middle" x="156.8" y="-468" font-family="Courier,monospace" font-size="10.00">c</text>
</g>
<!-- 11&#45;&gt;9 -->
<g id="edge36" class="edge">
<title>11&#45;&gt;9</title>
<path fill="none" stroke="darkred" d="M259.61,-453.5C272.93,-439.54 292.69,-418.86 307.85,-402.98"/>
<polygon fill="darkred" stroke="darkred" points="310.5,-405.27 314.88,-395.62 305.44,-400.44 310.5,-405.27"/>
<text text-anchor="middle" x="287.3" y="-430" font-family="Courier,monospace" font-size="10.00" fill="darkred">b</text>
</g>
<!-- 11&#45;&gt;14 -->
<g id="edge37" class="edge">
<title>11&#45;&gt;14</title>
<path fill="none" stroke="darkgreen" d="M265.9,-470.47C316.56,-473.32 448.58,-476.73 551.8,-444 556.13,-442.63 560.5,-440.7 564.66,-438.54"/>
<polygon fill="darkgreen" stroke="darkgreen" points="566.41,-441.57 573.35,-433.57 562.93,-435.5 566.41,-441.57"/>
<text text-anchor="middle" x="417.8" y="-473" font-family="Courier,monospace" font-size="10.00" fill="darkgreen">a</text>
</g>
<!-- 12&#45;&gt;0 -->
<g id="edge38" class="edge">
<title>12&#45;&gt;0</title>
<path fill="none" stroke="black" d="M659.21,-369.85C635.16,-357.21 591.62,-335.93 551.8,-325 387.48,-279.88 179.76,-295.22 102.03,-303.33"/>
<polygon fill="black" stroke="black" points="101.51,-299.86 91.94,-304.42 102.26,-306.82 101.51,-299.86"/>
<text text-anchor="middle" x="374.3" y="-300" font-family="Courier,monospace" font-size="10.00">c</text>
</g>
<!-- 12&#45;&gt;10 -->
<g id="edge39" class="edge">
<title>12&#45;&gt;10</title>
<path fill="none" stroke="darkred" d="M690.49,-361.12C697.64,-349.42 707.73,-334.48 718.8,-323 724.62,-316.97 731.6,-311.22 738.34,-306.22"/>
<polygon fill="darkred" stroke="darkred" points="740.52,-308.97 746.65,-300.33 736.47,-303.26 740.52,-308.97"/>
<text text-anchor="middle" x="722.3" y="-326" font-family="Courier,monospace" font-size="10.00" fill="darkred">b</text>
</g>
<!-- 12&#45;&gt;14 -->
<g id="edge40" class="edge">
<title>12&#45;&gt;14</title>
<path fill="none" stroke="darkgreen" d="M656.91,-375.21C648.77,-374.32 639.55,-374.57 631.8,-378 623.59,-381.64 616.37,-387.96 610.44,-394.64"/>
<polygon fill="darkgreen" stroke="darkgreen" points="607.64,-392.54 604.1,-402.53 613.09,-396.93 607.64,-392.54"/>
<text text-anchor="middle" x="635.3" y="-381" font-family="Courier,monospace" font-size="10.00" fill="darkgreen">a</text>
</g>
<!-- 13&#45;&gt;0 -->
<g id="edge41" class="edge">
<title>13&#45;&gt;0</title>
<path fill="none" stroke="black" d="M135.01,-415.71C126.31,-413.02 116.65,-408.74 109.8,-402 92.4,-384.89 82.46,-358.92 76.97,-338.45"/>
<polygon fill="black" stroke="black" points="80.34,-337.5 74.56,-328.62 73.54,-339.17 80.34,-337.5"/>
<text text-anchor="middle" x="113.3" y="-410" font-family="Courier,monospace" font-size="10.00">c</text>
</g>
<!-- 13&#45;&gt;11 -->
<g id="edge42" class="edge">
<title>13&#45;&gt;11</title>
<path fill="none" stroke="darkred" d="M176.24,-430.63C187.72,-437.25 202.68,-445.87 215.51,-453.27"/>
<polygon fill="darkred" stroke="darkred" points="213.98,-456.43 224.39,-458.39 217.48,-450.36 213.98,-456.43"/>
<text text-anchor="middle" x="200.3" y="-448" font-family="Courier,monospace" font-size="10.00" fill="darkred">b</text>
</g>
<!-- 13&#45;&gt;14 -->
<g id="edge43" class="edge">
<title>13&#45;&gt;14</title>
<path fill="none" stroke="darkgreen" d="M178.96,-422.02C211.39,-424.95 275.36,-430 329.8,-430 329.8,-430 329.8,-430 505.8,-430 523.82,-430 543.86,-427.98 559.96,-425.85"/>
<polygon fill="darkgreen" stroke="darkgreen" points="560.49,-429.31 569.91,-424.45 559.52,-422.38 560.49,-429.31"/>
<text text-anchor="middle" x="374.3" y="-433" font-family="Courier,monospace" font-size="10.00" fill="darkgreen">a</text>
</g>
<!-- 14&#45;&gt;0 -->
<g id="edge44" class="edge">
<title>14&#45;&gt;0</title>
<path fill="none" stroke="black" d="M588.17,-442.71C581.93,-483.16 562.26,-566 505.8,-566 155.8,-566 155.8,-566 155.8,-566 125.6,-566 123.32,-543 109.8,-516 80.86,-458.19 73.26,-381.65 71.35,-339.07"/>
<polygon fill="black" stroke="black" points="74.85,-338.87 70.98,-329.01 67.85,-339.13 74.85,-338.87"/>
<text text-anchor="middle" x="330.8" y="-569" font-family="Courier,monospace" font-size="10.00">c</text>
</g>
<!-- 14&#45;&gt;12 -->
<g id="edge45" class="edge">
<title>14&#45;&gt;12</title>
<path fill="none" stroke="darkred" d="M612.09,-411.7C623.06,-406.4 637.02,-399.67 649.25,-393.77"/>
<polygon fill="darkred" stroke="darkred" points="651.1,-396.76 658.59,-389.27 648.06,-390.46 651.1,-396.76"/>
<text text-anchor="middle" x="635.3" y="-404" font-family="Courier,monospace" font-size="10.00" fill="darkred">b</text>
</g>
<!-- 14&#45;&gt;14 -->
<g id="edge46" class="edge">
<title>14&#45;&gt;14</title>
<path fill="none" stroke="darkgreen" d="M584.12,-441.99C583.17,-452.09 585.73,-461 591.8,-461 595.69,-461 598.14,-457.34 599.15,-452.06"/>
<polygon fill="darkgreen" stroke="darkgreen" points="602.65,-452.1 599.48,-441.99 595.65,-451.87 602.65,-452.1"/>
<text text-anchor="middle" x="591.8" y="-464" font-family="Courier,monospace" font-size="10.00" fill="darkgreen">a</text>
</g>
</g>
</svg>
