<?xml version="1.0" encoding="UTF-8" standalone="no"?>
<!DOCTYPE svg PUBLIC "-//W3C//DTD SVG 1.1//EN"
 "http://www.w3.org/Graphics/SVG/1.1/DTD/svg11.dtd">
<!-- Generated by graphviz version 2.43.0 (0)
 -->
<!-- Title: EAD_DFA Pages: 1 -->
<svg width="361pt" height="216pt"
 viewBox="0.00 0.00 360.80 216.00" xmlns="http://www.w3.org/2000/svg" xmlns:xlink="http://www.w3.org/1999/xlink">
<g id="graph0" class="graph" transform="scale(1 1) rotate(0) translate(4 212)">
<title>EAD_DFA</title>
<polygon fill="white" stroke="transparent" points="-4,4 -4,-212 356.8,-212 356.8,4 -4,4"/>
<!-- _start -->
<g id="node1" class="node">
<title>_start</title>
<ellipse fill="black" stroke="black" cx="5.4" cy="-42" rx="5.4" ry="5.4"/>
</g>
<!-- 0 -->
<g id="node2" class="node">
<title>0</title>
<ellipse fill="none" stroke="black" cx="69.8" cy="-42" rx="18" ry="18"/>
<ellipse fill="none" stroke="black" cx="69.8" cy="-42" rx="22" ry="22"/>
<text text-anchor="middle" x="69.8" y="-39.5" font-family="Courier,monospace" font-size="10.00">0</text>
</g>
<!-- _start&#45;&gt;0 -->
<g id="edge1" class="edge">
<title>_start&#45;&gt;0</title>
<path fill="none" stroke="black" d="M10.89,-42C16.59,-42 26.94,-42 37.33,-42"/>
<polygon fill="black" stroke="black" points="37.57,-45.5 47.57,-42 37.57,-38.5 37.57,-45.5"/>
</g>
<!-- 2 -->
<g id="node4" class="node">
<title>2</title>
<ellipse fill="none" stroke="black" cx="156.8" cy="-80" rx="18" ry="18"/>
<ellipse fill="none" stroke="black" cx="156.8" cy="-80" rx="22" ry="22"/>
<text text-anchor="middle" x="156.8" y="-77.5" font-family="Courier,monospace" font-size="10.00">2</text>
</g>
<!-- 0&#45;&gt;2 -->
<g id="edge2" class="edge">
<title>0&#45;&gt;2</title>
<path fill="none" stroke="black" d="M90.09,-50.62C100.99,-55.5 114.82,-61.68 126.99,-67.12"/>
<polygon fill="black" stroke="black" points="125.74,-70.39 136.29,-71.28 128.59,-64 125.74,-70.39"/>
<text text-anchor="middle" x="113.3" y="-65" font-family="Courier,monospace" font-size="10.00">a</text>
</g>
<!-- 5 -->
<g id="node7" class="node">
<title>5</title>
<ellipse fill="none" stroke="black" cx="243.8" cy="-22" rx="18" ry="18"/>
<ellipse fill="none" stroke="black" cx="243.8" cy="-22" rx="22" ry="22"/>
<text text-anchor="middle" x="243.8" y="-19.5" font-family="Courier,monospace" font-size="10.00">5</text>
</g>
<!-- 0&#45;&gt;5 -->
<g id="edge3" class="edge">
<title>0&#45;&gt;5</title>
<path fill="none" stroke="darkred" d="M91.89,-39.55C121.89,-36.06 177.08,-29.64 211.75,-25.61"/>
<polygon fill="darkred" stroke="darkred" points="212.28,-29.07 221.81,-24.44 211.47,-22.12 212.28,-29.07"/>
<text text-anchor="middle" x="156.8" y="-37" font-family="Courier,monospace" font-size="10.00" fill="darkred">b</text>
</g>
<!-- 1 -->
<g id="node3" class="node">
<title>1</title>
<ellipse fill="none" stroke="black" cx="243.8" cy="-137" rx="18" ry="18"/>
<text text-anchor="middle" x="243.8" y="-134.5" font-family="Courier,monospace" font-size="10.00">1</text>
</g>
<!-- 3 -->
<g id="node5" class="node">
<title>3</title>
<ellipse fill="#e0c4c4" stroke="black" cx="330.8" cy="-70" rx="18" ry="18"/>
<text text-anchor="middle" x="330.8" y="-67.5" font-family="Courier,monospace" font-size="10.00">3</text>
</g>
<!-- 1&#45;&gt;3 -->
<g id="edge4" class="edge">
<title>1&#45;&gt;3</title>
<path fill="none" stroke="black" d="M258.46,-126.24C271.84,-115.69 292.45,-99.44 308.08,-87.12"/>
<polygon fill="black" stroke="black" points="310.49,-89.68 316.18,-80.74 306.16,-84.18 310.49,-89.68"/>
<text text-anchor="middle" x="287.3" y="-108" font-family="Courier,monospace" font-size="10.00">b</text>
</g>
<!-- 4 -->
<g id="node6" class="node">
<title>4</title>
<ellipse fill="none" stroke="black" cx="330.8" cy="-157" rx="18" ry="18"/>
<ellipse fill="none" stroke="black" cx="330.8" cy="-157" rx="22" ry="22"/>
<text text-anchor="middle" x="330.8" y="-154.5" font-family="Courier,monospace" font-size="10.00">4</text>
</g>
<!-- 1&#45;&gt;4 -->
<g id="edge5" class="edge">
<title>1&#45;&gt;4</title>
<path fill="none" stroke="darkred" d="M261.59,-140.95C272.36,-143.48 286.65,-146.85 299.37,-149.84"/>
<polygon fill="darkred" stroke="darkred" points="298.6,-153.25 309.13,-152.14 300.2,-146.44 298.6,-153.25"/>
<text text-anchor="middle" x="287.3" y="-150" font-family="Courier,monospace" font-size="10.00" fill="darkred">a</text>
</g>
<!-- 2&#45;&gt;1 -->
<g id="edge6" class="edge">
<title>2&#45;&gt;1</title>
<path fill="none" stroke="black" d="M175.41,-91.81C188.26,-100.42 205.78,-112.18 219.74,-121.54"/>
<polygon fill="black" stroke="black" points="218.06,-124.62 228.32,-127.29 221.96,-118.81 218.06,-124.62"/>
<text text-anchor="middle" x="200.3" y="-113" font-family="Courier,monospace" font-size="10.00">b</text>
</g>
<!-- 2&#45;&gt;3 -->
<g id="edge7" class="edge">
<title>2&#45;&gt;3</title>
<path fill="none" stroke="darkred" d="M178.89,-78.77C209.97,-76.97 268.1,-73.59 302.43,-71.59"/>
<polygon fill="darkred" stroke="darkred" points="302.9,-75.07 312.68,-71 302.49,-68.08 302.9,-75.07"/>
<text text-anchor="middle" x="243.8" y="-79" font-family="Courier,monospace" font-size="10.00" fill="darkred">a</text>
</g>
<!-- 3&#45;&gt;3 -->
<g id="edge8" class="edge">
<title>3&#45;&gt;3</title>
<path fill="none" stroke="black" d="M323.42,-86.66C321.78,-96.62 324.24,-106 330.8,-106 335,-106 337.52,-102.15 338.36,-96.77"/>
<polygon fill="black" stroke="black" points="341.86,-96.6 338.18,-86.66 334.86,-96.72 341.86,-96.6"/>
<text text-anchor="middle" x="330.8" y="-109" font-family="Courier,monospace" font-size="10.00">a,b</text>
</g>
<!-- 4&#45;&gt;1 -->
<g id="edge9" class="edge">
<title>4&#45;&gt;1</title>
<path fill="none" stroke="black" d="M308.91,-160.51C300.94,-161.18 291.84,-161.11 283.8,-159 278.25,-157.54 272.67,-155.1 267.52,-152.36"/>
<polygon fill="black" stroke="black" points="269.24,-149.31 258.85,-147.26 265.69,-155.34 269.24,-149.31"/>
<text text-anchor="middle" x="287.3" y="-163" font-family="Courier,monospace" font-size="10.00">b</text>
</g>
<!-- 4&#45;&gt;4 -->
<g id="edge10" class="edge">
<title>4&#45;&gt;4</title>
<path fill="none" stroke="darkred" d="M323.12,-177.99C322.17,-188.09 324.73,-197 330.8,-197 334.69,-197 337.14,-193.34 338.15,-188.06"/>
<polygon fill="darkred" stroke="darkred" points="341.65,-188.1 338.48,-177.99 334.65,-187.87 341.65,-188.1"/>
<text text-anchor="middle" x="330.8" y="-200" font-family="Courier,monospace" font-size="10.00" fill="darkred">a</text>
</g>
<!-- 5&#45;&gt;3 -->
<g id="edge11" class="edge">
<title>5&#45;&gt;3</title>
<path fill="none" stroke="black" d="M265.82,-17.58C273.98,-16.86 283.17,-17.32 290.8,-21 301.49,-26.15 310.15,-35.82 316.57,-45.21"/>
<polygon fill="black" stroke="black" points="313.78,-47.34 322.04,-53.97 319.72,-43.64 313.78,-47.34"/>
<text text-anchor="middle" x="287.3" y="-24" font-family="Courier,monospace" font-size="10.00">b</text>
</g>
<!-- 5&#45;&gt;4 -->
<g id="edge12" class="edge">
<title>5&#45;&gt;4</title>
<path fill="none" stroke="darkred" d="M258.27,-38.76C268,-51.32 281.09,-69.17 290.8,-86 300.54,-102.89 299.3,-108.98 308.8,-126 309.75,-127.7 310.77,-129.43 311.82,-131.16"/>
<polygon fill="darkred" stroke="darkred" points="308.91,-133.11 317.26,-139.63 314.8,-129.32 308.91,-133.11"/>
<text text-anchor="middle" x="287.3" y="-89" font-family="Courier,monospace" font-size="10.00" fill="darkred">a</text>
</g>
</g>
</svg>
