<?xml version="1.0" encoding="UTF-8" standalone="no"?>
<!DOCTYPE svg PUBLIC "-//W3C//DTD SVG 1.1//EN"
 "http://www.w3.org/Graphics/SVG/1.1/DTD/svg11.dtd">
<!-- Generated by graphviz version 2.43.0 (0)
 -->
<!-- Title: EAD_DFA Pages: 1 -->
<svg width="440pt" height="262pt"
 viewBox="0.00 0.00 439.80 262.00" xmlns="http://www.w3.org/2000/svg" xmlns:xlink="http://www.w3.org/1999/xlink">
<g id="graph0" class="graph" transform="scale(1 1) rotate(0) translate(4 258)">
<title>EAD_DFA</title>
<polygon fill="white" stroke="transparent" points="-4,4 -4,-258 435.8,-258 435.8,4 -4,4"/>
<!-- _start -->
<g id="node1" class="node">
<title>_start</title>
<ellipse fill="black" stroke="black" cx="5.4" cy="-70" rx="5.4" ry="5.4"/>
</g>
<!-- 0 -->
<g id="node2" class="node">
<title>0</title>
<ellipse fill="none" stroke="black" cx="69.8" cy="-70" rx="18" ry="18"/>
<ellipse fill="none" stroke="black" cx="69.8" cy="-70" rx="22" ry="22"/>
<text text-anchor="middle" x="69.8" y="-67.5" font-family="Courier,monospace" font-size="10.00">0</text>
</g>
<!-- _start&#45;&gt;0 -->
<g id="edge1" class="edge">
<title>_start&#45;&gt;0</title>
<path fill="none" stroke="black" d="M10.89,-70C16.59,-70 26.94,-70 37.33,-70"/>
<polygon fill="black" stroke="black" points="37.57,-73.5 47.57,-70 37.57,-66.5 37.57,-73.5"/>
</g>
<!-- 1 -->
<g id="node3" class="node">
<title>1</title>
<ellipse fill="none" stroke="black" cx="156.8" cy="-113" rx="18" ry="18"/>
<ellipse fill="none" stroke="black" cx="156.8" cy="-113" rx="22" ry="22"/>
<text text-anchor="middle" x="156.8" y="-110.5" font-family="Courier,monospace" font-size="10.00">1</text>
</g>
<!-- 0&#45;&gt;1 -->
<g id="edge2" class="edge">
<title>0&#45;&gt;1</title>
<path fill="none" stroke="black" d="M89.66,-79.54C100.81,-85.18 115.14,-92.43 127.61,-98.74"/>
<polygon fill="black" stroke="black" points="126.19,-101.94 136.69,-103.33 129.35,-95.7 126.19,-101.94"/>
<text text-anchor="middle" x="113.3" y="-96" font-family="Courier,monospace" font-size="10.00">a</text>
</g>
<!-- 2 -->
<g id="node4" class="node">
<title>2</title>
<ellipse fill="none" stroke="black" cx="243.8" cy="-45" rx="18" ry="18"/>
<ellipse fill="none" stroke="black" cx="243.8" cy="-45" rx="22" ry="22"/>
<text text-anchor="middle" x="243.8" y="-42.5" font-family="Courier,monospace" font-size="10.00">2</text>
</g>
<!-- 0&#45;&gt;2 -->
<g id="edge3" class="edge">
<title>0&#45;&gt;2</title>
<path fill="none" stroke="darkred" d="M91.89,-66.93C121.89,-62.57 177.08,-54.55 211.75,-49.51"/>
<polygon fill="darkred" stroke="darkred" points="212.41,-52.95 221.81,-48.05 211.41,-46.03 212.41,-52.95"/>
<text text-anchor="middle" x="156.8" y="-64" font-family="Courier,monospace" font-size="10.00" fill="darkred">b</text>
</g>
<!-- 3 -->
<g id="node5" class="node">
<title>3</title>
<ellipse fill="none" stroke="black" cx="243.8" cy="-181" rx="18" ry="18"/>
<text text-anchor="middle" x="243.8" y="-178.5" font-family="Courier,monospace" font-size="10.00">3</text>
</g>
<!-- 1&#45;&gt;3 -->
<g id="edge4" class="edge">
<title>1&#45;&gt;3</title>
<path fill="none" stroke="black" d="M174.59,-126.43C187.94,-137.11 206.7,-152.12 221.17,-163.7"/>
<polygon fill="black" stroke="black" points="219.13,-166.55 229.12,-170.06 223.5,-161.08 219.13,-166.55"/>
<text text-anchor="middle" x="200.3" y="-153" font-family="Courier,monospace" font-size="10.00">a</text>
</g>
<!-- 4 -->
<g id="node6" class="node">
<title>4</title>
<ellipse fill="none" stroke="black" cx="243.8" cy="-113" rx="18" ry="18"/>
<text text-anchor="middle" x="243.8" y="-110.5" font-family="Courier,monospace" font-size="10.00">4</text>
</g>
<!-- 1&#45;&gt;4 -->
<g id="edge5" class="edge">
<title>1&#45;&gt;4</title>
<path fill="none" stroke="darkred" d="M178.81,-113C189.88,-113 203.58,-113 215.46,-113"/>
<polygon fill="darkred" stroke="darkred" points="215.74,-116.5 225.74,-113 215.74,-109.5 215.74,-116.5"/>
<text text-anchor="middle" x="200.3" y="-116" font-family="Courier,monospace" font-size="10.00" fill="darkred">b</text>
</g>
<!-- 5 -->
<g id="node7" class="node">
<title>5</title>
<ellipse fill="none" stroke="black" cx="330.8" cy="-113" rx="18" ry="18"/>
<ellipse fill="none" stroke="black" cx="330.8" cy="-113" rx="22" ry="22"/>
<text text-anchor="middle" x="330.8" y="-110.5" font-family="Courier,monospace" font-size="10.00">5</text>
</g>
<!-- 2&#45;&gt;5 -->
<g id="edge6" class="edge">
<title>2&#45;&gt;5</title>
<path fill="none" stroke="black" d="M265.7,-41.22C274.02,-40.76 283.37,-41.62 290.8,-46 292.84,-47.2 304.39,-67.27 314.39,-85.13"/>
<polygon fill="black" stroke="black" points="311.5,-87.13 319.43,-94.16 317.61,-83.72 311.5,-87.13"/>
<text text-anchor="middle" x="287.3" y="-49" font-family="Courier,monospace" font-size="10.00">a</text>
</g>
<!-- 6 -->
<g id="node8" class="node">
<title>6</title>
<ellipse fill="#e0c4c4" stroke="black" cx="330.8" cy="-18" rx="18" ry="18"/>
<text text-anchor="middle" x="330.8" y="-15.5" font-family="Courier,monospace" font-size="10.00">6</text>
</g>
<!-- 2&#45;&gt;6 -->
<g id="edge7" class="edge">
<title>2&#45;&gt;6</title>
<path fill="none" stroke="darkred" d="M259.08,-28.67C265.84,-22.16 274.47,-15.42 283.8,-12 290.05,-9.71 297.07,-9.52 303.7,-10.32"/>
<polygon fill="darkred" stroke="darkred" points="303.15,-13.78 313.63,-12.23 304.47,-6.91 303.15,-13.78"/>
<text text-anchor="middle" x="287.3" y="-15" font-family="Courier,monospace" font-size="10.00" fill="darkred">b</text>
</g>
<!-- 3&#45;&gt;3 -->
<g id="edge8" class="edge">
<title>3&#45;&gt;3</title>
<path fill="none" stroke="black" d="M236.42,-197.66C234.78,-207.62 237.24,-217 243.8,-217 248,-217 250.52,-213.15 251.36,-207.77"/>
<polygon fill="black" stroke="black" points="254.86,-207.6 251.18,-197.66 247.86,-207.72 254.86,-207.6"/>
<text text-anchor="middle" x="243.8" y="-220" font-family="Courier,monospace" font-size="10.00">a</text>
</g>
<!-- 7 -->
<g id="node9" class="node">
<title>7</title>
<ellipse fill="none" stroke="black" cx="330.8" cy="-207" rx="18" ry="18"/>
<text text-anchor="middle" x="330.8" y="-204.5" font-family="Courier,monospace" font-size="10.00">7</text>
</g>
<!-- 3&#45;&gt;7 -->
<g id="edge9" class="edge">
<title>3&#45;&gt;7</title>
<path fill="none" stroke="darkred" d="M261.12,-186.03C268.1,-188.18 276.35,-190.72 283.8,-193 290.19,-194.96 297.08,-197.06 303.54,-199.02"/>
<polygon fill="darkred" stroke="darkred" points="302.6,-202.4 313.19,-201.96 304.64,-195.7 302.6,-202.4"/>
<text text-anchor="middle" x="287.3" y="-198" font-family="Courier,monospace" font-size="10.00" fill="darkred">b</text>
</g>
<!-- 4&#45;&gt;5 -->
<g id="edge10" class="edge">
<title>4&#45;&gt;5</title>
<path fill="none" stroke="black" d="M260.87,-119.13C267.81,-121.46 276.09,-123.84 283.8,-125 289.17,-125.81 294.82,-125.41 300.25,-124.37"/>
<polygon fill="black" stroke="black" points="301.51,-127.65 310.29,-121.72 299.73,-120.88 301.51,-127.65"/>
<text text-anchor="middle" x="287.3" y="-129" font-family="Courier,monospace" font-size="10.00">a</text>
</g>
<!-- 4&#45;&gt;6 -->
<g id="edge11" class="edge">
<title>4&#45;&gt;6</title>
<path fill="none" stroke="darkred" d="M256.62,-99.79C270.77,-83.98 294.62,-57.32 311.24,-38.75"/>
<polygon fill="darkred" stroke="darkred" points="314.02,-40.88 318.08,-31.1 308.81,-36.22 314.02,-40.88"/>
<text text-anchor="middle" x="287.3" y="-72" font-family="Courier,monospace" font-size="10.00" fill="darkred">b</text>
</g>
<!-- 5&#45;&gt;4 -->
<g id="edge12" class="edge">
<title>5&#45;&gt;4</title>
<path fill="none" stroke="black" d="M308.75,-112.36C302.94,-112.21 296.62,-112.07 290.8,-112 284.81,-111.92 278.38,-111.98 272.28,-112.09"/>
<polygon fill="black" stroke="black" points="271.75,-108.6 261.84,-112.35 271.92,-115.6 271.75,-108.6"/>
<text text-anchor="middle" x="287.3" y="-115" font-family="Courier,monospace" font-size="10.00">b</text>
</g>
<!-- 5&#45;&gt;5 -->
<g id="edge13" class="edge">
<title>5&#45;&gt;5</title>
<path fill="none" stroke="darkred" d="M323.12,-133.99C322.17,-144.09 324.73,-153 330.8,-153 334.69,-153 337.14,-149.34 338.15,-144.06"/>
<polygon fill="darkred" stroke="darkred" points="341.65,-144.1 338.48,-133.99 334.65,-143.87 341.65,-144.1"/>
<text text-anchor="middle" x="330.8" y="-156" font-family="Courier,monospace" font-size="10.00" fill="darkred">a</text>
</g>
<!-- 6&#45;&gt;6 -->
<g id="edge14" class="edge">
<title>6&#45;&gt;6</title>
<path fill="none" stroke="black" d="M323.42,-34.66C321.78,-44.62 324.24,-54 330.8,-54 335,-54 337.52,-50.15 338.36,-44.77"/>
<polygon fill="black" stroke="black" points="341.86,-44.6 338.18,-34.66 334.86,-44.72 341.86,-44.6"/>
<text text-anchor="middle" x="330.8" y="-57" font-family="Courier,monospace" font-size="10.00">a,b</text>
</g>
<!-- 7&#45;&gt;3 -->
<g id="edge15" class="edge">
<title>7&#45;&gt;3</title>
<path fill="none" stroke="black" d="M316.81,-195.01C309.7,-189.27 300.39,-183 290.8,-180 284.84,-178.14 278.23,-177.51 271.93,-177.53"/>
<polygon fill="black" stroke="black" points="271.57,-174.04 261.77,-178.08 271.94,-181.03 271.57,-174.04"/>
<text text-anchor="middle" x="287.3" y="-183" font-family="Courier,monospace" font-size="10.00">a</text>
</g>
<!-- 8 -->
<g id="node10" class="node">
<title>8</title>
<ellipse fill="#e0c4c4" stroke="black" cx="413.8" cy="-207" rx="18" ry="18"/>
<text text-anchor="middle" x="413.8" y="-204.5" font-family="Courier,monospace" font-size="10.00">8</text>
</g>
<!-- 7&#45;&gt;8 -->
<g id="edge16" class="edge">
<title>7&#45;&gt;8</title>
<path fill="none" stroke="darkred" d="M348.98,-207C359.61,-207 373.49,-207 385.6,-207"/>
<polygon fill="darkred" stroke="darkred" points="385.65,-210.5 395.65,-207 385.65,-203.5 385.65,-210.5"/>
<text text-anchor="middle" x="374.3" y="-210" font-family="Courier,monospace" font-size="10.00" fill="darkred">b</text>
</g>
<!-- 8&#45;&gt;8 -->
<g id="edge17" class="edge">
<title>8&#45;&gt;8</title>
<path fill="none" stroke="black" d="M407.07,-224.04C405.69,-233.86 407.94,-243 413.8,-243 417.46,-243 419.72,-239.43 420.55,-234.35"/>
<polygon fill="black" stroke="black" points="424.05,-234.03 420.53,-224.04 417.05,-234.04 424.05,-234.03"/>
<text text-anchor="middle" x="413.8" y="-246" font-family="Courier,monospace" font-size="10.00">a,b</text>
</g>
</g>
</svg>
