<?xml version="1.0" encoding="UTF-8" standalone="no"?>
<!DOCTYPE svg PUBLIC "-//W3C//DTD SVG 1.1//EN"
 "http://www.w3.org/Graphics/SVG/1.1/DTD/svg11.dtd">
<!-- Generated by graphviz version 2.43.0 (0)
 -->
<!-- Title: TemplateAutomaton Pages: 1 -->
<svg width="669pt" height="564pt"
 viewBox="0.00 0.00 669.13 564.39" xmlns="http://www.w3.org/2000/svg" xmlns:xlink="http://www.w3.org/1999/xlink">
<g id="graph0" class="graph" transform="scale(1 1) rotate(0) translate(4 560.39)">
<title>TemplateAutomaton</title>
<polygon fill="white" stroke="transparent" points="-4,4 -4,-560.39 665.13,-560.39 665.13,4 -4,4"/>
<!-- _start_11 -->
<g id="node1" class="node">
<title>_start_11</title>
<ellipse fill="#cdad00" stroke="#cdad00" cx="5.4" cy="-410.31" rx="5.4" ry="5.4"/>
</g>
<!-- 11 -->
<g id="node2" class="node">
<title>11</title>
<ellipse fill="#fff3cd" stroke="#cdad00" stroke-width="2" cx="74.67" cy="-410.31" rx="26.74" ry="26.74"/>
<text text-anchor="middle" x="74.67" y="-413.11" font-family="Courier,monospace" font-size="9.00">q̂_U</text>
<text text-anchor="middle" x="74.67" y="-403.11" font-family="Courier,monospace" font-size="9.00">{3⁺}</text>
</g>
<!-- _start_11&#45;&gt;11 -->
<g id="edge1" class="edge">
<title>_start_11&#45;&gt;11</title>
<path fill="none" stroke="#cdad00" d="M10.81,-410.31C16.44,-410.31 26.72,-410.31 37.36,-410.31"/>
<polygon fill="#cdad00" stroke="#cdad00" points="37.53,-413.81 47.53,-410.31 37.53,-406.81 37.53,-413.81"/>
</g>
<!-- 6 -->
<g id="node12" class="node">
<title>6</title>
<ellipse fill="none" stroke="black" cx="206.85" cy="-410.31" rx="39.67" ry="39.67"/>
<text text-anchor="middle" x="206.85" y="-408.11" font-family="Courier,monospace" font-size="9.00">{1⁺,2⁺,3⁻}</text>
</g>
<!-- 11&#45;&gt;6 -->
<g id="edge17" class="edge">
<title>11&#45;&gt;6</title>
<path fill="none" stroke="black" d="M101.7,-410.31C117.42,-410.31 137.95,-410.31 156.63,-410.31"/>
<polygon fill="black" stroke="black" points="156.77,-413.81 166.77,-410.31 156.77,-406.81 156.77,-413.81"/>
<text text-anchor="middle" x="123.04" y="-413.31" font-family="Courier,monospace" font-size="10.00">b</text>
</g>
<!-- 7 -->
<g id="node13" class="node">
<title>7</title>
<ellipse fill="none" stroke="black" cx="206.85" cy="-201.31" rx="58.13" ry="58.13"/>
<text text-anchor="middle" x="206.85" y="-199.11" font-family="Courier,monospace" font-size="9.00">{1⁺,2⁺,3⁻,4⁺,5⁺}</text>
</g>
<!-- 11&#45;&gt;7 -->
<g id="edge18" class="edge">
<title>11&#45;&gt;7</title>
<path fill="none" stroke="darkred" d="M85.3,-385.49C97.14,-356.4 118.85,-307.35 144.54,-269.31 148.86,-262.92 153.74,-256.51 158.82,-250.32"/>
<polygon fill="darkred" stroke="darkred" points="161.55,-252.5 165.33,-242.61 156.2,-247.99 161.55,-252.5"/>
<text text-anchor="middle" x="123.04" y="-313.31" font-family="Courier,monospace" font-size="10.00" fill="darkred">c</text>
</g>
<!-- 10 -->
<g id="node15" class="node">
<title>10</title>
<ellipse fill="none" stroke="black" cx="206.85" cy="-498.31" rx="30.7" ry="30.7"/>
<text text-anchor="middle" x="206.85" y="-496.11" font-family="Courier,monospace" font-size="9.00">{2⁺,3⁻}</text>
</g>
<!-- 11&#45;&gt;10 -->
<g id="edge19" class="edge">
<title>11&#45;&gt;10</title>
<path fill="none" stroke="darkgreen" d="M96.88,-425.83C110.39,-435.61 128.35,-448.41 144.54,-459.31 153.25,-465.18 162.78,-471.35 171.68,-477.01"/>
<polygon fill="darkgreen" stroke="darkgreen" points="169.98,-480.09 180.31,-482.48 173.73,-474.17 169.98,-480.09"/>
<text text-anchor="middle" x="123.04" y="-449.31" font-family="Courier,monospace" font-size="10.00" fill="darkgreen">a</text>
</g>
<!-- _start_8 -->
<g id="node3" class="node">
<title>_start_8</title>
<ellipse fill="firebrick" stroke="firebrick" cx="74.67" cy="-315.31" rx="5.4" ry="5.4"/>
</g>
<!-- 8 -->
<g id="node4" class="node">
<title>8</title>
<ellipse fill="#f8d7da" stroke="firebrick" stroke-width="2" cx="206.85" cy="-315.31" rx="37.45" ry="37.45"/>
<text text-anchor="middle" x="206.85" y="-318.11" font-family="Courier,monospace" font-size="9.00">q̂_nf</text>
<text text-anchor="middle" x="206.85" y="-308.11" font-family="Courier,monospace" font-size="9.00">{1⁺,3⁻}</text>
</g>
<!-- _start_8&#45;&gt;8 -->
<g id="edge2" class="edge">
<title>_start_8&#45;&gt;8</title>
<path fill="none" stroke="firebrick" d="M80.3,-315.31C92.86,-315.31 128.65,-315.31 158.81,-315.31"/>
<polygon fill="firebrick" stroke="firebrick" points="159.2,-318.81 169.2,-315.31 159.2,-311.81 159.2,-318.81"/>
</g>
<!-- 0 -->
<g id="node7" class="node">
<title>0</title>
<polygon fill="#cce5ff" stroke="black" points="461.14,-307.86 461.14,-322.77 418.68,-333.31 358.63,-333.31 316.17,-322.77 316.17,-307.86 358.63,-297.31 418.68,-297.31 461.14,-307.86"/>
<polygon fill="none" stroke="black" points="465.14,-304.73 465.14,-325.9 419.17,-337.31 358.14,-337.31 312.17,-325.9 312.17,-304.73 358.14,-293.31 419.17,-293.31 465.14,-304.73"/>
<text text-anchor="middle" x="388.66" y="-313.11" font-family="Courier,monospace" font-size="9.00">{0⁺,1⁻,2⁻,3⁻,4⁻,5⁻}</text>
</g>
<!-- 8&#45;&gt;0 -->
<g id="edge13" class="edge">
<title>8&#45;&gt;0</title>
<path fill="none" stroke="black" d="M244.67,-315.31C261.28,-315.31 281.66,-315.31 301.77,-315.31"/>
<polygon fill="black" stroke="black" points="301.92,-318.81 311.92,-315.31 301.92,-311.81 301.92,-318.81"/>
<text text-anchor="middle" x="290.66" y="-318.31" font-family="Courier,monospace" font-size="10.00">c</text>
</g>
<!-- _start_4 -->
<g id="node5" class="node">
<title>_start_4</title>
<ellipse fill="purple" stroke="purple" cx="74.67" cy="-62.31" rx="5.4" ry="5.4"/>
</g>
<!-- 4 -->
<g id="node6" class="node">
<title>4</title>
<ellipse fill="#d4edda" stroke="black" cx="206.85" cy="-62.31" rx="58.14" ry="58.14"/>
<ellipse fill="none" stroke="black" cx="206.85" cy="-62.31" rx="62.13" ry="62.13"/>
<text text-anchor="middle" x="206.85" y="-60.11" font-family="Courier,monospace" font-size="9.00">{0⁺,2⁺,3⁻,4⁺,5⁺}</text>
</g>
<!-- _start_4&#45;&gt;4 -->
<g id="edge3" class="edge">
<title>_start_4&#45;&gt;4</title>
<path fill="none" stroke="purple" d="M80.3,-62.31C89.54,-62.31 111.32,-62.31 134.19,-62.31"/>
<polygon fill="purple" stroke="purple" points="134.38,-65.81 144.38,-62.31 134.38,-58.81 134.38,-65.81"/>
</g>
<!-- 2 -->
<g id="node9" class="node">
<title>2</title>
<polygon fill="#cce5ff" stroke="black" points="461.14,-163.86 461.14,-178.77 418.68,-189.31 358.63,-189.31 316.17,-178.77 316.17,-163.86 358.63,-153.31 418.68,-153.31 461.14,-163.86"/>
<polygon fill="none" stroke="black" points="465.14,-160.73 465.14,-181.9 419.17,-193.31 358.14,-193.31 312.17,-181.9 312.17,-160.73 358.14,-149.31 419.17,-149.31 465.14,-160.73"/>
<text text-anchor="middle" x="388.66" y="-169.11" font-family="Courier,monospace" font-size="9.00">{0⁺,1⁻,2⁻,3⁻,4⁺,5⁺}</text>
</g>
<!-- 4&#45;&gt;2 -->
<g id="edge4" class="edge">
<title>4&#45;&gt;2</title>
<path fill="none" stroke="black" d="M248.97,-108.36C260.49,-119.31 273.59,-130.16 287.16,-138.31 296.91,-144.16 307.81,-149.11 318.74,-153.25"/>
<polygon fill="black" stroke="black" points="317.74,-156.61 328.33,-156.69 320.1,-150.02 317.74,-156.61"/>
<text text-anchor="middle" x="290.66" y="-144.31" font-family="Courier,monospace" font-size="10.00">b</text>
</g>
<!-- 3 -->
<g id="node10" class="node">
<title>3</title>
<polygon fill="#cce5ff" stroke="black" points="461.14,-98.86 461.14,-113.77 418.68,-124.31 358.63,-124.31 316.17,-113.77 316.17,-98.86 358.63,-88.31 418.68,-88.31 461.14,-98.86"/>
<polygon fill="none" stroke="black" points="465.14,-95.73 465.14,-116.9 419.17,-128.31 358.14,-128.31 312.17,-116.9 312.17,-95.73 358.14,-84.31 419.17,-84.31 465.14,-95.73"/>
<text text-anchor="middle" x="388.66" y="-104.11" font-family="Courier,monospace" font-size="9.00">{0⁺,1⁺,2⁻,3⁻,4⁺,5⁺}</text>
</g>
<!-- 4&#45;&gt;3 -->
<g id="edge5" class="edge">
<title>4&#45;&gt;3</title>
<path fill="none" stroke="darkred" d="M267.72,-76.96C283.8,-80.9 301.32,-85.18 317.88,-89.24"/>
<polygon fill="darkred" stroke="darkred" points="317.5,-92.75 328.05,-91.72 319.16,-85.95 317.5,-92.75"/>
<text text-anchor="middle" x="290.66" y="-86.31" font-family="Courier,monospace" font-size="10.00" fill="darkred">a</text>
</g>
<!-- 1 -->
<g id="node8" class="node">
<title>1</title>
<polygon fill="#cce5ff" stroke="black" points="657.12,-445.86 657.12,-460.77 614.66,-471.31 554.61,-471.31 512.16,-460.77 512.16,-445.86 554.61,-435.31 614.66,-435.31 657.12,-445.86"/>
<polygon fill="none" stroke="black" points="661.12,-442.73 661.12,-463.9 615.15,-475.31 554.12,-475.31 508.16,-463.9 508.16,-442.73 554.12,-431.31 615.15,-431.31 661.12,-442.73"/>
<text text-anchor="middle" x="584.64" y="-451.11" font-family="Courier,monospace" font-size="9.00">{0⁺,1⁻,2⁻,3⁻,4⁻,5⁺}</text>
</g>
<!-- 5 -->
<g id="node11" class="node">
<title>5</title>
<ellipse fill="none" stroke="black" cx="388.66" cy="-507.31" rx="49.15" ry="49.15"/>
<text text-anchor="middle" x="388.66" y="-505.11" font-family="Courier,monospace" font-size="9.00">{1⁻,2⁻,3⁻,4⁺}</text>
</g>
<!-- 5&#45;&gt;1 -->
<g id="edge6" class="edge">
<title>5&#45;&gt;1</title>
<path fill="none" stroke="black" d="M436.12,-494.38C460.68,-487.54 491.23,-479.04 518.15,-471.54"/>
<polygon fill="black" stroke="black" points="519.19,-474.89 527.89,-468.83 517.31,-468.14 519.19,-474.89"/>
<text text-anchor="middle" x="486.65" y="-483.31" font-family="Courier,monospace" font-size="10.00">b</text>
</g>
<!-- 6&#45;&gt;0 -->
<g id="edge7" class="edge">
<title>6&#45;&gt;0</title>
<path fill="none" stroke="black" d="M241.82,-390.31C262.06,-378.59 288.36,-363.7 312.16,-351.31 320.2,-347.13 328.81,-342.84 337.23,-338.76"/>
<polygon fill="black" stroke="black" points="338.77,-341.9 346.26,-334.41 335.73,-335.6 338.77,-341.9"/>
<text text-anchor="middle" x="290.66" y="-367.31" font-family="Courier,monospace" font-size="10.00">c</text>
</g>
<!-- 6&#45;&gt;5 -->
<g id="edge8" class="edge">
<title>6&#45;&gt;5</title>
<path fill="none" stroke="darkred" d="M242.52,-429.01C269.06,-443.33 306.09,-463.31 336.1,-479.5"/>
<polygon fill="darkred" stroke="darkred" points="334.71,-482.73 345.17,-484.39 338.03,-476.57 334.71,-482.73"/>
<text text-anchor="middle" x="290.66" y="-459.31" font-family="Courier,monospace" font-size="10.00" fill="darkred">b</text>
</g>
<!-- 9 -->
<g id="node14" class="node">
<title>9</title>
<ellipse fill="none" stroke="black" cx="388.66" cy="-400.31" rx="39.67" ry="39.67"/>
<text text-anchor="middle" x="388.66" y="-398.11" font-family="Courier,monospace" font-size="9.00">{2⁻,3⁻,4⁺}</text>
</g>
<!-- 6&#45;&gt;9 -->
<g id="edge9" class="edge">
<title>6&#45;&gt;9</title>
<path fill="none" stroke="darkgreen" d="M246.56,-407.11C259.47,-406.11 273.93,-405.08 287.16,-404.31 303.75,-403.36 321.89,-402.56 338.14,-401.93"/>
<polygon fill="darkgreen" stroke="darkgreen" points="338.64,-405.42 348.51,-401.55 338.38,-398.42 338.64,-405.42"/>
<text text-anchor="middle" x="290.66" y="-407.31" font-family="Courier,monospace" font-size="10.00" fill="darkgreen">a</text>
</g>
<!-- 7&#45;&gt;0 -->
<g id="edge10" class="edge">
<title>7&#45;&gt;0</title>
<path fill="none" stroke="black" d="M256.51,-232.16C284.35,-249.82 318.94,-271.74 345.6,-288.65"/>
<polygon fill="black" stroke="black" points="344,-291.78 354.32,-294.18 347.75,-285.86 344,-291.78"/>
<text text-anchor="middle" x="290.66" y="-258.31" font-family="Courier,monospace" font-size="10.00">c</text>
</g>
<!-- 7&#45;&gt;2 -->
<g id="edge11" class="edge">
<title>7&#45;&gt;2</title>
<path fill="none" stroke="darkred" d="M264.74,-191.82C278.07,-189.6 292.53,-187.18 306.68,-184.82"/>
<polygon fill="darkred" stroke="darkred" points="307.63,-188.21 316.92,-183.12 306.48,-181.31 307.63,-188.21"/>
<text text-anchor="middle" x="290.66" y="-190.31" font-family="Courier,monospace" font-size="10.00" fill="darkred">b</text>
</g>
<!-- 7&#45;&gt;3 -->
<g id="edge12" class="edge">
<title>7&#45;&gt;3</title>
<path fill="none" stroke="darkgreen" d="M246.08,-157.78C258.17,-146.32 272.29,-135.03 287.16,-127.31 292.28,-124.66 297.71,-122.34 303.29,-120.31"/>
<polygon fill="darkgreen" stroke="darkgreen" points="304.4,-123.63 312.8,-117.17 302.21,-116.99 304.4,-123.63"/>
<text text-anchor="middle" x="290.66" y="-130.31" font-family="Courier,monospace" font-size="10.00" fill="darkgreen">a</text>
</g>
<!-- 9&#45;&gt;1 -->
<g id="edge14" class="edge">
<title>9&#45;&gt;1</title>
<path fill="none" stroke="black" d="M427.52,-410.66C452.98,-417.61 487.22,-426.97 517.15,-435.15"/>
<polygon fill="black" stroke="black" points="516.55,-438.61 527.12,-437.87 518.4,-431.86 516.55,-438.61"/>
<text text-anchor="middle" x="486.65" y="-430.31" font-family="Courier,monospace" font-size="10.00">b</text>
</g>
<!-- 10&#45;&gt;5 -->
<g id="edge15" class="edge">
<title>10&#45;&gt;5</title>
<path fill="none" stroke="black" d="M237.54,-499.8C262.46,-501.05 298.79,-502.86 329.46,-504.4"/>
<polygon fill="black" stroke="black" points="329.46,-507.9 339.63,-504.91 329.81,-500.91 329.46,-507.9"/>
<text text-anchor="middle" x="290.66" y="-506.31" font-family="Courier,monospace" font-size="10.00">b</text>
</g>
<!-- 10&#45;&gt;9 -->
<g id="edge16" class="edge">
<title>10&#45;&gt;9</title>
<path fill="none" stroke="darkred" d="M233.76,-483.57C245.03,-476.72 258.14,-468.15 269.16,-459.31 277.99,-452.23 277.74,-447.57 287.16,-441.31 303.45,-430.49 323.05,-421.71 340.6,-415.08"/>
<polygon fill="darkred" stroke="darkred" points="341.9,-418.33 350.1,-411.63 339.51,-411.76 341.9,-418.33"/>
<text text-anchor="middle" x="290.66" y="-444.31" font-family="Courier,monospace" font-size="10.00" fill="darkred">a</text>
</g>
</g>
</svg>
