<?xml version="1.0" encoding="UTF-8" standalone="no"?>
<!DOCTYPE svg PUBLIC "-//W3C//DTD SVG 1.1//EN"
 "http://www.w3.org/Graphics/SVG/1.1/DTD/svg11.dtd">
<!-- Generated by graphviz version 2.43.0 (0)
 -->
<!-- Title: TemplateAutomaton Pages: 1 -->
<svg width="302pt" height="372pt"
 viewBox="0.00 0.00 302.04 371.50" xmlns="http://www.w3.org/2000/svg" xmlns:xlink="http://www.w3.org/1999/xlink">
<g id="graph0" class="graph" transform="scale(1 1) rotate(0) translate(4 367.5)">
<title>TemplateAutomaton</title>
<polygon fill="white" stroke="transparent" points="-4,4 -4,-367.5 298.04,-367.5 298.04,4 -4,4"/>
<!-- _rank_0&#45;&gt;_rank_1 -->
<!-- _label_1&#45;&gt;1 -->
<g id="edge2" class="edge">
<title>_label_1&#45;&gt;1</title>
<path fill="none" stroke="black" stroke-width="1.1" d="M159.3,-224C175.93,-224 199.15,-224 218.65,-224"/>
<polygon fill="black" stroke="black" stroke-width="1.1" points="218.75,-226.8 226.75,-224 218.75,-221.2 218.75,-226.8"/>
</g>
<!-- 1&#45;&gt;2 -->
<g id="edge5" class="edge">
<title>1&#45;&gt;2</title>
<path fill="none" stroke="black" d="M256.8,-193.52C256.8,-173.08 256.8,-145.78 256.8,-122.75"/>
<polygon fill="black" stroke="black" points="259.6,-122.47 256.8,-114.47 254,-122.47 259.6,-122.47"/>
<text text-anchor="middle" x="244.8" y="-150.31" font-family="Times,serif" font-style="italic" font-size="16.00">a,b</text>
</g>
<!-- _label_0&#45;&gt;0 -->
<g id="edge3" class="edge">
<title>_label_0&#45;&gt;0</title>
<path fill="none" stroke="black" stroke-width="1.1" d="M53.04,-328C66.91,-328 84.28,-328 99.47,-328"/>
<polygon fill="black" stroke="black" stroke-width="1.1" points="99.66,-330.8 107.66,-328 99.66,-325.2 99.66,-330.8"/>
</g>
<!-- _label_2&#45;&gt;2 -->
<g id="edge4" class="edge">
<title>_label_2&#45;&gt;2</title>
<path fill="none" stroke="black" stroke-width="1.1" d="M163.88,-77C177.83,-77 195.29,-77 211.23,-77"/>
<polygon fill="black" stroke="black" stroke-width="1.1" points="211.41,-79.8 219.41,-77 211.41,-74.2 211.41,-79.8"/>
</g>
<!-- _rank_0 -->
<!-- _rank_1 -->
<!-- _label_1 -->
<g id="node3" class="node">
<title>_label_1</title>
<polygon fill="none" stroke="black" points="116.28,-226 116.28,-256 156.28,-256 156.28,-226 116.28,-226"/>
<text text-anchor="start" x="121.28" y="-236.6" font-family="Times,serif" font-size="18.00">SFF</text>
<polygon fill="none" stroke="black" points="114.28,-224 114.28,-258 158.28,-258 158.28,-224 114.28,-224"/>
<polygon fill="none" stroke="black" points="116.28,-191 116.28,-221 156.28,-221 156.28,-191 116.28,-191"/>
<text text-anchor="start" x="121.28" y="-201.6" font-family="Times,serif" font-size="18.00">SFP</text>
<polygon fill="none" stroke="black" stroke-dasharray="5,2" points="114.28,-189 114.28,-223 158.28,-223 158.28,-189 114.28,-189"/>
</g>
<!-- 1 -->
<g id="node4" class="node">
<title>1</title>
<ellipse fill="none" stroke="black" cx="256.8" cy="-224" rx="30.04" ry="30.04"/>
<text text-anchor="middle" x="256.8" y="-219.6" font-family="Times,serif" font-size="18.00">u[1]</text>
</g>
<!-- _label_0 -->
<g id="node5" class="node">
<title>_label_0</title>
<polygon fill="none" stroke="black" points="3.5,-330 3.5,-360 50.5,-360 50.5,-330 3.5,-330"/>
<text text-anchor="start" x="12" y="-340.6" font-family="Times,serif" font-size="18.00">SFS</text>
<polygon fill="none" stroke="black" points="1.5,-328 1.5,-362 52.5,-362 52.5,-328 1.5,-328"/>
<polygon fill="none" stroke="black" points="3.5,-295 3.5,-325 50.5,-325 50.5,-295 3.5,-295"/>
<text text-anchor="start" x="8.5" y="-305.6" font-family="Times,serif" font-size="18.00">SFW</text>
<polygon fill="none" stroke="black" stroke-dasharray="5,2" points="1.5,-293 1.5,-327 52.5,-327 52.5,-293 1.5,-293"/>
</g>
<!-- 0 -->
<g id="node6" class="node">
<title>0</title>
<ellipse fill="none" stroke="black" cx="136.28" cy="-328" rx="28.07" ry="28.07"/>
<text text-anchor="start" x="131.28" y="-329.6" font-family="Times,serif" font-size="18.00">u</text>
<text text-anchor="start" x="131.28" y="-315.2" font-family="Times,serif" font-size="11.00" fill="#8c8c8c">1&#45;</text>
</g>
<!-- _label_2 -->
<g id="node7" class="node">
<title>_label_2</title>
<polygon fill="none" stroke="black" points="112.28,-79 112.28,-109 161.28,-109 161.28,-79 112.28,-79"/>
<text text-anchor="start" x="120.28" y="-89.6" font-family="Times,serif" font-size="18.00">SAS</text>
<polygon fill="none" stroke="black" points="110.28,-77 110.28,-111 163.28,-111 163.28,-77 110.28,-77"/>
<polygon fill="none" stroke="black" points="112.28,-44 112.28,-74 161.28,-74 161.28,-44 112.28,-44"/>
<text text-anchor="start" x="117.28" y="-54.6" font-family="Times,serif" font-size="18.00">SAW</text>
<polygon fill="none" stroke="black" stroke-dasharray="5,2" points="110.28,-42 110.28,-76 163.28,-76 163.28,-42 110.28,-42"/>
</g>
<!-- 2 -->
<g id="node8" class="node">
<title>2</title>
<ellipse fill="none" stroke="black" stroke-width="1.2" cx="256.8" cy="-77" rx="33.44" ry="33.44"/>
<ellipse fill="none" stroke="black" stroke-width="1.2" cx="256.8" cy="-77" rx="37.47" ry="37.47"/>
<text text-anchor="start" x="241.8" y="-78.6" font-family="Times,serif" font-size="18.00">u[0]</text>
<text text-anchor="start" x="252.3" y="-64.2" font-family="Times,serif" font-size="11.00" fill="#8c8c8c">1&#45;</text>
</g>
</g>
</svg>
