<?xml version="1.0" encoding="UTF-8" standalone="no"?>
<!DOCTYPE svg PUBLIC "-//W3C//DTD SVG 1.1//EN"
 "http://www.w3.org/Graphics/SVG/1.1/DTD/svg11.dtd">
<!-- Generated by graphviz version 2.43.0 (0)
 -->
<!-- Title: EAD_DFA Pages: 1 -->
<svg width="191pt" height="81pt"
 viewBox="0.00 0.00 190.80 81.00" xmlns="http://www.w3.org/2000/svg" xmlns:xlink="http://www.w3.org/1999/xlink">
<g id="graph0" class="graph" transform="scale(1 1) rotate(0) translate(4 77)">
<title>EAD_DFA</title>
<polygon fill="white" stroke="transparent" points="-4,4 -4,-77 186.8,-77 186.8,4 -4,4"/>
<!-- _start -->
<g id="node1" class="node">
<title>_start</title>
<ellipse fill="black" stroke="black" cx="5.4" cy="-22" rx="5.4" ry="5.4"/>
</g>
<!-- 0 -->
<g id="node2" class="node">
<title>0</title>
<ellipse fill="none" stroke="black" cx="69.8" cy="-22" rx="18" ry="18"/>
<ellipse fill="none" stroke="black" cx="69.8" cy="-22" rx="22" ry="22"/>
<text text-anchor="middle" x="69.8" y="-19.5" font-family="Courier,monospace" font-size="10.00">0</text>
</g>
<!-- _start&#45;&gt;0 -->
<g id="edge1" class="edge">
<title>_start&#45;&gt;0</title>
<path fill="none" stroke="black" d="M10.89,-22C16.59,-22 26.94,-22 37.33,-22"/>
<polygon fill="black" stroke="black" points="37.57,-25.5 47.57,-22 37.57,-18.5 37.57,-25.5"/>
</g>
<!-- 0&#45;&gt;0 -->
<g id="edge2" class="edge">
<title>0&#45;&gt;0</title>
<path fill="none" stroke="black" d="M62.48,-42.99C61.58,-53.09 64.02,-62 69.8,-62 73.5,-62 75.84,-58.34 76.8,-53.06"/>
<polygon fill="black" stroke="black" points="80.3,-53.1 77.12,-42.99 73.3,-52.87 80.3,-53.1"/>
<text text-anchor="middle" x="69.8" y="-65" font-family="Courier,monospace" font-size="10.00">c</text>
</g>
<!-- 1 -->
<g id="node3" class="node">
<title>1</title>
<ellipse fill="#e0c4c4" stroke="black" cx="164.8" cy="-22" rx="18" ry="18"/>
<text text-anchor="middle" x="164.8" y="-19.5" font-family="Courier,monospace" font-size="10.00">1</text>
</g>
<!-- 0&#45;&gt;1 -->
<g id="edge3" class="edge">
<title>0&#45;&gt;1</title>
<path fill="none" stroke="darkred" d="M91.9,-22C105.06,-22 122.12,-22 136.32,-22"/>
<polygon fill="darkred" stroke="darkred" points="136.52,-25.5 146.52,-22 136.52,-18.5 136.52,-25.5"/>
<text text-anchor="middle" x="119.3" y="-25" font-family="Courier,monospace" font-size="10.00" fill="darkred">a,b</text>
</g>
<!-- 1&#45;&gt;1 -->
<g id="edge4" class="edge">
<title>1&#45;&gt;1</title>
<path fill="none" stroke="black" d="M157.13,-38.29C155.28,-48.39 157.84,-58 164.8,-58 169.26,-58 171.91,-54.06 172.75,-48.57"/>
<polygon fill="black" stroke="black" points="176.25,-48.19 172.47,-38.29 169.25,-48.38 176.25,-48.19"/>
<text text-anchor="middle" x="164.8" y="-61" font-family="Courier,monospace" font-size="10.00">a,b,c</text>
</g>
</g>
</svg>
