<?xml version="1.0" encoding="UTF-8" standalone="no"?>
<!DOCTYPE svg PUBLIC "-//W3C//DTD SVG 1.1//EN"
 "http://www.w3.org/Graphics/SVG/1.1/DTD/svg11.dtd">
<!-- Generated by graphviz version 2.43.0 (0)
 -->
<!-- Title: TemplateAutomaton Pages: 1 -->
<svg width="835pt" height="1352pt"
 viewBox="0.00 0.00 835.36 1352.33" xmlns="http://www.w3.org/2000/svg" xmlns:xlink="http://www.w3.org/1999/xlink">
<g id="graph0" class="graph" transform="scale(1 1) rotate(0) translate(4 1348.33)">
<title>TemplateAutomaton</title>
<polygon fill="white" stroke="transparent" points="-4,4 -4,-1348.33 831.36,-1348.33 831.36,4 -4,4"/>
<!-- _rank_1&#45;&gt;_rank_3 -->
<!-- _rank_3&#45;&gt;_rank_4 -->
<!-- _rank_4&#45;&gt;_rank_7 -->
<!-- _label_0&#45;&gt;0 -->
<g id="edge4" class="edge">
<title>_label_0&#45;&gt;0</title>
<path fill="none" stroke="black" stroke-width="1.1" d="M46.06,-510C64.87,-510 92.32,-510 114.61,-510"/>
<polygon fill="black" stroke="black" stroke-width="1.1" points="114.87,-512.8 122.87,-510 114.87,-507.2 114.87,-512.8"/>
</g>
<!-- 0&#45;&gt;6 -->
<g id="edge7" class="edge">
<title>0&#45;&gt;6</title>
<path fill="none" stroke="black" d="M179.53,-494.9C197.17,-484.14 221.15,-469.14 241.65,-455 253.1,-447.1 265.19,-438.28 276.47,-429.83"/>
<polygon fill="black" stroke="black" points="278.31,-431.96 283.01,-424.91 274.94,-427.48 278.31,-431.96"/>
<text text-anchor="middle" x="237.15" y="-465.2" font-family="Times,serif" font-style="italic" font-size="16.00">b</text>
</g>
<!-- 0&#45;&gt;7 -->
<g id="edge8" class="edge">
<title>0&#45;&gt;7</title>
<path fill="none" stroke="black" d="M176.91,-490.97C186.51,-482.17 197.37,-471.2 205.65,-460 226.45,-431.87 227.26,-421.89 241.65,-390 255.2,-359.99 252.55,-349.73 268.65,-321 273.67,-312.05 279.67,-302.97 285.85,-294.39"/>
<polygon fill="black" stroke="black" points="288.11,-296.05 290.59,-287.95 283.59,-292.73 288.11,-296.05"/>
<text text-anchor="middle" x="237.15" y="-415.2" font-family="Times,serif" font-style="italic" font-size="16.00">c</text>
</g>
<!-- _label_11&#45;&gt;11 -->
<g id="edge5" class="edge">
<title>_label_11&#45;&gt;11</title>
<path fill="none" stroke="black" stroke-width="1.1" d="M351.79,-686.28C376.31,-697.95 414.16,-715.96 446.55,-731.37"/>
<polygon fill="black" stroke="black" stroke-width="1.1" points="445.37,-733.91 453.8,-734.82 447.78,-728.85 445.37,-733.91"/>
</g>
<!-- 11&#45;&gt;3 -->
<g id="edge19" class="edge">
<title>11&#45;&gt;3</title>
<path fill="none" stroke="black" d="M448.43,-756.23C379.9,-750.82 269.32,-742.08 205.07,-737.01"/>
<polygon fill="black" stroke="black" points="205.28,-734.22 197.09,-736.38 204.84,-739.8 205.28,-734.22"/>
<text text-anchor="middle" x="324.98" y="-756.2" font-family="Times,serif" font-style="italic" font-size="16.00">c</text>
</g>
<!-- 11&#45;&gt;12 -->
<g id="edge20" class="edge">
<title>11&#45;&gt;12</title>
<path fill="none" stroke="black" d="M509.82,-699.27C509.82,-676.85 509.82,-651.3 509.82,-627.94"/>
<polygon fill="black" stroke="black" points="512.62,-627.78 509.82,-619.78 507.02,-627.78 512.62,-627.78"/>
<text text-anchor="middle" x="497.82" y="-655.7" font-family="Times,serif" font-style="italic" font-size="16.00">b</text>
</g>
<!-- 11&#45;&gt;14 -->
<g id="edge21" class="edge">
<title>11&#45;&gt;14</title>
<path fill="none" stroke="black" d="M540.85,-707.73C552.18,-686.87 564.86,-662.56 575.34,-640 621.32,-541.01 666.78,-424.51 696.75,-344.39"/>
<polygon fill="black" stroke="black" points="699.43,-345.22 699.61,-336.75 694.19,-343.27 699.43,-345.22"/>
<text text-anchor="middle" x="606.84" y="-582.2" font-family="Times,serif" font-style="italic" font-size="16.00">a</text>
</g>
<!-- _label_5&#45;&gt;5 -->
<g id="edge6" class="edge">
<title>_label_5&#45;&gt;5</title>
<path fill="none" stroke="black" stroke-width="1.1" d="M180.83,-1288C202.12,-1288 232.91,-1288 260.49,-1288"/>
<polygon fill="black" stroke="black" stroke-width="1.1" points="260.54,-1290.8 268.54,-1288 260.54,-1285.2 260.54,-1290.8"/>
</g>
<!-- 5&#45;&gt;8 -->
<g id="edge13" class="edge">
<title>5&#45;&gt;8</title>
<path fill="none" stroke="black" d="M324.98,-1231.5C324.98,-1209.25 324.98,-1183.56 324.98,-1160.58"/>
<polygon fill="black" stroke="black" points="327.78,-1160.57 324.98,-1152.57 322.18,-1160.57 327.78,-1160.57"/>
<text text-anchor="middle" x="312.98" y="-1188.2" font-family="Times,serif" font-style="italic" font-size="16.00">c</text>
</g>
<!-- 1&#45;&gt;14 -->
<g id="edge9" class="edge">
<title>1&#45;&gt;14</title>
<path fill="none" stroke="black" d="M195.86,-95.79C286.81,-121.62 505.65,-183.77 633.81,-220.16"/>
<polygon fill="black" stroke="black" points="633.28,-222.92 641.74,-222.41 634.81,-217.53 633.28,-222.92"/>
<text text-anchor="middle" x="412.8" y="-164.2" font-family="Times,serif" font-style="italic" font-size="16.00">a</text>
</g>
<!-- 2&#45;&gt;4 -->
<g id="edge10" class="edge">
<title>2&#45;&gt;4</title>
<path fill="none" stroke="black" d="M153.33,-351.89C153.33,-330.29 153.33,-303.94 153.33,-280.49"/>
<polygon fill="black" stroke="black" points="156.13,-280.33 153.33,-272.33 150.53,-280.33 156.13,-280.33"/>
<text text-anchor="middle" x="141.33" y="-308.44" font-family="Times,serif" font-style="italic" font-size="16.00">c</text>
</g>
<!-- 3&#45;&gt;10 -->
<g id="edge11" class="edge">
<title>3&#45;&gt;10</title>
<path fill="none" stroke="black" d="M183.11,-700.6C209.98,-670.34 250.45,-624.78 281.12,-590.25"/>
<polygon fill="black" stroke="black" points="283.51,-591.77 286.73,-583.93 279.32,-588.06 283.51,-591.77"/>
<text text-anchor="middle" x="237.15" y="-649.2" font-family="Times,serif" font-style="italic" font-size="16.00">b</text>
</g>
<!-- 4&#45;&gt;10 -->
<g id="edge12" class="edge">
<title>4&#45;&gt;10</title>
<path fill="none" stroke="black" d="M184.75,-262.02C203.37,-289.38 226.47,-326.47 241.65,-362 260.25,-405.52 248.51,-422.18 268.65,-465 272.91,-474.05 278.26,-483.14 283.95,-491.74"/>
<polygon fill="black" stroke="black" points="281.75,-493.49 288.57,-498.53 286.38,-490.34 281.75,-493.49"/>
<text text-anchor="middle" x="237.15" y="-367.2" font-family="Times,serif" font-style="italic" font-size="16.00">b</text>
</g>
<!-- 6&#45;&gt;13 -->
<g id="edge14" class="edge">
<title>6&#45;&gt;13</title>
<path fill="none" stroke="black" d="M377.4,-390.19C395.59,-389.19 416.42,-388.05 436.05,-386.98"/>
<polygon fill="black" stroke="black" points="436.25,-389.77 444.09,-386.54 435.95,-384.18 436.25,-389.77"/>
<text text-anchor="middle" x="412.8" y="-394.2" font-family="Times,serif" font-style="italic" font-size="16.00">c</text>
</g>
<!-- 7&#45;&gt;1 -->
<g id="edge15" class="edge">
<title>7&#45;&gt;1</title>
<path fill="none" stroke="black" d="M286.85,-212.11C258.5,-184.71 219.63,-147.13 191.32,-119.76"/>
<polygon fill="black" stroke="black" points="193.14,-117.63 185.44,-114.08 189.25,-121.65 193.14,-117.63"/>
<text text-anchor="middle" x="237.15" y="-171.2" font-family="Times,serif" font-style="italic" font-size="16.00">b</text>
</g>
<!-- 7&#45;&gt;2 -->
<g id="edge16" class="edge">
<title>7&#45;&gt;2</title>
<path fill="none" stroke="black" d="M277.22,-270.29C262.21,-278.55 246.03,-288.69 232.65,-300 214.37,-315.46 197.17,-335.63 183.58,-353.49"/>
<polygon fill="black" stroke="black" points="181.29,-351.87 178.74,-359.95 185.78,-355.23 181.29,-351.87"/>
<text text-anchor="middle" x="237.15" y="-305.2" font-family="Times,serif" font-style="italic" font-size="16.00">c</text>
</g>
<!-- 7&#45;&gt;14 -->
<g id="edge17" class="edge">
<title>7&#45;&gt;14</title>
<path fill="none" stroke="black" d="M377.38,-248C440.59,-248 549.37,-248 629.79,-248"/>
<polygon fill="black" stroke="black" points="629.98,-250.8 637.98,-248 629.98,-245.2 629.98,-250.8"/>
<text text-anchor="middle" x="509.82" y="-253.2" font-family="Times,serif" font-style="italic" font-size="16.00">a</text>
</g>
<!-- 8&#45;&gt;9 -->
<g id="edge18" class="edge">
<title>8&#45;&gt;9</title>
<path fill="none" stroke="black" d="M324.98,-1039.5C324.98,-1017.25 324.98,-991.56 324.98,-968.58"/>
<polygon fill="black" stroke="black" points="327.78,-968.57 324.98,-960.57 322.18,-968.57 327.78,-968.57"/>
<text text-anchor="middle" x="312.98" y="-996.2" font-family="Times,serif" font-style="italic" font-size="16.00">c</text>
</g>
<!-- _rank_1 -->
<!-- _rank_3 -->
<!-- _rank_4 -->
<!-- _rank_7 -->
<!-- _label_0 -->
<g id="node5" class="node">
<title>_label_0</title>
<polygon fill="none" stroke="black" points="3,-512 3,-542 43,-542 43,-512 3,-512"/>
<text text-anchor="start" x="8" y="-522.6" font-family="Times,serif" font-size="18.00">SFF</text>
<polygon fill="none" stroke="black" points="1,-510 1,-544 45,-544 45,-510 1,-510"/>
<polygon fill="none" stroke="black" points="3,-477 3,-507 43,-507 43,-477 3,-477"/>
<text text-anchor="start" x="8" y="-487.6" font-family="Times,serif" font-size="18.00">SFP</text>
<polygon fill="none" stroke="black" stroke-dasharray="5,2" points="1,-475 1,-509 45,-509 45,-475 1,-475"/>
</g>
<!-- 0 -->
<g id="node6" class="node">
<title>0</title>
<ellipse fill="none" stroke="black" cx="153.33" cy="-510" rx="30.04" ry="30.04"/>
<text text-anchor="middle" x="153.33" y="-505.6" font-family="Times,serif" font-size="18.00">u[7]</text>
</g>
<!-- _label_11 -->
<g id="node7" class="node">
<title>_label_11</title>
<polygon fill="none" stroke="black" points="301.98,-676 301.98,-706 348.98,-706 348.98,-676 301.98,-676"/>
<text text-anchor="start" x="310.48" y="-686.6" font-family="Times,serif" font-size="18.00">SFS</text>
<polygon fill="none" stroke="black" points="299.98,-674 299.98,-708 350.98,-708 350.98,-674 299.98,-674"/>
<polygon fill="none" stroke="black" points="301.98,-641 301.98,-671 348.98,-671 348.98,-641 301.98,-641"/>
<text text-anchor="start" x="306.98" y="-651.6" font-family="Times,serif" font-size="18.00">SFW</text>
<polygon fill="none" stroke="black" stroke-dasharray="5,2" points="299.98,-639 299.98,-673 350.98,-673 350.98,-639 299.98,-639"/>
</g>
<!-- 11 -->
<g id="node8" class="node">
<title>11</title>
<ellipse fill="none" stroke="black" cx="509.82" cy="-761" rx="61.54" ry="61.54"/>
<text text-anchor="start" x="474.82" y="-762.6" font-family="Times,serif" font-size="18.00">u[1,3,4,6]</text>
<text text-anchor="start" x="505.32" y="-748.2" font-family="Times,serif" font-size="11.00" fill="#8c8c8c">7&#45;</text>
</g>
<!-- _label_5 -->
<g id="node9" class="node">
<title>_label_5</title>
<polygon fill="none" stroke="black" points="129.33,-1290 129.33,-1320 178.33,-1320 178.33,-1290 129.33,-1290"/>
<text text-anchor="start" x="137.33" y="-1300.6" font-family="Times,serif" font-size="18.00">SAS</text>
<polygon fill="none" stroke="black" points="127.33,-1288 127.33,-1322 180.33,-1322 180.33,-1288 127.33,-1288"/>
<polygon fill="none" stroke="black" points="129.33,-1255 129.33,-1285 178.33,-1285 178.33,-1255 129.33,-1255"/>
<text text-anchor="start" x="134.33" y="-1265.6" font-family="Times,serif" font-size="18.00">SAW</text>
<polygon fill="none" stroke="black" stroke-dasharray="5,2" points="127.33,-1253 127.33,-1287 180.33,-1287 180.33,-1253 127.33,-1253"/>
</g>
<!-- 5 -->
<g id="node10" class="node">
<title>5</title>
<ellipse fill="none" stroke="black" stroke-width="1.2" stroke-dasharray="5,2" cx="324.98" cy="-1288" rx="52.16" ry="52.16"/>
<ellipse fill="none" stroke="black" stroke-width="1.2" stroke-dasharray="5,2" cx="324.98" cy="-1288" rx="56.15" ry="56.15"/>
<text text-anchor="start" x="295.98" y="-1289.6" font-family="Times,serif" font-size="18.00">u[0,2,5]</text>
<text text-anchor="start" x="319.98" y="-1275.2" font-family="Times,serif" font-size="11.00" fill="#8c8c8c">7&#45;</text>
</g>
<!-- 1 -->
<g id="node11" class="node">
<title>1</title>
<ellipse fill="none" stroke="black" cx="153.33" cy="-84" rx="43.68" ry="43.68"/>
<text text-anchor="start" x="137.83" y="-85.6" font-family="Times,serif" font-size="18.00">u[6]</text>
<text text-anchor="start" x="130.33" y="-71.2" font-family="Times,serif" font-size="11.00" fill="#8c8c8c">1&#45;,2&#45;,5&#45;,7&#45;</text>
</g>
<!-- 2 -->
<g id="node12" class="node">
<title>2</title>
<ellipse fill="none" stroke="black" cx="153.33" cy="-396" rx="43.68" ry="43.68"/>
<text text-anchor="start" x="137.83" y="-397.6" font-family="Times,serif" font-size="18.00">u[1]</text>
<text text-anchor="start" x="130.33" y="-383.2" font-family="Times,serif" font-size="11.00" fill="#8c8c8c">2&#45;,4&#45;,6&#45;,7&#45;</text>
</g>
<!-- 3 -->
<g id="node13" class="node">
<title>3</title>
<ellipse fill="none" stroke="black" cx="153.33" cy="-733" rx="43.68" ry="43.68"/>
<text text-anchor="start" x="137.83" y="-734.6" font-family="Times,serif" font-size="18.00">u[3]</text>
<text text-anchor="start" x="130.33" y="-720.2" font-family="Times,serif" font-size="11.00" fill="#8c8c8c">2&#45;,4&#45;,6&#45;,7&#45;</text>
</g>
<!-- 4 -->
<g id="node14" class="node">
<title>4</title>
<ellipse fill="none" stroke="black" cx="153.33" cy="-220" rx="52.15" ry="52.15"/>
<text text-anchor="start" x="137.83" y="-221.6" font-family="Times,serif" font-size="18.00">u[3]</text>
<text text-anchor="start" x="124.33" y="-207.2" font-family="Times,serif" font-size="11.00" fill="#8c8c8c">1&#45;,2&#45;,4&#45;,6&#45;,7&#45;</text>
</g>
<!-- 6 -->
<g id="node15" class="node">
<title>6</title>
<ellipse fill="none" stroke="black" cx="324.98" cy="-393" rx="52.15" ry="52.15"/>
<text text-anchor="start" x="295.98" y="-394.6" font-family="Times,serif" font-size="18.00">u[1,2,5]</text>
<text text-anchor="start" x="319.98" y="-380.2" font-family="Times,serif" font-size="11.00" fill="#8c8c8c">7&#45;</text>
</g>
<!-- 7 -->
<g id="node16" class="node">
<title>7</title>
<ellipse fill="none" stroke="black" cx="324.98" cy="-248" rx="52.15" ry="52.15"/>
<text text-anchor="start" x="295.98" y="-249.6" font-family="Times,serif" font-size="18.00">u[2,4,6]</text>
<text text-anchor="start" x="319.98" y="-235.2" font-family="Times,serif" font-size="11.00" fill="#8c8c8c">7&#45;</text>
</g>
<!-- 8 -->
<g id="node17" class="node">
<title>8</title>
<ellipse fill="none" stroke="black" stroke-width="1.2" stroke-dasharray="5,2" cx="324.98" cy="-1096" rx="52.16" ry="52.16"/>
<ellipse fill="none" stroke="black" stroke-width="1.2" stroke-dasharray="5,2" cx="324.98" cy="-1096" rx="56.15" ry="56.15"/>
<text text-anchor="start" x="295.98" y="-1097.6" font-family="Times,serif" font-size="18.00">u[0,1,5]</text>
<text text-anchor="start" x="301.98" y="-1083.2" font-family="Times,serif" font-size="11.00" fill="#8c8c8c">2&#45;,4&#45;,6&#45;,7&#45;</text>
</g>
<!-- 9 -->
<g id="node18" class="node">
<title>9</title>
<ellipse fill="none" stroke="black" stroke-width="1.2" cx="324.98" cy="-904" rx="52.16" ry="52.16"/>
<ellipse fill="none" stroke="black" stroke-width="1.2" cx="324.98" cy="-904" rx="56.15" ry="56.15"/>
<text text-anchor="start" x="295.98" y="-905.6" font-family="Times,serif" font-size="18.00">u[0,3,5]</text>
<text text-anchor="start" x="295.98" y="-891.2" font-family="Times,serif" font-size="11.00" fill="#8c8c8c">1&#45;,2&#45;,4&#45;,6&#45;,7&#45;</text>
</g>
<!-- 10 -->
<g id="node19" class="node">
<title>10</title>
<ellipse fill="none" stroke="black" stroke-width="1.2" cx="324.98" cy="-542" rx="52.16" ry="52.16"/>
<ellipse fill="none" stroke="black" stroke-width="1.2" cx="324.98" cy="-542" rx="56.15" ry="56.15"/>
<text text-anchor="start" x="295.98" y="-543.6" font-family="Times,serif" font-size="18.00">u[0,3,4]</text>
<text text-anchor="start" x="295.98" y="-529.2" font-family="Times,serif" font-size="11.00" fill="#8c8c8c">1&#45;,2&#45;,5&#45;,6&#45;,7&#45;</text>
</g>
<!-- 12 -->
<g id="node20" class="node">
<title>12</title>
<ellipse fill="none" stroke="black" stroke-width="1.2" cx="509.82" cy="-554" rx="61.54" ry="61.54"/>
<ellipse fill="none" stroke="black" stroke-width="1.2" cx="509.82" cy="-554" rx="65.54" ry="65.54"/>
<text text-anchor="start" x="474.82" y="-555.6" font-family="Times,serif" font-size="18.00">u[0,3,4,6]</text>
<text text-anchor="start" x="487.32" y="-541.2" font-family="Times,serif" font-size="11.00" fill="#8c8c8c">1&#45;,2&#45;,5&#45;,7&#45;</text>
</g>
<!-- 13 -->
<g id="node21" class="node">
<title>13</title>
<ellipse fill="none" stroke="black" stroke-width="1.2" cx="509.82" cy="-383" rx="61.54" ry="61.54"/>
<ellipse fill="none" stroke="black" stroke-width="1.2" cx="509.82" cy="-383" rx="65.54" ry="65.54"/>
<text text-anchor="start" x="474.82" y="-384.6" font-family="Times,serif" font-size="18.00">u[0,1,3,5]</text>
<text text-anchor="start" x="487.32" y="-370.2" font-family="Times,serif" font-size="11.00" fill="#8c8c8c">2&#45;,4&#45;,6&#45;,7&#45;</text>
</g>
<!-- 14 -->
<g id="node22" class="node">
<title>14</title>
<ellipse fill="none" stroke="black" stroke-width="1.2" cx="732.85" cy="-248" rx="90.52" ry="90.52"/>
<ellipse fill="none" stroke="black" stroke-width="1.2" cx="732.85" cy="-248" rx="94.52" ry="94.52"/>
<text text-anchor="start" x="676.85" y="-249.6" font-family="Times,serif" font-size="18.00">u[0,1,2,3,4,5,6]</text>
<text text-anchor="start" x="727.85" y="-235.2" font-family="Times,serif" font-size="11.00" fill="#8c8c8c">7&#45;</text>
</g>
</g>
</svg>
