<?xml version="1.0" encoding="UTF-8" standalone="no"?>
<!DOCTYPE svg PUBLIC "-//W3C//DTD SVG 1.1//EN"
 "http://www.w3.org/Graphics/SVG/1.1/DTD/svg11.dtd">
<!-- Generated by graphviz version 2.43.0 (0)
 -->
<!-- Title: EAD_DFA Pages: 1 -->
<svg width="594pt" height="295pt"
 viewBox="0.00 0.00 593.80 295.00" xmlns="http://www.w3.org/2000/svg" xmlns:xlink="http://www.w3.org/1999/xlink">
<g id="graph0" class="graph" transform="scale(1 1) rotate(0) translate(4 291)">
<title>EAD_DFA</title>
<polygon fill="white" stroke="transparent" points="-4,4 -4,-291 589.8,-291 589.8,4 -4,4"/>
<!-- _start -->
<g id="node1" class="node">
<title>_start</title>
<ellipse fill="black" stroke="black" cx="5.4" cy="-101" rx="5.4" ry="5.4"/>
</g>
<!-- 0 -->
<g id="node2" class="node">
<title>0</title>
<ellipse fill="none" stroke="black" cx="69.8" cy="-101" rx="18" ry="18"/>
<ellipse fill="none" stroke="black" cx="69.8" cy="-101" rx="22" ry="22"/>
<text text-anchor="middle" x="69.8" y="-98.5" font-family="Courier,monospace" font-size="10.00">0</text>
</g>
<!-- _start&#45;&gt;0 -->
<g id="edge1" class="edge">
<title>_start&#45;&gt;0</title>
<path fill="none" stroke="black" d="M10.89,-101C16.59,-101 26.94,-101 37.33,-101"/>
<polygon fill="black" stroke="black" points="37.57,-104.5 47.57,-101 37.57,-97.5 37.57,-104.5"/>
</g>
<!-- 3 -->
<g id="node5" class="node">
<title>3</title>
<ellipse fill="none" stroke="black" cx="152.8" cy="-187" rx="18" ry="18"/>
<text text-anchor="middle" x="152.8" y="-184.5" font-family="Courier,monospace" font-size="10.00">3</text>
</g>
<!-- 0&#45;&gt;3 -->
<g id="edge2" class="edge">
<title>0&#45;&gt;3</title>
<path fill="none" stroke="black" d="M85.66,-116.77C98.96,-130.9 118.53,-151.67 132.93,-166.97"/>
<polygon fill="black" stroke="black" points="130.53,-169.52 139.93,-174.4 135.62,-164.72 130.53,-169.52"/>
<text text-anchor="middle" x="113.3" y="-152" font-family="Courier,monospace" font-size="10.00">b</text>
</g>
<!-- 5 -->
<g id="node7" class="node">
<title>5</title>
<ellipse fill="none" stroke="black" cx="314.8" cy="-22" rx="18" ry="18"/>
<ellipse fill="none" stroke="black" cx="314.8" cy="-22" rx="22" ry="22"/>
<text text-anchor="middle" x="314.8" y="-19.5" font-family="Courier,monospace" font-size="10.00">5</text>
</g>
<!-- 0&#45;&gt;5 -->
<g id="edge3" class="edge">
<title>0&#45;&gt;5</title>
<path fill="none" stroke="darkred" d="M90.59,-93.74C96.73,-91.53 103.53,-89.12 109.8,-87 171.34,-66.16 243.94,-43.48 283.81,-31.18"/>
<polygon fill="darkred" stroke="darkred" points="284.92,-34.5 293.45,-28.22 282.86,-27.81 284.92,-34.5"/>
<text text-anchor="middle" x="192.3" y="-64" font-family="Courier,monospace" font-size="10.00" fill="darkred">c</text>
</g>
<!-- 6 -->
<g id="node8" class="node">
<title>6</title>
<ellipse fill="none" stroke="black" cx="397.8" cy="-142" rx="18" ry="18"/>
<text text-anchor="middle" x="397.8" y="-139.5" font-family="Courier,monospace" font-size="10.00">6</text>
</g>
<!-- 0&#45;&gt;6 -->
<g id="edge4" class="edge">
<title>0&#45;&gt;6</title>
<path fill="none" stroke="darkgreen" d="M92.12,-101C108.45,-101 131.55,-101 151.8,-101 151.8,-101 151.8,-101 315.8,-101 337.8,-101 359.9,-113.19 375.44,-124.28"/>
<polygon fill="darkgreen" stroke="darkgreen" points="373.69,-127.35 383.78,-130.58 377.91,-121.76 373.69,-127.35"/>
<text text-anchor="middle" x="231.8" y="-104" font-family="Courier,monospace" font-size="10.00" fill="darkgreen">a</text>
</g>
<!-- 1 -->
<g id="node3" class="node">
<title>1</title>
<ellipse fill="none" stroke="black" cx="231.8" cy="-216" rx="18" ry="18"/>
<text text-anchor="middle" x="231.8" y="-213.5" font-family="Courier,monospace" font-size="10.00">1</text>
</g>
<!-- 2 -->
<g id="node4" class="node">
<title>2</title>
<ellipse fill="none" stroke="black" cx="314.8" cy="-236" rx="18" ry="18"/>
<ellipse fill="none" stroke="black" cx="314.8" cy="-236" rx="22" ry="22"/>
<text text-anchor="middle" x="314.8" y="-233.5" font-family="Courier,monospace" font-size="10.00">2</text>
</g>
<!-- 1&#45;&gt;2 -->
<g id="edge5" class="edge">
<title>1&#45;&gt;2</title>
<path fill="none" stroke="black" d="M249.58,-220.14C259.3,-222.54 271.84,-225.64 283.25,-228.46"/>
<polygon fill="black" stroke="black" points="282.76,-231.94 293.3,-230.94 284.43,-225.14 282.76,-231.94"/>
<text text-anchor="middle" x="271.3" y="-229" font-family="Courier,monospace" font-size="10.00">c</text>
</g>
<!-- 1&#45;&gt;6 -->
<g id="edge6" class="edge">
<title>1&#45;&gt;6</title>
<path fill="none" stroke="darkred" d="M248.53,-208.9C276.98,-196.06 337.25,-168.87 371.54,-153.4"/>
<polygon fill="darkred" stroke="darkred" points="373.21,-156.49 380.88,-149.18 370.33,-150.11 373.21,-156.49"/>
<text text-anchor="middle" x="314.8" y="-191" font-family="Courier,monospace" font-size="10.00" fill="darkred">a</text>
</g>
<!-- 7 -->
<g id="node9" class="node">
<title>7</title>
<ellipse fill="#e0c4c4" stroke="black" cx="567.8" cy="-182" rx="18" ry="18"/>
<text text-anchor="middle" x="567.8" y="-179.5" font-family="Courier,monospace" font-size="10.00">7</text>
</g>
<!-- 1&#45;&gt;7 -->
<g id="edge7" class="edge">
<title>1&#45;&gt;7</title>
<path fill="none" stroke="darkgreen" d="M243.95,-229.9C254.88,-242.31 272.78,-259.64 292.8,-267 311.15,-273.75 317.48,-270.04 336.8,-267 426.77,-252.83 449.27,-242.53 531.8,-204 535.82,-202.12 539.95,-199.87 543.89,-197.52"/>
<polygon fill="darkgreen" stroke="darkgreen" points="546.01,-200.33 552.61,-192.05 542.28,-194.4 546.01,-200.33"/>
<text text-anchor="middle" x="397.8" y="-262" font-family="Courier,monospace" font-size="10.00" fill="darkgreen">b</text>
</g>
<!-- 2&#45;&gt;6 -->
<g id="edge8" class="edge">
<title>2&#45;&gt;6</title>
<path fill="none" stroke="black" d="M331.89,-222.05C341.09,-213.74 352.59,-202.74 361.8,-192 368.87,-183.76 375.88,-174.11 381.75,-165.5"/>
<polygon fill="black" stroke="black" points="384.78,-167.27 387.42,-157 378.96,-163.39 384.78,-167.27"/>
<text text-anchor="middle" x="358.3" y="-202" font-family="Courier,monospace" font-size="10.00">a</text>
</g>
<!-- 2&#45;&gt;7 -->
<g id="edge9" class="edge">
<title>2&#45;&gt;7</title>
<path fill="none" stroke="darkred" d="M336.77,-231.49C382.31,-221.69 490.18,-198.48 540.32,-187.7"/>
<polygon fill="darkred" stroke="darkred" points="541.06,-191.12 550.1,-185.59 539.59,-184.27 541.06,-191.12"/>
<text text-anchor="middle" x="443.3" y="-213" font-family="Courier,monospace" font-size="10.00" fill="darkred">b,c</text>
</g>
<!-- 3&#45;&gt;1 -->
<g id="edge10" class="edge">
<title>3&#45;&gt;1</title>
<path fill="none" stroke="black" d="M170.13,-193.15C180.3,-196.98 193.61,-201.99 205.17,-206.35"/>
<polygon fill="black" stroke="black" points="204.17,-209.71 214.76,-209.96 206.63,-203.16 204.17,-209.71"/>
<text text-anchor="middle" x="192.3" y="-205" font-family="Courier,monospace" font-size="10.00">c</text>
</g>
<!-- 3&#45;&gt;3 -->
<g id="edge11" class="edge">
<title>3&#45;&gt;3</title>
<path fill="none" stroke="darkred" d="M146.07,-204.04C144.69,-213.86 146.94,-223 152.8,-223 156.46,-223 158.72,-219.43 159.55,-214.35"/>
<polygon fill="darkred" stroke="darkred" points="163.05,-214.03 159.53,-204.04 156.05,-214.04 163.05,-214.03"/>
<text text-anchor="middle" x="152.8" y="-226" font-family="Courier,monospace" font-size="10.00" fill="darkred">b</text>
</g>
<!-- 3&#45;&gt;6 -->
<g id="edge12" class="edge">
<title>3&#45;&gt;6</title>
<path fill="none" stroke="darkgreen" d="M170.89,-183.84C212.55,-176.12 319.65,-156.29 369.95,-146.97"/>
<polygon fill="darkgreen" stroke="darkgreen" points="370.86,-150.36 380.05,-145.1 369.58,-143.48 370.86,-150.36"/>
<text text-anchor="middle" x="271.3" y="-168" font-family="Courier,monospace" font-size="10.00" fill="darkgreen">a</text>
</g>
<!-- 4 -->
<g id="node6" class="node">
<title>4</title>
<ellipse fill="none" stroke="black" cx="488.8" cy="-128" rx="18" ry="18"/>
<text text-anchor="middle" x="488.8" y="-125.5" font-family="Courier,monospace" font-size="10.00">4</text>
</g>
<!-- 4&#45;&gt;3 -->
<g id="edge13" class="edge">
<title>4&#45;&gt;3</title>
<path fill="none" stroke="black" d="M477.84,-142.65C456.32,-172.83 402.11,-241.28 336.8,-267 284.97,-287.41 259.77,-274.44 213.8,-243 198.89,-232.8 184.04,-218.98 172.84,-207.61"/>
<polygon fill="black" stroke="black" points="175.17,-204.99 165.71,-200.22 170.13,-209.85 175.17,-204.99"/>
<text text-anchor="middle" x="314.8" y="-279" font-family="Courier,monospace" font-size="10.00">b</text>
</g>
<!-- 4&#45;&gt;6 -->
<g id="edge14" class="edge">
<title>4&#45;&gt;6</title>
<path fill="none" stroke="darkred" d="M470.99,-130.64C458.32,-132.64 440.68,-135.41 426.01,-137.72"/>
<polygon fill="darkred" stroke="darkred" points="425.29,-134.29 415.96,-139.3 426.38,-141.2 425.29,-134.29"/>
<text text-anchor="middle" x="443.3" y="-139" font-family="Courier,monospace" font-size="10.00" fill="darkred">a</text>
</g>
<!-- 4&#45;&gt;7 -->
<g id="edge15" class="edge">
<title>4&#45;&gt;7</title>
<path fill="none" stroke="darkgreen" d="M504.22,-137.88C512.35,-143.46 522.66,-150.58 531.8,-157 535.86,-159.85 540.18,-162.91 544.34,-165.88"/>
<polygon fill="darkgreen" stroke="darkgreen" points="542.36,-168.76 552.53,-171.73 546.43,-163.07 542.36,-168.76"/>
<text text-anchor="middle" x="528.3" y="-160" font-family="Courier,monospace" font-size="10.00" fill="darkgreen">c</text>
</g>
<!-- 5&#45;&gt;5 -->
<g id="edge16" class="edge">
<title>5&#45;&gt;5</title>
<path fill="none" stroke="black" d="M307.12,-42.99C306.17,-53.09 308.73,-62 314.8,-62 318.69,-62 321.14,-58.34 322.15,-53.06"/>
<polygon fill="black" stroke="black" points="325.65,-53.1 322.48,-42.99 318.65,-52.87 325.65,-53.1"/>
<text text-anchor="middle" x="314.8" y="-65" font-family="Courier,monospace" font-size="10.00">c</text>
</g>
<!-- 5&#45;&gt;6 -->
<g id="edge17" class="edge">
<title>5&#45;&gt;6</title>
<path fill="none" stroke="darkred" d="M330.87,-37.8C340.36,-48.19 352.53,-62.35 361.8,-76 370.57,-88.91 378.83,-104.27 385.12,-116.92"/>
<polygon fill="darkred" stroke="darkred" points="382,-118.51 389.52,-125.98 388.3,-115.45 382,-118.51"/>
<text text-anchor="middle" x="358.3" y="-79" font-family="Courier,monospace" font-size="10.00" fill="darkred">a</text>
</g>
<!-- 5&#45;&gt;7 -->
<g id="edge18" class="edge">
<title>5&#45;&gt;7</title>
<path fill="none" stroke="darkgreen" d="M336.33,-26.61C373.46,-35.73 452.91,-58.94 506.8,-101 526.54,-116.4 542.95,-139.89 553.59,-157.61"/>
<polygon fill="darkgreen" stroke="darkgreen" points="550.58,-159.38 558.62,-166.28 556.63,-155.87 550.58,-159.38"/>
<text text-anchor="middle" x="443.3" y="-71" font-family="Courier,monospace" font-size="10.00" fill="darkgreen">b</text>
</g>
<!-- 6&#45;&gt;4 -->
<g id="edge19" class="edge">
<title>6&#45;&gt;4</title>
<path fill="none" stroke="black" d="M411.75,-130.33C417.96,-125.52 425.78,-120.49 433.8,-118 442.93,-115.17 453.19,-116.09 462.3,-118.26"/>
<polygon fill="black" stroke="black" points="461.39,-121.64 471.97,-121.1 463.36,-114.92 461.39,-121.64"/>
<text text-anchor="middle" x="443.3" y="-121" font-family="Courier,monospace" font-size="10.00">b</text>
</g>
<!-- 6&#45;&gt;6 -->
<g id="edge20" class="edge">
<title>6&#45;&gt;6</title>
<path fill="none" stroke="darkred" d="M391.07,-159.04C389.69,-168.86 391.94,-178 397.8,-178 401.46,-178 403.72,-174.43 404.55,-169.35"/>
<polygon fill="darkred" stroke="darkred" points="408.05,-169.03 404.53,-159.04 401.05,-169.04 408.05,-169.03"/>
<text text-anchor="middle" x="397.8" y="-181" font-family="Courier,monospace" font-size="10.00" fill="darkred">a</text>
</g>
<!-- 6&#45;&gt;7 -->
<g id="edge21" class="edge">
<title>6&#45;&gt;7</title>
<path fill="none" stroke="darkgreen" d="M415.52,-146.38C421.3,-147.87 427.83,-149.54 433.8,-151 470.6,-160.02 513.27,-169.86 540.16,-175.98"/>
<polygon fill="darkgreen" stroke="darkgreen" points="539.45,-179.4 549.97,-178.21 541,-172.58 539.45,-179.4"/>
<text text-anchor="middle" x="488.8" y="-171" font-family="Courier,monospace" font-size="10.00" fill="darkgreen">c</text>
</g>
<!-- 7&#45;&gt;7 -->
<g id="edge22" class="edge">
<title>7&#45;&gt;7</title>
<path fill="none" stroke="black" d="M561.07,-199.04C559.69,-208.86 561.94,-218 567.8,-218 571.46,-218 573.72,-214.43 574.55,-209.35"/>
<polygon fill="black" stroke="black" points="578.05,-209.03 574.53,-199.04 571.05,-209.04 578.05,-209.03"/>
<text text-anchor="middle" x="567.8" y="-221" font-family="Courier,monospace" font-size="10.00">a,b,c</text>
</g>
</g>
</svg>
