<?xml version="1.0" encoding="UTF-8" standalone="no"?>
<!DOCTYPE svg PUBLIC "-//W3C//DTD SVG 1.1//EN"
 "http://www.w3.org/Graphics/SVG/1.1/DTD/svg11.dtd">
<!-- Generated by graphviz version 2.43.0 (0)
 -->
<!-- Title: AnnotatedDFA Pages: 1 -->
<svg width="421pt" height="557pt"
 viewBox="0.00 0.00 420.50 556.78" xmlns="http://www.w3.org/2000/svg" xmlns:xlink="http://www.w3.org/1999/xlink">
<g id="graph0" class="graph" transform="scale(1 1) rotate(0) translate(4 552.78)">
<title>AnnotatedDFA</title>
<polygon fill="white" stroke="transparent" points="-4,4 -4,-552.78 416.5,-552.78 416.5,4 -4,4"/>
<text text-anchor="start" x="154.75" y="-533.58" font-family="Helvetica,sans-Serif" font-size="14.00">f — depth level 0</text>
<g id="clust1" class="cluster">
<title>cluster_automaton</title>
<polygon fill="none" stroke="black" points="109.5,-8 109.5,-488.68 404.5,-488.68 404.5,-8 109.5,-8"/>
<text text-anchor="middle" x="257" y="-473.48" font-family="Helvetica,sans-Serif" font-size="14.00">Annotated DFA</text>
</g>
<!-- legend -->
<g id="node1" class="node">
<title>legend</title>
<polygon fill="#eeeeee" stroke="transparent" points="0.5,-504.28 0.5,-525.28 101.5,-525.28 101.5,-504.28 0.5,-504.28"/>
<polygon fill="none" stroke="black" points="0.5,-504.28 0.5,-525.28 101.5,-525.28 101.5,-504.28 0.5,-504.28"/>
<text text-anchor="start" x="5.5" y="-513.28" font-family="Courier,monospace" font-weight="bold" font-size="10.00">index → pattern</text>
<polygon fill="none" stroke="black" points="0.5,-483.28 0.5,-504.28 32.5,-504.28 32.5,-483.28 0.5,-483.28"/>
<text text-anchor="start" x="20.5" y="-491.28" font-family="Courier,monospace" font-size="10.00">1</text>
<polygon fill="none" stroke="black" points="32.5,-483.28 32.5,-504.28 101.5,-504.28 101.5,-483.28 32.5,-483.28"/>
<text text-anchor="start" x="37.5" y="-491.28" font-family="Courier,monospace" font-size="10.00">t[b1 b3]</text>
<polygon fill="none" stroke="black" points="0.5,-462.28 0.5,-483.28 32.5,-483.28 32.5,-462.28 0.5,-462.28"/>
<text text-anchor="start" x="20.5" y="-470.28" font-family="Courier,monospace" font-size="10.00">2</text>
<polygon fill="none" stroke="black" points="32.5,-462.28 32.5,-483.28 101.5,-483.28 101.5,-462.28 32.5,-462.28"/>
<text text-anchor="start" x="37.5" y="-470.28" font-family="Courier,monospace" font-size="10.00">[b2 b3]s</text>
<polygon fill="#eeeeee" stroke="transparent" points="0.5,-441.28 0.5,-462.28 101.5,-462.28 101.5,-441.28 0.5,-441.28"/>
<polygon fill="none" stroke="black" points="0.5,-441.28 0.5,-462.28 101.5,-462.28 101.5,-441.28 0.5,-441.28"/>
<text text-anchor="start" x="11.5" y="-450.28" font-family="Courier,monospace" font-weight="bold" font-size="10.00">b_i → pattern</text>
<polygon fill="none" stroke="black" points="0.5,-420.28 0.5,-441.28 32.5,-441.28 32.5,-420.28 0.5,-420.28"/>
<text text-anchor="start" x="14.5" y="-428.28" font-family="Courier,monospace" font-size="10.00">b0</text>
<polygon fill="none" stroke="black" points="32.5,-420.28 32.5,-441.28 101.5,-441.28 101.5,-420.28 32.5,-420.28"/>
<text text-anchor="start" x="37.5" y="-428.28" font-family="Courier,monospace" font-size="10.00">∅</text>
<polygon fill="none" stroke="black" points="0.5,-399.28 0.5,-420.28 32.5,-420.28 32.5,-399.28 0.5,-399.28"/>
<text text-anchor="start" x="14.5" y="-407.28" font-family="Courier,monospace" font-size="10.00">b1</text>
<polygon fill="none" stroke="black" points="32.5,-399.28 32.5,-420.28 101.5,-420.28 101.5,-399.28 32.5,-399.28"/>
<text text-anchor="start" x="37.5" y="-407.28" font-family="Courier,monospace" font-size="10.00">t[b1 b3]</text>
<polygon fill="none" stroke="black" points="0.5,-378.28 0.5,-399.28 32.5,-399.28 32.5,-378.28 0.5,-378.28"/>
<text text-anchor="start" x="14.5" y="-386.28" font-family="Courier,monospace" font-size="10.00">b2</text>
<polygon fill="none" stroke="black" points="32.5,-378.28 32.5,-399.28 101.5,-399.28 101.5,-378.28 32.5,-378.28"/>
<text text-anchor="start" x="37.5" y="-386.28" font-family="Courier,monospace" font-size="10.00">[b2 b3]s</text>
</g>
<!-- 0 -->
<g id="node3" class="node">
<title>0</title>
<ellipse fill="none" stroke="black" cx="225.5" cy="-320.56" rx="21.43" ry="21.43"/>
<text text-anchor="middle" x="225.5" y="-323.56" font-family="Courier,monospace" font-size="10.00">0</text>
<text text-anchor="middle" x="225.5" y="-312.56" font-family="Courier,monospace" font-size="10.00">∅</text>
</g>
<!-- legend&#45;&gt;0 -->
<!-- _start -->
<g id="node2" class="node">
<title>_start</title>
<ellipse fill="black" stroke="black" cx="225.5" cy="-452.28" rx="5.4" ry="5.4"/>
</g>
<!-- _start&#45;&gt;0 -->
<g id="edge1" class="edge">
<title>_start&#45;&gt;0</title>
<path fill="none" stroke="black" d="M225.5,-446.66C225.5,-431.78 225.5,-384.18 225.5,-352.18"/>
<polygon fill="black" stroke="black" points="229,-352 225.5,-342 222,-352 229,-352"/>
</g>
<!-- 1 -->
<g id="node4" class="node">
<title>1</title>
<ellipse fill="none" stroke="black" cx="177.5" cy="-231.14" rx="21.43" ry="21.43"/>
<text text-anchor="middle" x="177.5" y="-234.14" font-family="Courier,monospace" font-size="10.00">1</text>
<text text-anchor="middle" x="177.5" y="-223.14" font-family="Courier,monospace" font-size="10.00">∅</text>
</g>
<!-- 0&#45;&gt;1 -->
<g id="edge2" class="edge">
<title>0&#45;&gt;1</title>
<path fill="none" stroke="black" d="M215.55,-301.45C208.86,-289.26 199.92,-272.96 192.38,-259.24"/>
<polygon fill="black" stroke="black" points="195.31,-257.31 187.43,-250.23 189.18,-260.68 195.31,-257.31"/>
<text text-anchor="middle" x="225" y="-273.35" font-family="Courier,monospace" font-size="10.00">b0,b1,s</text>
</g>
<!-- 2 -->
<g id="node5" class="node">
<title>2</title>
<ellipse fill="none" stroke="black" cx="276.5" cy="-231.14" rx="21.43" ry="21.43"/>
<text text-anchor="middle" x="276.5" y="-234.14" font-family="Courier,monospace" font-size="10.00">2</text>
<text text-anchor="middle" x="276.5" y="-223.14" font-family="Courier,monospace" font-size="10.00">∅</text>
</g>
<!-- 0&#45;&gt;2 -->
<g id="edge3" class="edge">
<title>0&#45;&gt;2</title>
<path fill="none" stroke="darkred" d="M236.12,-302.12C240.05,-295.62 244.51,-288.17 248.5,-281.35 252.76,-274.07 257.31,-266.15 261.47,-258.82"/>
<polygon fill="darkred" stroke="darkred" points="264.61,-260.39 266.5,-249.97 258.52,-256.94 264.61,-260.39"/>
<text text-anchor="middle" x="270" y="-273.35" font-family="Courier,monospace" font-size="10.00" fill="darkred">b2,b3</text>
</g>
<!-- 3 -->
<g id="node6" class="node">
<title>3</title>
<ellipse fill="#e0c4c4" stroke="black" cx="203.5" cy="-37.21" rx="21.43" ry="21.43"/>
<text text-anchor="middle" x="203.5" y="-40.21" font-family="Courier,monospace" font-size="10.00">3</text>
<text text-anchor="middle" x="203.5" y="-29.21" font-family="Courier,monospace" font-size="10.00">∅</text>
</g>
<!-- 1&#45;&gt;3 -->
<g id="edge4" class="edge">
<title>1&#45;&gt;3</title>
<path fill="none" stroke="black" d="M167.42,-212.42C154.84,-187.91 136.46,-142.48 149.5,-105.43 155.7,-87.82 168.67,-71.42 180.34,-59.23"/>
<polygon fill="black" stroke="black" points="183.13,-61.39 187.74,-51.85 178.19,-56.43 183.13,-61.39"/>
<text text-anchor="middle" x="171" y="-131.68" font-family="Courier,monospace" font-size="10.00">b0,b2,s</text>
</g>
<!-- 4 -->
<g id="node7" class="node">
<title>4</title>
<ellipse fill="none" stroke="black" cx="292.5" cy="-134.18" rx="24.96" ry="24.96"/>
<ellipse fill="none" stroke="black" cx="292.5" cy="-134.18" rx="29" ry="29"/>
<text text-anchor="middle" x="292.5" y="-137.18" font-family="Courier,monospace" font-size="10.00">4</text>
<text text-anchor="middle" x="292.5" y="-126.18" font-family="Courier,monospace" font-size="10.00">{1}</text>
</g>
<!-- 1&#45;&gt;4 -->
<g id="edge5" class="edge">
<title>1&#45;&gt;4</title>
<path fill="none" stroke="darkred" d="M193.49,-216.93C211.41,-202.14 240.84,-177.83 262.97,-159.56"/>
<polygon fill="darkred" stroke="darkred" points="265.28,-162.19 270.76,-153.13 260.82,-156.8 265.28,-162.19"/>
<text text-anchor="middle" x="250" y="-183.92" font-family="Courier,monospace" font-size="10.00" fill="darkred">b1,b3</text>
</g>
<!-- 2&#45;&gt;3 -->
<g id="edge6" class="edge">
<title>2&#45;&gt;3</title>
<path fill="none" stroke="black" d="M261.76,-215.43C249.74,-202.61 233.21,-182.99 223.5,-162.92 209.06,-133.09 204.7,-95 203.55,-68.81"/>
<polygon fill="black" stroke="black" points="207.04,-68.61 203.24,-58.72 200.05,-68.82 207.04,-68.61"/>
<text text-anchor="middle" x="239" y="-131.68" font-family="Courier,monospace" font-size="10.00">b0,b2</text>
</g>
<!-- 2&#45;&gt;4 -->
<g id="edge7" class="edge">
<title>2&#45;&gt;4</title>
<path fill="none" stroke="darkred" d="M279.89,-210C281.72,-199.17 284.03,-185.47 286.17,-172.76"/>
<polygon fill="darkred" stroke="darkred" points="289.63,-173.29 287.84,-162.85 282.72,-172.13 289.63,-173.29"/>
<text text-anchor="middle" x="300" y="-183.92" font-family="Courier,monospace" font-size="10.00" fill="darkred">b1,b3</text>
</g>
<!-- 5 -->
<g id="node8" class="node">
<title>5</title>
<ellipse fill="none" stroke="black" cx="367.5" cy="-134.18" rx="24.96" ry="24.96"/>
<ellipse fill="none" stroke="black" cx="367.5" cy="-134.18" rx="29" ry="29"/>
<text text-anchor="middle" x="367.5" y="-137.18" font-family="Courier,monospace" font-size="10.00">5</text>
<text text-anchor="middle" x="367.5" y="-126.18" font-family="Courier,monospace" font-size="10.00">{2}</text>
</g>
<!-- 2&#45;&gt;5 -->
<g id="edge8" class="edge">
<title>2&#45;&gt;5</title>
<path fill="none" stroke="darkgreen" d="M292.52,-216.86C300.83,-209.73 310.99,-200.64 319.5,-191.92 327.64,-183.58 336.02,-174.06 343.44,-165.23"/>
<polygon fill="darkgreen" stroke="darkgreen" points="346.27,-167.3 349.96,-157.37 340.89,-162.83 346.27,-167.3"/>
<text text-anchor="middle" x="332" y="-183.92" font-family="Courier,monospace" font-size="10.00" fill="darkgreen">s</text>
</g>
<!-- 3&#45;&gt;3 -->
<g id="edge9" class="edge">
<title>3&#45;&gt;3</title>
<path fill="none" stroke="black" d="M223.27,-45.17C233.5,-46.4 242.71,-43.74 242.71,-37.21 242.71,-33.03 238.93,-30.44 233.52,-29.44"/>
<polygon fill="black" stroke="black" points="233.33,-25.93 223.27,-29.25 233.21,-32.93 233.33,-25.93"/>
<text text-anchor="middle" x="282.21" y="-34.71" font-family="Courier,monospace" font-size="10.00">b0,b1,b2,b3,s</text>
</g>
<!-- 4&#45;&gt;3 -->
<g id="edge10" class="edge">
<title>4&#45;&gt;3</title>
<path fill="none" stroke="black" d="M268.59,-117.3C262.43,-113.33 255.76,-109.15 249.5,-105.43 235.14,-96.89 226.81,-100.57 216.5,-87.43 212.18,-81.91 209.29,-75.09 207.35,-68.31"/>
<polygon fill="black" stroke="black" points="210.77,-67.53 205.15,-58.54 203.94,-69.07 210.77,-67.53"/>
<text text-anchor="middle" x="256" y="-79.43" font-family="Courier,monospace" font-size="10.00">b0,b1,b2,b3,s</text>
</g>
<!-- 5&#45;&gt;3 -->
<g id="edge11" class="edge">
<title>5&#45;&gt;3</title>
<path fill="none" stroke="black" d="M346.56,-114.15C332.76,-102.26 313.9,-87.22 295.5,-76.43 275.74,-64.83 251.8,-55.01 233.29,-48.22"/>
<polygon fill="black" stroke="black" points="234.22,-44.84 223.63,-44.77 231.87,-51.43 234.22,-44.84"/>
<text text-anchor="middle" x="351" y="-79.43" font-family="Courier,monospace" font-size="10.00">b0,b1,b2,b3,s</text>
</g>
</g>
</svg>
