<?xml version="1.0" encoding="UTF-8" standalone="no"?>
<!DOCTYPE svg PUBLIC "-//W3C//DTD SVG 1.1//EN"
 "http://www.w3.org/Graphics/SVG/1.1/DTD/svg11.dtd">
<!-- Generated by graphviz version 2.43.0 (0)
 -->
<!-- Title: AnnotatedDFA Pages: 1 -->
<svg width="532pt" height="699pt"
 viewBox="0.00 0.00 532.00 699.24" xmlns="http://www.w3.org/2000/svg" xmlns:xlink="http://www.w3.org/1999/xlink">
<g id="graph0" class="graph" transform="scale(1 1) rotate(0) translate(4 695.24)">
<title>AnnotatedDFA</title>
<polygon fill="white" stroke="transparent" points="-4,4 -4,-695.24 528,-695.24 528,4 -4,4"/>
<text text-anchor="start" x="210.5" y="-676.04" font-family="Helvetica,sans-Serif" font-size="14.00">f — depth level 1</text>
<g id="clust1" class="cluster">
<title>cluster_automaton</title>
<polygon fill="none" stroke="black" points="150,-8 150,-620.64 516,-620.64 516,-8 150,-8"/>
<text text-anchor="middle" x="333" y="-605.44" font-family="Helvetica,sans-Serif" font-size="14.00">Annotated DFA</text>
</g>
<!-- legend -->
<g id="node1" class="node">
<title>legend</title>
<polygon fill="#eeeeee" stroke="transparent" points="0,-647.24 0,-668.24 142,-668.24 142,-647.24 0,-647.24"/>
<polygon fill="none" stroke="black" points="0,-647.24 0,-668.24 142,-668.24 142,-647.24 0,-647.24"/>
<text text-anchor="start" x="25.5" y="-656.24" font-family="Courier,monospace" font-weight="bold" font-size="10.00">index → pattern</text>
<polygon fill="none" stroke="black" points="0,-626.24 0,-647.24 23,-647.24 23,-626.24 0,-626.24"/>
<text text-anchor="start" x="11" y="-634.24" font-family="Courier,monospace" font-size="10.00">1</text>
<polygon fill="none" stroke="black" points="23,-626.24 23,-647.24 142,-647.24 142,-626.24 23,-626.24"/>
<text text-anchor="start" x="28" y="-634.24" font-family="Courier,monospace" font-size="10.00">e[b2]s</text>
<polygon fill="none" stroke="black" points="0,-605.24 0,-626.24 23,-626.24 23,-605.24 0,-605.24"/>
<text text-anchor="start" x="11" y="-613.24" font-family="Courier,monospace" font-size="10.00">2</text>
<polygon fill="none" stroke="black" points="23,-605.24 23,-626.24 142,-626.24 142,-605.24 23,-605.24"/>
<text text-anchor="start" x="28" y="-613.24" font-family="Courier,monospace" font-size="10.00">[b1 b2]es</text>
<polygon fill="#eeeeee" stroke="transparent" points="0,-584.24 0,-605.24 142,-605.24 142,-584.24 0,-584.24"/>
<polygon fill="none" stroke="black" points="0,-584.24 0,-605.24 142,-605.24 142,-584.24 0,-584.24"/>
<text text-anchor="start" x="31.5" y="-593.24" font-family="Courier,monospace" font-weight="bold" font-size="10.00">b_i → pattern</text>
<polygon fill="none" stroke="black" points="0,-563.24 0,-584.24 23,-584.24 23,-563.24 0,-563.24"/>
<text text-anchor="start" x="5" y="-571.24" font-family="Courier,monospace" font-size="10.00">b0</text>
<polygon fill="none" stroke="black" points="23,-563.24 23,-584.24 142,-584.24 142,-563.24 23,-563.24"/>
<text text-anchor="start" x="28" y="-571.24" font-family="Courier,monospace" font-size="10.00">∅</text>
<polygon fill="none" stroke="black" points="0,-542.24 0,-563.24 23,-563.24 23,-542.24 0,-542.24"/>
<text text-anchor="start" x="5" y="-550.24" font-family="Courier,monospace" font-size="10.00">b1</text>
<polygon fill="none" stroke="black" points="23,-542.24 23,-563.24 142,-563.24 142,-542.24 23,-542.24"/>
<text text-anchor="start" x="28" y="-550.24" font-family="Courier,monospace" font-size="10.00">e[b2]s</text>
<polygon fill="none" stroke="black" points="0,-521.24 0,-542.24 23,-542.24 23,-521.24 0,-521.24"/>
<text text-anchor="start" x="5" y="-529.24" font-family="Courier,monospace" font-size="10.00">b2</text>
<polygon fill="none" stroke="black" points="23,-521.24 23,-542.24 142,-542.24 142,-521.24 23,-521.24"/>
<text text-anchor="start" x="28" y="-529.24" font-family="Courier,monospace" font-size="10.00">[b1 b2]es</text>
<polygon fill="none" stroke="black" points="0,-500.24 0,-521.24 23,-521.24 23,-500.24 0,-500.24"/>
<text text-anchor="start" x="5" y="-508.24" font-family="Courier,monospace" font-size="10.00">b3</text>
<polygon fill="none" stroke="black" points="23,-500.24 23,-521.24 142,-521.24 142,-500.24 23,-500.24"/>
<text text-anchor="start" x="28" y="-508.24" font-family="Courier,monospace" font-size="10.00">e[b2]s | [b1 b2]es</text>
</g>
<!-- 0 -->
<g id="node3" class="node">
<title>0</title>
<ellipse fill="none" stroke="black" cx="373" cy="-442.03" rx="21.43" ry="21.43"/>
<text text-anchor="middle" x="373" y="-445.03" font-family="Courier,monospace" font-size="10.00">0</text>
<text text-anchor="middle" x="373" y="-434.03" font-family="Courier,monospace" font-size="10.00">∅</text>
</g>
<!-- legend&#45;&gt;0 -->
<!-- _start -->
<g id="node2" class="node">
<title>_start</title>
<ellipse fill="black" stroke="black" cx="373" cy="-584.24" rx="5.4" ry="5.4"/>
</g>
<!-- _start&#45;&gt;0 -->
<g id="edge1" class="edge">
<title>_start&#45;&gt;0</title>
<path fill="none" stroke="black" d="M373,-578.58C373,-562.47 373,-508.29 373,-473.5"/>
<polygon fill="black" stroke="black" points="376.5,-473.39 373,-463.39 369.5,-473.39 376.5,-473.39"/>
</g>
<!-- 1 -->
<g id="node4" class="node">
<title>1</title>
<ellipse fill="none" stroke="black" cx="239" cy="-352.61" rx="21.43" ry="21.43"/>
<text text-anchor="middle" x="239" y="-355.61" font-family="Courier,monospace" font-size="10.00">1</text>
<text text-anchor="middle" x="239" y="-344.61" font-family="Courier,monospace" font-size="10.00">∅</text>
</g>
<!-- 0&#45;&gt;1 -->
<g id="edge2" class="edge">
<title>0&#45;&gt;1</title>
<path fill="none" stroke="black" d="M355.48,-429.6C332.41,-414.55 291.65,-387.95 264.98,-370.56"/>
<polygon fill="black" stroke="black" points="266.81,-367.57 256.52,-365.04 262.99,-373.43 266.81,-367.57"/>
<text text-anchor="middle" x="326.5" y="-394.82" font-family="Courier,monospace" font-size="10.00">b0,s</text>
</g>
<!-- 2 -->
<g id="node5" class="node">
<title>2</title>
<ellipse fill="none" stroke="black" cx="373" cy="-352.61" rx="21.43" ry="21.43"/>
<text text-anchor="middle" x="373" y="-355.61" font-family="Courier,monospace" font-size="10.00">2</text>
<text text-anchor="middle" x="373" y="-344.61" font-family="Courier,monospace" font-size="10.00">∅</text>
</g>
<!-- 0&#45;&gt;2 -->
<g id="edge3" class="edge">
<title>0&#45;&gt;2</title>
<path fill="none" stroke="darkred" d="M373,-420.75C373,-409.91 373,-396.33 373,-384.23"/>
<polygon fill="darkred" stroke="darkred" points="376.5,-384.08 373,-374.08 369.5,-384.08 376.5,-384.08"/>
<text text-anchor="middle" x="379.5" y="-394.82" font-family="Courier,monospace" font-size="10.00" fill="darkred">b1</text>
</g>
<!-- 3 -->
<g id="node6" class="node">
<title>3</title>
<ellipse fill="none" stroke="black" cx="456" cy="-263.18" rx="21.43" ry="21.43"/>
<text text-anchor="middle" x="456" y="-266.18" font-family="Courier,monospace" font-size="10.00">3</text>
<text text-anchor="middle" x="456" y="-255.18" font-family="Courier,monospace" font-size="10.00">∅</text>
</g>
<!-- 0&#45;&gt;3 -->
<g id="edge4" class="edge">
<title>0&#45;&gt;3</title>
<path fill="none" stroke="darkgreen" d="M391.4,-430.82C409.96,-419.46 437.84,-399.32 452,-373.82 465.47,-349.56 464.9,-317.4 461.92,-294.19"/>
<polygon fill="darkgreen" stroke="darkgreen" points="465.36,-293.59 460.41,-284.22 458.44,-294.63 465.36,-293.59"/>
<text text-anchor="middle" x="469.5" y="-350.11" font-family="Courier,monospace" font-size="10.00" fill="darkgreen">b2</text>
</g>
<!-- 1&#45;&gt;1 -->
<g id="edge5" class="edge">
<title>1&#45;&gt;1</title>
<path fill="none" stroke="black" d="M258.77,-360.57C269,-361.79 278.21,-359.14 278.21,-352.61 278.21,-348.42 274.43,-345.83 269.02,-344.83"/>
<polygon fill="black" stroke="black" points="268.83,-341.32 258.77,-344.65 268.71,-348.32 268.83,-341.32"/>
<text text-anchor="middle" x="299.71" y="-350.11" font-family="Courier,monospace" font-size="10.00">b0,b1,s</text>
</g>
<!-- 4 -->
<g id="node7" class="node">
<title>4</title>
<ellipse fill="none" stroke="black" cx="179" cy="-263.18" rx="21.43" ry="21.43"/>
<text text-anchor="middle" x="179" y="-266.18" font-family="Courier,monospace" font-size="10.00">4</text>
<text text-anchor="middle" x="179" y="-255.18" font-family="Courier,monospace" font-size="10.00">∅</text>
</g>
<!-- 1&#45;&gt;4 -->
<g id="edge6" class="edge">
<title>1&#45;&gt;4</title>
<path fill="none" stroke="darkred" d="M220.51,-341.11C210.34,-334.43 198.34,-324.88 191,-313.39 187.39,-307.75 184.87,-301.11 183.11,-294.57"/>
<polygon fill="darkred" stroke="darkred" points="186.47,-293.55 180.91,-284.52 179.63,-295.04 186.47,-293.55"/>
<text text-anchor="middle" x="197.5" y="-305.39" font-family="Courier,monospace" font-size="10.00" fill="darkred">b2</text>
</g>
<!-- 2&#45;&gt;2 -->
<g id="edge7" class="edge">
<title>2&#45;&gt;2</title>
<path fill="none" stroke="black" d="M392.77,-360.57C403,-361.79 412.21,-359.14 412.21,-352.61 412.21,-348.42 408.43,-345.83 403.02,-344.83"/>
<polygon fill="black" stroke="black" points="402.83,-341.32 392.77,-344.65 402.71,-348.32 402.83,-341.32"/>
<text text-anchor="middle" x="427.71" y="-350.11" font-family="Courier,monospace" font-size="10.00">b0,b1</text>
</g>
<!-- 2&#45;&gt;3 -->
<g id="edge8" class="edge">
<title>2&#45;&gt;3</title>
<path fill="none" stroke="darkred" d="M392.81,-344.25C407.14,-338.01 426.01,-327.77 438,-313.39 442.62,-307.85 446.1,-301.02 448.71,-294.24"/>
<polygon fill="darkred" stroke="darkred" points="452.12,-295.07 451.94,-284.48 445.48,-292.87 452.12,-295.07"/>
<text text-anchor="middle" x="450.5" y="-305.39" font-family="Courier,monospace" font-size="10.00" fill="darkred">b2</text>
</g>
<!-- 5 -->
<g id="node8" class="node">
<title>5</title>
<ellipse fill="none" stroke="black" cx="381" cy="-44.75" rx="24.96" ry="24.96"/>
<ellipse fill="none" stroke="black" cx="381" cy="-44.75" rx="29" ry="29"/>
<text text-anchor="middle" x="381" y="-47.75" font-family="Courier,monospace" font-size="10.00">5</text>
<text text-anchor="middle" x="381" y="-36.75" font-family="Courier,monospace" font-size="10.00">{2}</text>
</g>
<!-- 2&#45;&gt;5 -->
<g id="edge9" class="edge">
<title>2&#45;&gt;5</title>
<path fill="none" stroke="darkgreen" d="M369.95,-331.43C364.35,-291.17 353.79,-198.06 363,-120.5 364.5,-107.86 367.38,-94.28 370.4,-82.2"/>
<polygon fill="darkgreen" stroke="darkgreen" points="373.8,-83.02 372.95,-72.46 367.03,-81.25 373.8,-83.02"/>
<text text-anchor="middle" x="363.5" y="-215.97" font-family="Courier,monospace" font-size="10.00" fill="darkgreen">s</text>
</g>
<!-- 3&#45;&gt;2 -->
<g id="edge10" class="edge">
<title>3&#45;&gt;2</title>
<path fill="none" stroke="black" d="M437.9,-274.66C426.94,-281.59 413.17,-291.4 403,-302.39 397.07,-308.79 391.7,-316.54 387.2,-323.98"/>
<polygon fill="black" stroke="black" points="383.91,-322.69 381.98,-333.11 389.98,-326.17 383.91,-322.69"/>
<text text-anchor="middle" x="418.5" y="-305.39" font-family="Courier,monospace" font-size="10.00">b0,b1</text>
</g>
<!-- 3&#45;&gt;3 -->
<g id="edge11" class="edge">
<title>3&#45;&gt;3</title>
<path fill="none" stroke="darkred" d="M475.77,-271.14C486,-272.36 495.21,-269.71 495.21,-263.18 495.21,-258.99 491.43,-256.4 486.02,-255.4"/>
<polygon fill="darkred" stroke="darkred" points="485.83,-251.9 475.77,-255.22 485.71,-258.9 485.83,-251.9"/>
<text text-anchor="middle" x="501.71" y="-260.68" font-family="Courier,monospace" font-size="10.00" fill="darkred">b2</text>
</g>
<!-- 6 -->
<g id="node9" class="node">
<title>6</title>
<ellipse fill="none" stroke="black" cx="409" cy="-157.73" rx="33.44" ry="33.44"/>
<ellipse fill="none" stroke="black" cx="409" cy="-157.73" rx="37.47" ry="37.47"/>
<text text-anchor="middle" x="409" y="-160.73" font-family="Courier,monospace" font-size="10.00">6</text>
<text text-anchor="middle" x="409" y="-149.73" font-family="Courier,monospace" font-size="10.00">{1,2}</text>
</g>
<!-- 3&#45;&gt;6 -->
<g id="edge12" class="edge">
<title>3&#45;&gt;6</title>
<path fill="none" stroke="darkgreen" d="M440.91,-248.21C434.48,-241.47 427.45,-232.91 423,-223.97 420.09,-218.11 417.78,-211.67 415.95,-205.18"/>
<polygon fill="darkgreen" stroke="darkgreen" points="419.24,-203.9 413.45,-195.03 412.44,-205.57 419.24,-203.9"/>
<text text-anchor="middle" x="426.5" y="-215.97" font-family="Courier,monospace" font-size="10.00" fill="darkgreen">s</text>
</g>
<!-- 4&#45;&gt;1 -->
<g id="edge13" class="edge">
<title>4&#45;&gt;1</title>
<path fill="none" stroke="black" d="M190.53,-280.98C199.32,-293.79 211.57,-311.64 221.56,-326.19"/>
<polygon fill="black" stroke="black" points="218.89,-328.48 227.43,-334.75 224.66,-324.52 218.89,-328.48"/>
<text text-anchor="middle" x="227.5" y="-305.39" font-family="Courier,monospace" font-size="10.00">b0,b1</text>
</g>
<!-- 4&#45;&gt;4 -->
<g id="edge14" class="edge">
<title>4&#45;&gt;4</title>
<path fill="none" stroke="darkred" d="M198.77,-271.14C209,-272.36 218.21,-269.71 218.21,-263.18 218.21,-258.99 214.43,-256.4 209.02,-255.4"/>
<polygon fill="darkred" stroke="darkred" points="208.83,-251.9 198.77,-255.22 208.71,-258.9 208.83,-251.9"/>
<text text-anchor="middle" x="224.71" y="-260.68" font-family="Courier,monospace" font-size="10.00" fill="darkred">b2</text>
</g>
<!-- 7 -->
<g id="node10" class="node">
<title>7</title>
<ellipse fill="none" stroke="black" cx="209" cy="-157.73" rx="24.96" ry="24.96"/>
<ellipse fill="none" stroke="black" cx="209" cy="-157.73" rx="29" ry="29"/>
<text text-anchor="middle" x="209" y="-160.73" font-family="Courier,monospace" font-size="10.00">7</text>
<text text-anchor="middle" x="209" y="-149.73" font-family="Courier,monospace" font-size="10.00">{1}</text>
</g>
<!-- 4&#45;&gt;7 -->
<g id="edge15" class="edge">
<title>4&#45;&gt;7</title>
<path fill="none" stroke="darkgreen" d="M178.43,-241.77C178.64,-232.8 179.52,-222.23 182,-212.97 183.91,-205.84 186.79,-198.55 189.98,-191.72"/>
<polygon fill="darkgreen" stroke="darkgreen" points="193.13,-193.26 194.45,-182.75 186.86,-190.14 193.13,-193.26"/>
<text text-anchor="middle" x="185.5" y="-215.97" font-family="Courier,monospace" font-size="10.00" fill="darkgreen">s</text>
</g>
<!-- 5&#45;&gt;2 -->
<g id="edge16" class="edge">
<title>5&#45;&gt;2</title>
<path fill="none" stroke="black" d="M365.59,-69.18C345.31,-102.8 313.43,-166.95 324,-223.97 330.65,-259.82 346.96,-298.6 358.94,-323.89"/>
<polygon fill="black" stroke="black" points="355.95,-325.73 363.46,-333.21 362.25,-322.68 355.95,-325.73"/>
<text text-anchor="middle" x="339.5" y="-215.97" font-family="Courier,monospace" font-size="10.00">b0,b1</text>
</g>
<!-- 5&#45;&gt;3 -->
<g id="edge17" class="edge">
<title>5&#45;&gt;3</title>
<path fill="none" stroke="darkred" d="M404.58,-61.65C422.14,-75.03 444.77,-95.88 455,-120.5 469.96,-156.51 466.77,-202.25 462.18,-231.86"/>
<polygon fill="darkred" stroke="darkred" points="458.68,-231.55 460.46,-242 465.58,-232.73 458.68,-231.55"/>
<text text-anchor="middle" x="472.5" y="-155.23" font-family="Courier,monospace" font-size="10.00" fill="darkred">b2</text>
</g>
<!-- 5&#45;&gt;5 -->
<g id="edge18" class="edge">
<title>5&#45;&gt;5</title>
<path fill="none" stroke="darkgreen" d="M408.37,-54.46C418.95,-54.89 427.75,-51.65 427.75,-44.75 427.75,-40.22 423.96,-37.26 418.37,-35.89"/>
<polygon fill="darkgreen" stroke="darkgreen" points="418.63,-32.4 408.37,-35.04 418.04,-39.38 418.63,-32.4"/>
<text text-anchor="middle" x="431.25" y="-42.25" font-family="Courier,monospace" font-size="10.00" fill="darkgreen">s</text>
</g>
<!-- 6&#45;&gt;2 -->
<g id="edge19" class="edge">
<title>6&#45;&gt;2</title>
<path fill="none" stroke="black" d="M402.32,-194.53C395.48,-231.18 384.97,-287.49 378.56,-321.8"/>
<polygon fill="black" stroke="black" points="375.11,-321.22 376.72,-331.69 381.99,-322.5 375.11,-321.22"/>
<text text-anchor="middle" x="408.5" y="-260.68" font-family="Courier,monospace" font-size="10.00">b0,b1</text>
</g>
<!-- 6&#45;&gt;3 -->
<g id="edge20" class="edge">
<title>6&#45;&gt;3</title>
<path fill="none" stroke="darkred" d="M424.17,-192.12C430.36,-205.74 437.44,-221.32 443.34,-234.32"/>
<polygon fill="darkred" stroke="darkred" points="440.27,-236.03 447.6,-243.68 446.65,-233.13 440.27,-236.03"/>
<text text-anchor="middle" x="444.5" y="-215.97" font-family="Courier,monospace" font-size="10.00" fill="darkred">b2</text>
</g>
<!-- 6&#45;&gt;5 -->
<g id="edge21" class="edge">
<title>6&#45;&gt;5</title>
<path fill="none" stroke="darkgreen" d="M400.06,-121.31C396.96,-109.02 393.48,-95.21 390.35,-82.79"/>
<polygon fill="darkgreen" stroke="darkgreen" points="393.65,-81.59 387.81,-72.75 386.87,-83.3 393.65,-81.59"/>
<text text-anchor="middle" x="398.5" y="-94.5" font-family="Courier,monospace" font-size="10.00" fill="darkgreen">s</text>
</g>
<!-- 7&#45;&gt;1 -->
<g id="edge22" class="edge">
<title>7&#45;&gt;1</title>
<path fill="none" stroke="black" d="M220.42,-184.47C227.15,-200.66 235.24,-222.17 240,-241.97 246.32,-268.25 245.44,-275.4 247,-302.39 247.28,-307.27 247.5,-308.53 247,-313.39 246.72,-316.14 246.32,-318.98 245.85,-321.82"/>
<polygon fill="black" stroke="black" points="242.37,-321.42 243.94,-331.89 249.24,-322.72 242.37,-321.42"/>
<text text-anchor="middle" x="267.5" y="-260.68" font-family="Courier,monospace" font-size="10.00">b0,b1,s</text>
</g>
<!-- 7&#45;&gt;4 -->
<g id="edge23" class="edge">
<title>7&#45;&gt;4</title>
<path fill="none" stroke="darkred" d="M201.23,-185.52C197.01,-200.07 191.79,-218.07 187.47,-232.98"/>
<polygon fill="darkred" stroke="darkred" points="184.07,-232.14 184.64,-242.72 190.79,-234.09 184.07,-232.14"/>
<text text-anchor="middle" x="199.5" y="-215.97" font-family="Courier,monospace" font-size="10.00" fill="darkred">b2</text>
</g>
</g>
</svg>
