<?xml version="1.0" encoding="UTF-8" standalone="no"?>
<!DOCTYPE svg PUBLIC "-//W3C//DTD SVG 1.1//EN"
 "http://www.w3.org/Graphics/SVG/1.1/DTD/svg11.dtd">
<!-- Generated by graphviz version 2.43.0 (0)
 -->
<!-- Title: AnnotatedDFA Pages: 1 -->
<svg width="249pt" height="393pt"
 viewBox="0.00 0.00 248.50 392.99" xmlns="http://www.w3.org/2000/svg" xmlns:xlink="http://www.w3.org/1999/xlink">
<g id="graph0" class="graph" transform="scale(1 1) rotate(0) translate(4 388.99)">
<title>AnnotatedDFA</title>
<polygon fill="white" stroke="transparent" points="-4,4 -4,-388.99 244.5,-388.99 244.5,4 -4,4"/>
<text text-anchor="start" x="67.25" y="-369.79" font-family="Helvetica,sans-Serif" font-size="14.00">g — depth level 0</text>
<g id="clust1" class="cluster">
<title>cluster_automaton</title>
<polygon fill="none" stroke="black" points="121.5,-8 121.5,-324.89 232.5,-324.89 232.5,-8 121.5,-8"/>
<text text-anchor="middle" x="177" y="-309.69" font-family="Helvetica,sans-Serif" font-size="14.00">Annotated DFA</text>
</g>
<!-- legend -->
<g id="node1" class="node">
<title>legend</title>
<polygon fill="#eeeeee" stroke="transparent" points="0.5,-340.49 0.5,-361.49 113.5,-361.49 113.5,-340.49 0.5,-340.49"/>
<polygon fill="none" stroke="black" points="0.5,-340.49 0.5,-361.49 113.5,-361.49 113.5,-340.49 0.5,-340.49"/>
<text text-anchor="start" x="11.5" y="-349.49" font-family="Courier,monospace" font-weight="bold" font-size="10.00">index → pattern</text>
<polygon fill="none" stroke="black" points="0.5,-319.49 0.5,-340.49 53.5,-340.49 53.5,-319.49 0.5,-319.49"/>
<text text-anchor="start" x="41.5" y="-327.49" font-family="Courier,monospace" font-size="10.00">1</text>
<polygon fill="none" stroke="black" points="53.5,-319.49 53.5,-340.49 113.5,-340.49 113.5,-319.49 53.5,-319.49"/>
<text text-anchor="start" x="58.5" y="-327.49" font-family="Courier,monospace" font-size="10.00">ε</text>
<polygon fill="none" stroke="black" points="0.5,-298.49 0.5,-319.49 53.5,-319.49 53.5,-298.49 0.5,-298.49"/>
<text text-anchor="start" x="41.5" y="-306.49" font-family="Courier,monospace" font-size="10.00">2</text>
<polygon fill="none" stroke="black" points="53.5,-298.49 53.5,-319.49 113.5,-319.49 113.5,-298.49 53.5,-298.49"/>
<text text-anchor="start" x="58.5" y="-306.49" font-family="Courier,monospace" font-size="10.00">ete</text>
<polygon fill="#eeeeee" stroke="transparent" points="0.5,-277.49 0.5,-298.49 113.5,-298.49 113.5,-277.49 0.5,-277.49"/>
<polygon fill="none" stroke="black" points="0.5,-277.49 0.5,-298.49 113.5,-298.49 113.5,-277.49 0.5,-277.49"/>
<text text-anchor="start" x="17.5" y="-286.49" font-family="Courier,monospace" font-weight="bold" font-size="10.00">b_i → pattern</text>
<polygon fill="none" stroke="black" points="0.5,-256.49 0.5,-277.49 53.5,-277.49 53.5,-256.49 0.5,-256.49"/>
<text text-anchor="start" x="35.5" y="-264.49" font-family="Courier,monospace" font-size="10.00">b1</text>
<polygon fill="none" stroke="black" points="53.5,-256.49 53.5,-277.49 113.5,-277.49 113.5,-256.49 53.5,-256.49"/>
<text text-anchor="start" x="58.5" y="-264.49" font-family="Courier,monospace" font-size="10.00">ε</text>
<polygon fill="none" stroke="black" points="0.5,-235.49 0.5,-256.49 53.5,-256.49 53.5,-235.49 0.5,-235.49"/>
<text text-anchor="start" x="35.5" y="-243.49" font-family="Courier,monospace" font-size="10.00">b2</text>
<polygon fill="none" stroke="black" points="53.5,-235.49 53.5,-256.49 113.5,-256.49 113.5,-235.49 53.5,-235.49"/>
<text text-anchor="start" x="58.5" y="-243.49" font-family="Courier,monospace" font-size="10.00">ete</text>
<polygon fill="none" stroke="black" points="0.5,-214.49 0.5,-235.49 113.5,-235.49 113.5,-214.49 0.5,-214.49"/>
<text text-anchor="start" x="5.5" y="-223.49" font-family="Courier,monospace" font-style="italic" font-size="10.00">L(union) = (b|s)*</text>
</g>
<!-- 0 -->
<g id="node3" class="node">
<title>0</title>
<ellipse fill="none" stroke="black" cx="158.5" cy="-149.25" rx="24.96" ry="24.96"/>
<ellipse fill="none" stroke="black" cx="158.5" cy="-149.25" rx="29" ry="29"/>
<text text-anchor="middle" x="158.5" y="-152.25" font-family="Courier,monospace" font-size="10.00">0</text>
<text text-anchor="middle" x="158.5" y="-141.25" font-family="Courier,monospace" font-size="10.00">{1}</text>
</g>
<!-- legend&#45;&gt;0 -->
<!-- _start -->
<g id="node2" class="node">
<title>_start</title>
<ellipse fill="black" stroke="black" cx="158.5" cy="-288.49" rx="5.4" ry="5.4"/>
</g>
<!-- _start&#45;&gt;0 -->
<g id="edge1" class="edge">
<title>_start&#45;&gt;0</title>
<path fill="none" stroke="black" d="M158.5,-282.93C158.5,-268.39 158.5,-222.13 158.5,-188.31"/>
<polygon fill="black" stroke="black" points="162,-188.26 158.5,-178.26 155,-188.26 162,-188.26"/>
</g>
<!-- 1 -->
<g id="node4" class="node">
<title>1</title>
<ellipse fill="none" stroke="black" cx="158.5" cy="-44.75" rx="24.96" ry="24.96"/>
<ellipse fill="none" stroke="black" cx="158.5" cy="-44.75" rx="29" ry="29"/>
<text text-anchor="middle" x="158.5" y="-47.75" font-family="Courier,monospace" font-size="10.00">1</text>
<text text-anchor="middle" x="158.5" y="-36.75" font-family="Courier,monospace" font-size="10.00">{2}</text>
</g>
<!-- 0&#45;&gt;1 -->
<g id="edge2" class="edge">
<title>0&#45;&gt;1</title>
<path fill="none" stroke="black" d="M158.5,-120.24C158.5,-109.05 158.5,-95.99 158.5,-83.96"/>
<polygon fill="black" stroke="black" points="162,-83.72 158.5,-73.72 155,-83.72 162,-83.72"/>
<text text-anchor="middle" x="168" y="-94.5" font-family="Courier,monospace" font-size="10.00">b,s</text>
</g>
<!-- 1&#45;&gt;1 -->
<g id="edge3" class="edge">
<title>1&#45;&gt;1</title>
<path fill="none" stroke="black" d="M185.87,-54.46C196.45,-54.89 205.25,-51.65 205.25,-44.75 205.25,-40.22 201.46,-37.26 195.87,-35.89"/>
<polygon fill="black" stroke="black" points="196.13,-32.4 185.87,-35.04 195.54,-39.38 196.13,-32.4"/>
<text text-anchor="middle" x="214.75" y="-42.25" font-family="Courier,monospace" font-size="10.00">b,s</text>
</g>
</g>
</svg>
