<?xml version="1.0" encoding="UTF-8" standalone="no"?>
<!DOCTYPE svg PUBLIC "-//W3C//DTD SVG 1.1//EN"
 "http://www.w3.org/Graphics/SVG/1.1/DTD/svg11.dtd">
<!-- Generated by graphviz version 2.43.0 (0)
 -->
<!-- Title: AnnotatedDFA Pages: 1 -->
<svg width="226pt" height="94pt"
 viewBox="0.00 0.00 225.79 94.50" xmlns="http://www.w3.org/2000/svg" xmlns:xlink="http://www.w3.org/1999/xlink">
<g id="graph0" class="graph" transform="scale(1 1) rotate(0) translate(4 90.5)">
<title>AnnotatedDFA</title>
<polygon fill="white" stroke="transparent" points="-4,4 -4,-90.5 221.79,-90.5 221.79,4 -4,4"/>
<!-- _start -->
<g id="node1" class="node">
<title>_start</title>
<ellipse fill="black" stroke="black" cx="5.4" cy="-28.75" rx="5.4" ry="5.4"/>
</g>
<!-- 0 -->
<g id="node2" class="node">
<title>0</title>
<ellipse fill="none" stroke="black" cx="76.55" cy="-28.75" rx="24.96" ry="24.96"/>
<ellipse fill="none" stroke="black" cx="76.55" cy="-28.75" rx="29" ry="29"/>
<text text-anchor="middle" x="76.55" y="-31.75" font-family="Courier,monospace" font-size="10.00">0</text>
<text text-anchor="middle" x="76.55" y="-20.75" font-family="Courier,monospace" font-size="10.00">{1}</text>
</g>
<!-- _start&#45;&gt;0 -->
<g id="edge1" class="edge">
<title>_start&#45;&gt;0</title>
<path fill="none" stroke="black" d="M10.94,-28.75C16.58,-28.75 26.79,-28.75 37.45,-28.75"/>
<polygon fill="black" stroke="black" points="37.67,-32.25 47.67,-28.75 37.67,-25.25 37.67,-32.25"/>
</g>
<!-- 1 -->
<g id="node3" class="node">
<title>1</title>
<ellipse fill="#e0c4c4" stroke="black" cx="189.05" cy="-28.75" rx="24.96" ry="24.96"/>
<ellipse fill="none" stroke="black" cx="189.05" cy="-28.75" rx="29" ry="29"/>
<text text-anchor="middle" x="189.05" y="-31.75" font-family="Courier,monospace" font-size="10.00">1</text>
<text text-anchor="middle" x="189.05" y="-20.75" font-family="Courier,monospace" font-size="10.00">{2}</text>
</g>
<!-- 0&#45;&gt;1 -->
<g id="edge2" class="edge">
<title>0&#45;&gt;1</title>
<path fill="none" stroke="black" d="M105.43,-28.75C118.91,-28.75 135.3,-28.75 149.91,-28.75"/>
<polygon fill="black" stroke="black" points="150.17,-32.25 160.17,-28.75 150.17,-25.25 150.17,-32.25"/>
<text text-anchor="middle" x="132.8" y="-31.75" font-family="Courier,monospace" font-size="10.00">b,s</text>
</g>
<!-- 1&#45;&gt;1 -->
<g id="edge3" class="edge">
<title>1&#45;&gt;1</title>
<path fill="none" stroke="black" d="M178.61,-55.65C178.02,-66.44 181.5,-75.5 189.05,-75.5 194,-75.5 197.2,-71.6 198.65,-65.87"/>
<polygon fill="black" stroke="black" points="202.16,-65.9 199.48,-55.65 195.18,-65.33 202.16,-65.9"/>
<text text-anchor="middle" x="189.05" y="-78.5" font-family="Courier,monospace" font-size="10.00">b,s</text>
</g>
</g>
</svg>
