<?xml version="1.0" encoding="UTF-8" standalone="no"?>
<!DOCTYPE svg PUBLIC "-//W3C//DTD SVG 1.1//EN"
 "http://www.w3.org/Graphics/SVG/1.1/DTD/svg11.dtd">
<!-- Generated by graphviz version 2.43.0 (0)
 -->
<!-- Title: EAD_DFA Pages: 1 -->
<svg width="365pt" height="102pt"
 viewBox="0.00 0.00 364.80 102.00" xmlns="http://www.w3.org/2000/svg" xmlns:xlink="http://www.w3.org/1999/xlink">
<g id="graph0" class="graph" transform="scale(1 1) rotate(0) translate(4 98)">
<title>EAD_DFA</title>
<polygon fill="white" stroke="transparent" points="-4,4 -4,-98 360.8,-98 360.8,4 -4,4"/>
<!-- _start -->
<g id="node1" class="node">
<title>_start</title>
<ellipse fill="black" stroke="black" cx="5.4" cy="-51" rx="5.4" ry="5.4"/>
</g>
<!-- 0 -->
<g id="node2" class="node">
<title>0</title>
<ellipse fill="none" stroke="black" cx="69.8" cy="-51" rx="18" ry="18"/>
<ellipse fill="none" stroke="black" cx="69.8" cy="-51" rx="22" ry="22"/>
<text text-anchor="middle" x="69.8" y="-48.5" font-family="Courier,monospace" font-size="10.00">0</text>
</g>
<!-- _start&#45;&gt;0 -->
<g id="edge1" class="edge">
<title>_start&#45;&gt;0</title>
<path fill="none" stroke="black" d="M10.89,-51C16.59,-51 26.94,-51 37.33,-51"/>
<polygon fill="black" stroke="black" points="37.57,-54.5 47.57,-51 37.57,-47.5 37.57,-54.5"/>
</g>
<!-- 2 -->
<g id="node4" class="node">
<title>2</title>
<ellipse fill="none" stroke="black" cx="243.8" cy="-72" rx="18" ry="18"/>
<ellipse fill="none" stroke="black" cx="243.8" cy="-72" rx="22" ry="22"/>
<text text-anchor="middle" x="243.8" y="-69.5" font-family="Courier,monospace" font-size="10.00">2</text>
</g>
<!-- 0&#45;&gt;2 -->
<g id="edge2" class="edge">
<title>0&#45;&gt;2</title>
<path fill="none" stroke="black" d="M91.89,-53.58C121.89,-57.24 177.08,-63.98 211.75,-68.21"/>
<polygon fill="black" stroke="black" points="211.46,-71.7 221.81,-69.44 212.3,-64.75 211.46,-71.7"/>
<text text-anchor="middle" x="156.8" y="-66" font-family="Courier,monospace" font-size="10.00">a</text>
</g>
<!-- 3 -->
<g id="node5" class="node">
<title>3</title>
<ellipse fill="none" stroke="black" cx="156.8" cy="-22" rx="18" ry="18"/>
<ellipse fill="none" stroke="black" cx="156.8" cy="-22" rx="22" ry="22"/>
<text text-anchor="middle" x="156.8" y="-19.5" font-family="Courier,monospace" font-size="10.00">3</text>
</g>
<!-- 0&#45;&gt;3 -->
<g id="edge3" class="edge">
<title>0&#45;&gt;3</title>
<path fill="none" stroke="darkred" d="M90.94,-44.13C101.42,-40.55 114.44,-36.11 126.05,-32.15"/>
<polygon fill="darkred" stroke="darkred" points="127.47,-35.36 135.8,-28.82 125.21,-28.74 127.47,-35.36"/>
<text text-anchor="middle" x="113.3" y="-40" font-family="Courier,monospace" font-size="10.00" fill="darkred">b</text>
</g>
<!-- 1 -->
<g id="node3" class="node">
<title>1</title>
<ellipse fill="#e0c4c4" stroke="black" cx="338.8" cy="-37" rx="18" ry="18"/>
<text text-anchor="middle" x="338.8" y="-34.5" font-family="Courier,monospace" font-size="10.00">1</text>
</g>
<!-- 1&#45;&gt;1 -->
<g id="edge4" class="edge">
<title>1&#45;&gt;1</title>
<path fill="none" stroke="black" d="M331.13,-53.29C329.28,-63.39 331.84,-73 338.8,-73 343.26,-73 345.91,-69.06 346.75,-63.57"/>
<polygon fill="black" stroke="black" points="350.25,-63.19 346.47,-53.29 343.25,-63.38 350.25,-63.19"/>
<text text-anchor="middle" x="338.8" y="-76" font-family="Courier,monospace" font-size="10.00">a,b</text>
</g>
<!-- 2&#45;&gt;1 -->
<g id="edge5" class="edge">
<title>2&#45;&gt;1</title>
<path fill="none" stroke="black" d="M264.52,-64.58C278.39,-59.36 297.07,-52.33 312.09,-46.67"/>
<polygon fill="black" stroke="black" points="313.69,-49.81 321.81,-43.02 311.22,-43.26 313.69,-49.81"/>
<text text-anchor="middle" x="293.3" y="-59" font-family="Courier,monospace" font-size="10.00">a,b</text>
</g>
<!-- 3&#45;&gt;1 -->
<g id="edge6" class="edge">
<title>3&#45;&gt;1</title>
<path fill="none" stroke="black" d="M178.92,-23.42C200.7,-24.92 235.64,-27.42 265.8,-30 280.61,-31.27 297.12,-32.86 310.58,-34.21"/>
<polygon fill="black" stroke="black" points="310.34,-37.7 320.64,-35.22 311.05,-30.73 310.34,-37.7"/>
<text text-anchor="middle" x="243.8" y="-33" font-family="Courier,monospace" font-size="10.00">b</text>
</g>
<!-- 3&#45;&gt;2 -->
<g id="edge7" class="edge">
<title>3&#45;&gt;2</title>
<path fill="none" stroke="darkred" d="M176.24,-32.85C187.72,-39.6 202.68,-48.4 215.51,-55.95"/>
<polygon fill="darkred" stroke="darkred" points="214,-59.12 224.39,-61.17 217.55,-53.08 214,-59.12"/>
<text text-anchor="middle" x="200.3" y="-51" font-family="Courier,monospace" font-size="10.00" fill="darkred">a</text>
</g>
</g>
</svg>
