<?xml version="1.0" encoding="UTF-8" standalone="no"?>
<!DOCTYPE svg PUBLIC "-//W3C//DTD SVG 1.1//EN"
 "http://www.w3.org/Graphics/SVG/1.1/DTD/svg11.dtd">
<!-- Generated by graphviz version 2.43.0 (0)
 -->
<!-- Title: TemplateAutomaton Pages: 1 -->
<svg width="630pt" height="436pt"
 viewBox="0.00 0.00 629.78 436.33" xmlns="http://www.w3.org/2000/svg" xmlns:xlink="http://www.w3.org/1999/xlink">
<g id="graph0" class="graph" transform="scale(1 1) rotate(0) translate(4 432.33)">
<title>TemplateAutomaton</title>
<polygon fill="white" stroke="transparent" points="-4,4 -4,-432.33 625.78,-432.33 625.78,4 -4,4"/>
<!-- _rank_0&#45;&gt;_rank_1 -->
<!-- _rank_1&#45;&gt;_rank_2 -->
<!-- _rank_2&#45;&gt;_rank_3 -->
<!-- _label_1&#45;&gt;1 -->
<g id="edge4" class="edge">
<title>_label_1&#45;&gt;1</title>
<path fill="none" stroke="black" stroke-width="1.1" d="M159.41,-229C176.51,-229 200.56,-229 220.62,-229"/>
<polygon fill="black" stroke="black" stroke-width="1.1" points="220.66,-231.8 228.66,-229 220.66,-226.2 220.66,-231.8"/>
</g>
<!-- 1&#45;&gt;2 -->
<g id="edge7" class="edge">
<title>1&#45;&gt;2</title>
<path fill="none" stroke="black" d="M258.92,-198.61C258.92,-177.95 258.92,-150.35 258.92,-127.65"/>
<polygon fill="black" stroke="black" points="261.72,-127.53 258.92,-119.53 256.12,-127.53 261.72,-127.53"/>
<text text-anchor="middle" x="246.92" y="-155.31" font-family="Times,serif" font-style="italic" font-size="16.00">a,c</text>
</g>
<!-- 1&#45;&gt;4 -->
<g id="edge8" class="edge">
<title>1&#45;&gt;4</title>
<path fill="none" stroke="black" d="M288.57,-233.88C308.2,-237.22 334.73,-241.74 357.68,-245.65"/>
<polygon fill="black" stroke="black" points="357.27,-248.42 365.63,-247 358.21,-242.9 357.27,-248.42"/>
<text text-anchor="middle" x="329.78" y="-247.2" font-family="Times,serif" font-style="italic" font-size="16.00">b</text>
</g>
<!-- _label_0&#45;&gt;0 -->
<g id="edge5" class="edge">
<title>_label_0&#45;&gt;0</title>
<path fill="none" stroke="black" stroke-width="1.1" d="M53.04,-333C66.91,-333 84.28,-333 99.47,-333"/>
<polygon fill="black" stroke="black" stroke-width="1.1" points="99.66,-335.8 107.66,-333 99.66,-330.2 99.66,-335.8"/>
</g>
<!-- _label_6&#45;&gt;6 -->
<g id="edge6" class="edge">
<title>_label_6&#45;&gt;6</title>
<path fill="none" stroke="black" stroke-width="1.1" d="M435.48,-372C453.53,-372 478.14,-372 501.02,-372"/>
<polygon fill="black" stroke="black" stroke-width="1.1" points="501.03,-374.8 509.03,-372 501.03,-369.2 501.03,-374.8"/>
</g>
<!-- 2&#45;&gt;5 -->
<g id="edge9" class="edge">
<title>2&#45;&gt;5</title>
<path fill="none" stroke="black" d="M292.5,-86C310.24,-86 332.65,-86 352.91,-86"/>
<polygon fill="black" stroke="black" points="353.14,-88.8 361.14,-86 353.14,-83.2 353.14,-88.8"/>
<text text-anchor="middle" x="329.78" y="-91.2" font-family="Times,serif" font-style="italic" font-size="16.00">a</text>
</g>
<!-- 4&#45;&gt;3 -->
<g id="edge10" class="edge">
<title>4&#45;&gt;3</title>
<path fill="none" stroke="black" d="M370.62,-274.65C349.4,-286.79 322.51,-302.18 300.54,-314.75"/>
<polygon fill="black" stroke="black" points="299.15,-312.32 293.6,-318.73 301.93,-317.19 299.15,-312.32"/>
<text text-anchor="middle" x="329.78" y="-304.2" font-family="Times,serif" font-style="italic" font-size="16.00">b</text>
</g>
<!-- 4&#45;&gt;5 -->
<g id="edge11" class="edge">
<title>4&#45;&gt;5</title>
<path fill="none" stroke="black" d="M407.71,-211.47C407.71,-190.1 407.71,-163.95 407.71,-141.07"/>
<polygon fill="black" stroke="black" points="410.51,-140.8 407.71,-132.8 404.91,-140.8 410.51,-140.8"/>
<text text-anchor="middle" x="395.71" y="-168.2" font-family="Times,serif" font-style="italic" font-size="16.00">a</text>
</g>
<!-- _rank_0 -->
<!-- _rank_1 -->
<!-- _rank_2 -->
<!-- _rank_3 -->
<!-- _label_1 -->
<g id="node5" class="node">
<title>_label_1</title>
<polygon fill="none" stroke="black" points="116.28,-231 116.28,-261 156.28,-261 156.28,-231 116.28,-231"/>
<text text-anchor="start" x="121.28" y="-241.6" font-family="Times,serif" font-size="18.00">SFF</text>
<polygon fill="none" stroke="black" points="114.28,-229 114.28,-263 158.28,-263 158.28,-229 114.28,-229"/>
<polygon fill="none" stroke="black" points="116.28,-196 116.28,-226 156.28,-226 156.28,-196 116.28,-196"/>
<text text-anchor="start" x="121.28" y="-206.6" font-family="Times,serif" font-size="18.00">SFP</text>
<polygon fill="none" stroke="black" stroke-dasharray="5,2" points="114.28,-194 114.28,-228 158.28,-228 158.28,-194 114.28,-194"/>
</g>
<!-- 1 -->
<g id="node6" class="node">
<title>1</title>
<ellipse fill="none" stroke="black" cx="258.92" cy="-229" rx="30.04" ry="30.04"/>
<text text-anchor="middle" x="258.92" y="-224.6" font-family="Times,serif" font-size="18.00">u[1]</text>
</g>
<!-- _label_0 -->
<g id="node7" class="node">
<title>_label_0</title>
<polygon fill="none" stroke="black" points="3.5,-335 3.5,-365 50.5,-365 50.5,-335 3.5,-335"/>
<text text-anchor="start" x="12" y="-345.6" font-family="Times,serif" font-size="18.00">SFS</text>
<polygon fill="none" stroke="black" points="1.5,-333 1.5,-367 52.5,-367 52.5,-333 1.5,-333"/>
<polygon fill="none" stroke="black" points="3.5,-300 3.5,-330 50.5,-330 50.5,-300 3.5,-300"/>
<text text-anchor="start" x="8.5" y="-310.6" font-family="Times,serif" font-size="18.00">SFW</text>
<polygon fill="none" stroke="black" stroke-dasharray="5,2" points="1.5,-298 1.5,-332 52.5,-332 52.5,-298 1.5,-298"/>
</g>
<!-- 0 -->
<g id="node8" class="node">
<title>0</title>
<ellipse fill="none" stroke="black" cx="136.28" cy="-333" rx="28.07" ry="28.07"/>
<text text-anchor="start" x="131.28" y="-334.6" font-family="Times,serif" font-size="18.00">u</text>
<text text-anchor="start" x="131.28" y="-320.2" font-family="Times,serif" font-size="11.00" fill="#8c8c8c">1&#45;</text>
</g>
<!-- _label_6 -->
<g id="node9" class="node">
<title>_label_6</title>
<polygon fill="none" stroke="black" points="383.71,-374 383.71,-404 432.71,-404 432.71,-374 383.71,-374"/>
<text text-anchor="start" x="391.71" y="-384.6" font-family="Times,serif" font-size="18.00">SAS</text>
<polygon fill="none" stroke="black" points="381.71,-372 381.71,-406 434.71,-406 434.71,-372 381.71,-372"/>
<polygon fill="none" stroke="black" points="383.71,-339 383.71,-369 432.71,-369 432.71,-339 383.71,-339"/>
<text text-anchor="start" x="388.71" y="-349.6" font-family="Times,serif" font-size="18.00">SAW</text>
<polygon fill="none" stroke="black" stroke-dasharray="5,2" points="381.71,-337 381.71,-371 434.71,-371 434.71,-337 381.71,-337"/>
</g>
<!-- 6 -->
<g id="node10" class="node">
<title>6</title>
<ellipse fill="none" stroke="black" stroke-width="1.2" cx="565.46" cy="-372" rx="52.16" ry="52.16"/>
<ellipse fill="none" stroke="black" stroke-width="1.2" cx="565.46" cy="-372" rx="56.15" ry="56.15"/>
<text text-anchor="start" x="536.46" y="-373.6" font-family="Times,serif" font-size="18.00">u[0,2,3]</text>
<text text-anchor="start" x="560.46" y="-359.2" font-family="Times,serif" font-size="11.00" fill="#8c8c8c">1&#45;</text>
</g>
<!-- 2 -->
<g id="node11" class="node">
<title>2</title>
<ellipse fill="none" stroke="black" cx="258.92" cy="-86" rx="33.47" ry="33.47"/>
<text text-anchor="start" x="243.92" y="-87.6" font-family="Times,serif" font-size="18.00">u[2]</text>
<text text-anchor="start" x="254.42" y="-73.2" font-family="Times,serif" font-size="11.00" fill="#8c8c8c">1&#45;</text>
</g>
<!-- 3 -->
<g id="node12" class="node">
<title>3</title>
<ellipse fill="none" stroke="black" stroke-width="1.2" cx="258.92" cy="-338" rx="35.23" ry="35.23"/>
<ellipse fill="none" stroke="black" stroke-width="1.2" cx="258.92" cy="-338" rx="39.21" ry="39.21"/>
<text text-anchor="start" x="243.42" y="-339.6" font-family="Times,serif" font-size="18.00">u[0]</text>
<text text-anchor="start" x="241.92" y="-325.2" font-family="Times,serif" font-size="11.00" fill="#8c8c8c">1&#45;,2&#45;,3&#45;</text>
</g>
<!-- 4 -->
<g id="node13" class="node">
<title>4</title>
<ellipse fill="none" stroke="black" cx="407.71" cy="-254" rx="42.35" ry="42.35"/>
<text text-anchor="start" x="385.71" y="-255.6" font-family="Times,serif" font-size="18.00">u[2,3]</text>
<text text-anchor="start" x="402.71" y="-241.2" font-family="Times,serif" font-size="11.00" fill="#8c8c8c">1&#45;</text>
</g>
<!-- 5 -->
<g id="node14" class="node">
<title>5</title>
<ellipse fill="none" stroke="black" stroke-width="1.2" cx="407.71" cy="-86" rx="42.36" ry="42.36"/>
<ellipse fill="none" stroke="black" stroke-width="1.2" cx="407.71" cy="-86" rx="46.35" ry="46.35"/>
<text text-anchor="start" x="385.71" y="-87.6" font-family="Times,serif" font-size="18.00">u[0,3]</text>
<text text-anchor="start" x="396.71" y="-73.2" font-family="Times,serif" font-size="11.00" fill="#8c8c8c">1&#45;,2&#45;</text>
</g>
</g>
</svg>
