<?xml version="1.0" encoding="UTF-8" standalone="no"?>
<!DOCTYPE svg PUBLIC "-//W3C//DTD SVG 1.1//EN"
 "http://www.w3.org/Graphics/SVG/1.1/DTD/svg11.dtd">
<!-- Generated by graphviz version 2.43.0 (0)
 -->
<!-- Title: EAD_DFA Pages: 1 -->
<svg width="377pt" height="114pt"
 viewBox="0.00 0.00 376.80 114.00" xmlns="http://www.w3.org/2000/svg" xmlns:xlink="http://www.w3.org/1999/xlink">
<g id="graph0" class="graph" transform="scale(1 1) rotate(0) translate(4 110)">
<title>EAD_DFA</title>
<polygon fill="white" stroke="transparent" points="-4,4 -4,-110 372.8,-110 372.8,4 -4,4"/>
<!-- _start -->
<g id="node1" class="node">
<title>_start</title>
<ellipse fill="black" stroke="black" cx="5.4" cy="-55" rx="5.4" ry="5.4"/>
</g>
<!-- 0 -->
<g id="node2" class="node">
<title>0</title>
<ellipse fill="none" stroke="black" cx="69.8" cy="-55" rx="18" ry="18"/>
<ellipse fill="none" stroke="black" cx="69.8" cy="-55" rx="22" ry="22"/>
<text text-anchor="middle" x="69.8" y="-52.5" font-family="Courier,monospace" font-size="10.00">0</text>
</g>
<!-- _start&#45;&gt;0 -->
<g id="edge1" class="edge">
<title>_start&#45;&gt;0</title>
<path fill="none" stroke="black" d="M10.89,-55C16.59,-55 26.94,-55 37.33,-55"/>
<polygon fill="black" stroke="black" points="37.57,-58.5 47.57,-55 37.57,-51.5 37.57,-58.5"/>
</g>
<!-- 0&#45;&gt;0 -->
<g id="edge2" class="edge">
<title>0&#45;&gt;0</title>
<path fill="none" stroke="black" d="M62.48,-75.99C61.58,-86.09 64.02,-95 69.8,-95 73.5,-95 75.84,-91.34 76.8,-86.06"/>
<polygon fill="black" stroke="black" points="80.3,-86.1 77.12,-75.99 73.3,-85.87 80.3,-86.1"/>
<text text-anchor="middle" x="69.8" y="-98" font-family="Courier,monospace" font-size="10.00">c</text>
</g>
<!-- 2 -->
<g id="node4" class="node">
<title>2</title>
<ellipse fill="none" stroke="black" cx="243.8" cy="-73" rx="18" ry="18"/>
<ellipse fill="none" stroke="black" cx="243.8" cy="-73" rx="22" ry="22"/>
<text text-anchor="middle" x="243.8" y="-70.5" font-family="Courier,monospace" font-size="10.00">2</text>
</g>
<!-- 0&#45;&gt;2 -->
<g id="edge3" class="edge">
<title>0&#45;&gt;2</title>
<path fill="none" stroke="darkred" d="M91.89,-57.21C121.89,-60.35 177.08,-66.12 211.75,-69.75"/>
<polygon fill="darkred" stroke="darkred" points="211.5,-73.24 221.81,-70.8 212.22,-66.28 211.5,-73.24"/>
<text text-anchor="middle" x="156.8" y="-69" font-family="Courier,monospace" font-size="10.00" fill="darkred">a</text>
</g>
<!-- 3 -->
<g id="node5" class="node">
<title>3</title>
<ellipse fill="none" stroke="black" cx="156.8" cy="-22" rx="18" ry="18"/>
<ellipse fill="none" stroke="black" cx="156.8" cy="-22" rx="22" ry="22"/>
<text text-anchor="middle" x="156.8" y="-19.5" font-family="Courier,monospace" font-size="10.00">3</text>
</g>
<!-- 0&#45;&gt;3 -->
<g id="edge4" class="edge">
<title>0&#45;&gt;3</title>
<path fill="none" stroke="darkgreen" d="M90.51,-47.35C101.17,-43.21 114.53,-38.02 126.39,-33.42"/>
<polygon fill="darkgreen" stroke="darkgreen" points="127.84,-36.61 135.9,-29.73 125.31,-30.08 127.84,-36.61"/>
<text text-anchor="middle" x="113.3" y="-42" font-family="Courier,monospace" font-size="10.00" fill="darkgreen">b</text>
</g>
<!-- 1 -->
<g id="node3" class="node">
<title>1</title>
<ellipse fill="#e0c4c4" stroke="black" cx="350.8" cy="-38" rx="18" ry="18"/>
<text text-anchor="middle" x="350.8" y="-35.5" font-family="Courier,monospace" font-size="10.00">1</text>
</g>
<!-- 1&#45;&gt;1 -->
<g id="edge5" class="edge">
<title>1&#45;&gt;1</title>
<path fill="none" stroke="black" d="M342.17,-53.92C339.91,-64.15 342.79,-74 350.8,-74 356.06,-74 359.1,-69.76 359.94,-63.95"/>
<polygon fill="black" stroke="black" points="363.43,-63.73 359.43,-53.92 356.44,-64.08 363.43,-63.73"/>
<text text-anchor="middle" x="350.8" y="-77" font-family="Courier,monospace" font-size="10.00">a,b,c</text>
</g>
<!-- 2&#45;&gt;1 -->
<g id="edge6" class="edge">
<title>2&#45;&gt;1</title>
<path fill="none" stroke="black" d="M265.05,-66.25C281.76,-60.68 305.6,-52.73 323.74,-46.69"/>
<polygon fill="black" stroke="black" points="325.03,-49.95 333.41,-43.46 322.81,-43.31 325.03,-49.95"/>
<text text-anchor="middle" x="299.3" y="-62" font-family="Courier,monospace" font-size="10.00">a,b,c</text>
</g>
<!-- 3&#45;&gt;0 -->
<g id="edge7" class="edge">
<title>3&#45;&gt;0</title>
<path fill="none" stroke="black" d="M134.66,-18.98C126.65,-18.61 117.6,-19.14 109.8,-22 103.68,-24.24 97.86,-27.92 92.67,-32.02"/>
<polygon fill="black" stroke="black" points="90.3,-29.44 85.08,-38.67 94.91,-34.71 90.3,-29.44"/>
<text text-anchor="middle" x="113.3" y="-25" font-family="Courier,monospace" font-size="10.00">c</text>
</g>
<!-- 3&#45;&gt;1 -->
<g id="edge8" class="edge">
<title>3&#45;&gt;1</title>
<path fill="none" stroke="darkred" d="M179.08,-23.77C214.15,-26.7 284.05,-32.52 322.64,-35.74"/>
<polygon fill="darkred" stroke="darkred" points="322.38,-39.23 332.64,-36.57 322.96,-32.25 322.38,-39.23"/>
<text text-anchor="middle" x="243.8" y="-33" font-family="Courier,monospace" font-size="10.00" fill="darkred">b</text>
</g>
<!-- 3&#45;&gt;2 -->
<g id="edge9" class="edge">
<title>3&#45;&gt;2</title>
<path fill="none" stroke="darkgreen" d="M176.24,-33.07C187.72,-39.95 202.68,-48.93 215.51,-56.62"/>
<polygon fill="darkgreen" stroke="darkgreen" points="214.02,-59.81 224.39,-61.96 217.62,-53.81 214.02,-59.81"/>
<text text-anchor="middle" x="200.3" y="-52" font-family="Courier,monospace" font-size="10.00" fill="darkgreen">a</text>
</g>
</g>
</svg>
