<?xml version="1.0" encoding="UTF-8" standalone="no"?>
<!DOCTYPE svg PUBLIC "-//W3C//DTD SVG 1.1//EN"
 "http://www.w3.org/Graphics/SVG/1.1/DTD/svg11.dtd">
<!-- Generated by graphviz version 2.43.0 (0)
 -->
<!-- Title: TemplateAutomaton Pages: 1 -->
<svg width="512pt" height="812pt"
 viewBox="0.00 0.00 512.22 812.33" xmlns="http://www.w3.org/2000/svg" xmlns:xlink="http://www.w3.org/1999/xlink">
<g id="graph0" class="graph" transform="scale(1 1) rotate(0) translate(4 808.33)">
<title>TemplateAutomaton</title>
<polygon fill="white" stroke="transparent" points="-4,4 -4,-808.33 508.22,-808.33 508.22,4 -4,4"/>
<!-- _rank_1&#45;&gt;_rank_2 -->
<!-- _rank_2&#45;&gt;_rank_3 -->
<!-- _label_0&#45;&gt;0 -->
<g id="edge3" class="edge">
<title>_label_0&#45;&gt;0</title>
<path fill="none" stroke="black" stroke-width="1.1" d="M50.76,-520C67.59,-520 91.07,-520 110.78,-520"/>
<polygon fill="black" stroke="black" stroke-width="1.1" points="110.97,-522.8 118.97,-520 110.97,-517.2 110.97,-522.8"/>
</g>
<!-- 0&#45;&gt;2 -->
<g id="edge6" class="edge">
<title>0&#45;&gt;2</title>
<path fill="none" stroke="black" d="M149.36,-489.61C149.36,-468.95 149.36,-441.35 149.36,-418.65"/>
<polygon fill="black" stroke="black" points="152.16,-418.53 149.36,-410.53 146.56,-418.53 152.16,-418.53"/>
<text text-anchor="middle" x="137.36" y="-446.31" font-family="Times,serif" font-style="italic" font-size="16.00">a</text>
</g>
<!-- _label_5&#45;&gt;5 -->
<g id="edge4" class="edge">
<title>_label_5&#45;&gt;5</title>
<path fill="none" stroke="black" stroke-width="1.1" d="M176.13,-626C193.93,-626 218.16,-626 239.62,-626"/>
<polygon fill="black" stroke="black" stroke-width="1.1" points="239.69,-628.8 247.69,-626 239.69,-623.2 239.69,-628.8"/>
</g>
<!-- 5&#45;&gt;6 -->
<g id="edge10" class="edge">
<title>5&#45;&gt;6</title>
<path fill="none" stroke="black" d="M290.14,-583.47C290.14,-562.1 290.14,-535.95 290.14,-513.07"/>
<polygon fill="black" stroke="black" points="292.94,-512.8 290.14,-504.8 287.34,-512.8 292.94,-512.8"/>
<text text-anchor="middle" x="278.14" y="-540.2" font-family="Times,serif" font-style="italic" font-size="16.00">a</text>
</g>
<!-- _label_1&#45;&gt;1 -->
<g id="edge5" class="edge">
<title>_label_1&#45;&gt;1</title>
<path fill="none" stroke="black" stroke-width="1.1" d="M55.1,-748C69.31,-748 87.19,-748 103.48,-748"/>
<polygon fill="black" stroke="black" stroke-width="1.1" points="103.83,-750.8 111.83,-748 103.83,-745.2 103.83,-750.8"/>
</g>
<!-- 1&#45;&gt;7 -->
<g id="edge7" class="edge">
<title>1&#45;&gt;7</title>
<path fill="none" stroke="black" d="M186.72,-748C235.61,-748 323.31,-748 383.26,-748"/>
<polygon fill="black" stroke="black" points="383.53,-750.8 391.53,-748 383.53,-745.2 383.53,-750.8"/>
<text text-anchor="middle" x="290.14" y="-753.2" font-family="Times,serif" font-style="italic" font-size="16.00">b</text>
</g>
<!-- 2&#45;&gt;3 -->
<g id="edge8" class="edge">
<title>2&#45;&gt;3</title>
<path fill="none" stroke="black" d="M149.36,-343.66C149.36,-322.55 149.36,-295.08 149.36,-272.55"/>
<polygon fill="black" stroke="black" points="152.16,-272.5 149.36,-264.5 146.56,-272.5 152.16,-272.5"/>
<text text-anchor="middle" x="137.36" y="-300.2" font-family="Times,serif" font-style="italic" font-size="16.00">a</text>
</g>
<!-- 3&#45;&gt;4 -->
<g id="edge9" class="edge">
<title>3&#45;&gt;4</title>
<path fill="none" stroke="black" d="M149.36,-197.57C149.36,-176.82 149.36,-149.81 149.36,-126.81"/>
<polygon fill="black" stroke="black" points="152.16,-126.54 149.36,-118.54 146.56,-126.54 152.16,-126.54"/>
<text text-anchor="middle" x="137.36" y="-154.26" font-family="Times,serif" font-style="italic" font-size="16.00">a</text>
</g>
<!-- _rank_1 -->
<!-- _rank_2 -->
<!-- _rank_3 -->
<!-- _label_0 -->
<g id="node4" class="node">
<title>_label_0</title>
<polygon fill="none" stroke="black" points="7.5,-522 7.5,-552 47.5,-552 47.5,-522 7.5,-522"/>
<text text-anchor="start" x="12.5" y="-532.6" font-family="Times,serif" font-size="18.00">SFF</text>
<polygon fill="none" stroke="black" points="5.5,-520 5.5,-554 49.5,-554 49.5,-520 5.5,-520"/>
<polygon fill="none" stroke="black" points="7.5,-487 7.5,-517 47.5,-517 47.5,-487 7.5,-487"/>
<text text-anchor="start" x="12.5" y="-497.6" font-family="Times,serif" font-size="18.00">SFP</text>
<polygon fill="none" stroke="black" stroke-dasharray="5,2" points="5.5,-485 5.5,-519 49.5,-519 49.5,-485 5.5,-485"/>
</g>
<!-- 0 -->
<g id="node5" class="node">
<title>0</title>
<ellipse fill="none" stroke="black" cx="149.36" cy="-520" rx="30.04" ry="30.04"/>
<text text-anchor="middle" x="149.36" y="-515.6" font-family="Times,serif" font-size="18.00">u[2]</text>
</g>
<!-- _label_5 -->
<g id="node6" class="node">
<title>_label_5</title>
<polygon fill="none" stroke="black" points="126.36,-628 126.36,-658 173.36,-658 173.36,-628 126.36,-628"/>
<text text-anchor="start" x="134.86" y="-638.6" font-family="Times,serif" font-size="18.00">SFS</text>
<polygon fill="none" stroke="black" points="124.36,-626 124.36,-660 175.36,-660 175.36,-626 124.36,-626"/>
<polygon fill="none" stroke="black" points="126.36,-593 126.36,-623 173.36,-623 173.36,-593 126.36,-593"/>
<text text-anchor="start" x="131.36" y="-603.6" font-family="Times,serif" font-size="18.00">SFW</text>
<polygon fill="none" stroke="black" stroke-dasharray="5,2" points="124.36,-591 124.36,-625 175.36,-625 175.36,-591 124.36,-591"/>
</g>
<!-- 5 -->
<g id="node7" class="node">
<title>5</title>
<ellipse fill="none" stroke="black" cx="290.14" cy="-626" rx="42.35" ry="42.35"/>
<text text-anchor="start" x="268.14" y="-627.6" font-family="Times,serif" font-size="18.00">u[1,3]</text>
<text text-anchor="start" x="285.14" y="-613.2" font-family="Times,serif" font-size="11.00" fill="#8c8c8c">2&#45;</text>
</g>
<!-- _label_1 -->
<g id="node8" class="node">
<title>_label_1</title>
<polygon fill="none" stroke="black" points="3.5,-750 3.5,-780 52.5,-780 52.5,-750 3.5,-750"/>
<text text-anchor="start" x="11.5" y="-760.6" font-family="Times,serif" font-size="18.00">SAS</text>
<polygon fill="none" stroke="black" points="1.5,-748 1.5,-782 54.5,-782 54.5,-748 1.5,-748"/>
<polygon fill="none" stroke="black" points="3.5,-715 3.5,-745 52.5,-745 52.5,-715 3.5,-715"/>
<text text-anchor="start" x="8.5" y="-725.6" font-family="Times,serif" font-size="18.00">SAW</text>
<polygon fill="none" stroke="black" stroke-dasharray="5,2" points="1.5,-713 1.5,-747 54.5,-747 54.5,-713 1.5,-713"/>
</g>
<!-- 1 -->
<g id="node9" class="node">
<title>1</title>
<ellipse fill="none" stroke="black" stroke-width="1.2" stroke-dasharray="5,2" cx="149.36" cy="-748" rx="33.44" ry="33.44"/>
<ellipse fill="none" stroke="black" stroke-width="1.2" stroke-dasharray="5,2" cx="149.36" cy="-748" rx="37.47" ry="37.47"/>
<text text-anchor="start" x="134.36" y="-749.6" font-family="Times,serif" font-size="18.00">u[0]</text>
<text text-anchor="start" x="144.86" y="-735.2" font-family="Times,serif" font-size="11.00" fill="#8c8c8c">2&#45;</text>
</g>
<!-- 2 -->
<g id="node10" class="node">
<title>2</title>
<ellipse fill="none" stroke="black" cx="149.36" cy="-377" rx="33.47" ry="33.47"/>
<text text-anchor="start" x="134.36" y="-378.6" font-family="Times,serif" font-size="18.00">u[3]</text>
<text text-anchor="start" x="144.86" y="-364.2" font-family="Times,serif" font-size="11.00" fill="#8c8c8c">2&#45;</text>
</g>
<!-- 3 -->
<g id="node11" class="node">
<title>3</title>
<ellipse fill="none" stroke="black" cx="149.36" cy="-231" rx="33.47" ry="33.47"/>
<text text-anchor="start" x="134.36" y="-232.6" font-family="Times,serif" font-size="18.00">u[1]</text>
<text text-anchor="start" x="138.86" y="-218.2" font-family="Times,serif" font-size="11.00" fill="#8c8c8c">2&#45;,3&#45;</text>
</g>
<!-- 4 -->
<g id="node12" class="node">
<title>4</title>
<ellipse fill="none" stroke="black" stroke-width="1.2" cx="149.36" cy="-79" rx="35.23" ry="35.23"/>
<ellipse fill="none" stroke="black" stroke-width="1.2" cx="149.36" cy="-79" rx="39.21" ry="39.21"/>
<text text-anchor="start" x="133.86" y="-80.6" font-family="Times,serif" font-size="18.00">u[0]</text>
<text text-anchor="start" x="132.36" y="-66.2" font-family="Times,serif" font-size="11.00" fill="#8c8c8c">1&#45;,2&#45;,3&#45;</text>
</g>
<!-- 6 -->
<g id="node13" class="node">
<title>6</title>
<ellipse fill="none" stroke="black" stroke-width="1.2" cx="290.14" cy="-458" rx="42.36" ry="42.36"/>
<ellipse fill="none" stroke="black" stroke-width="1.2" cx="290.14" cy="-458" rx="46.35" ry="46.35"/>
<text text-anchor="start" x="268.14" y="-459.6" font-family="Times,serif" font-size="18.00">u[0,1]</text>
<text text-anchor="start" x="279.14" y="-445.2" font-family="Times,serif" font-size="11.00" fill="#8c8c8c">2&#45;,3&#45;</text>
</g>
<!-- 7 -->
<g id="node14" class="node">
<title>7</title>
<ellipse fill="none" stroke="black" stroke-width="1.2" cx="447.89" cy="-748" rx="52.16" ry="52.16"/>
<ellipse fill="none" stroke="black" stroke-width="1.2" cx="447.89" cy="-748" rx="56.15" ry="56.15"/>
<text text-anchor="start" x="418.89" y="-749.6" font-family="Times,serif" font-size="18.00">u[0,1,3]</text>
<text text-anchor="start" x="442.89" y="-735.2" font-family="Times,serif" font-size="11.00" fill="#8c8c8c">2&#45;</text>
</g>
</g>
</svg>
