<?xml version="1.0" encoding="UTF-8" standalone="no"?>
<!DOCTYPE svg PUBLIC "-//W3C//DTD SVG 1.1//EN"
 "http://www.w3.org/Graphics/SVG/1.1/DTD/svg11.dtd">
<!-- Generated by graphviz version 2.43.0 (0)
 -->
<!-- Title: EAD_DFA Pages: 1 -->
<svg width="337pt" height="94pt"
 viewBox="0.00 0.00 336.80 94.00" xmlns="http://www.w3.org/2000/svg" xmlns:xlink="http://www.w3.org/1999/xlink">
<g id="graph0" class="graph" transform="scale(1 1) rotate(0) translate(4 90)">
<title>EAD_DFA</title>
<polygon fill="white" stroke="transparent" points="-4,4 -4,-90 332.8,-90 332.8,4 -4,4"/>
<!-- _start -->
<g id="node1" class="node">
<title>_start</title>
<ellipse fill="black" stroke="black" cx="5.4" cy="-35" rx="5.4" ry="5.4"/>
</g>
<!-- 0 -->
<g id="node2" class="node">
<title>0</title>
<ellipse fill="none" stroke="black" cx="69.8" cy="-35" rx="18" ry="18"/>
<ellipse fill="none" stroke="black" cx="69.8" cy="-35" rx="22" ry="22"/>
<text text-anchor="middle" x="69.8" y="-32.5" font-family="Courier,monospace" font-size="10.00">0</text>
</g>
<!-- _start&#45;&gt;0 -->
<g id="edge1" class="edge">
<title>_start&#45;&gt;0</title>
<path fill="none" stroke="black" d="M10.89,-35C16.59,-35 26.94,-35 37.33,-35"/>
<polygon fill="black" stroke="black" points="37.57,-38.5 47.57,-35 37.57,-31.5 37.57,-38.5"/>
</g>
<!-- 0&#45;&gt;0 -->
<g id="edge2" class="edge">
<title>0&#45;&gt;0</title>
<path fill="none" stroke="black" d="M62.48,-55.99C61.58,-66.09 64.02,-75 69.8,-75 73.5,-75 75.84,-71.34 76.8,-66.06"/>
<polygon fill="black" stroke="black" points="80.3,-66.1 77.12,-55.99 73.3,-65.87 80.3,-66.1"/>
<text text-anchor="middle" x="69.8" y="-78" font-family="Courier,monospace" font-size="10.00">b</text>
</g>
<!-- 1 -->
<g id="node3" class="node">
<title>1</title>
<ellipse fill="none" stroke="black" cx="152.8" cy="-49" rx="18" ry="18"/>
<text text-anchor="middle" x="152.8" y="-46.5" font-family="Courier,monospace" font-size="10.00">1</text>
</g>
<!-- 0&#45;&gt;1 -->
<g id="edge3" class="edge">
<title>0&#45;&gt;1</title>
<path fill="none" stroke="darkred" d="M90.81,-42.21C96.83,-44.09 103.52,-45.9 109.8,-47 114.46,-47.81 119.44,-48.34 124.3,-48.68"/>
<polygon fill="darkred" stroke="darkred" points="124.38,-52.19 134.53,-49.15 124.7,-45.2 124.38,-52.19"/>
<text text-anchor="middle" x="113.3" y="-50" font-family="Courier,monospace" font-size="10.00" fill="darkred">a</text>
</g>
<!-- 1&#45;&gt;0 -->
<g id="edge4" class="edge">
<title>1&#45;&gt;0</title>
<path fill="none" stroke="black" d="M136.56,-40.88C130.57,-38.12 123.53,-35.38 116.8,-34 112.19,-33.05 107.26,-32.6 102.4,-32.45"/>
<polygon fill="black" stroke="black" points="102.01,-28.96 92.05,-32.57 102.09,-35.96 102.01,-28.96"/>
<text text-anchor="middle" x="113.3" y="-37" font-family="Courier,monospace" font-size="10.00">b</text>
</g>
<!-- 3 -->
<g id="node5" class="node">
<title>3</title>
<ellipse fill="none" stroke="black" cx="231.8" cy="-18" rx="18" ry="18"/>
<text text-anchor="middle" x="231.8" y="-15.5" font-family="Courier,monospace" font-size="10.00">3</text>
</g>
<!-- 1&#45;&gt;3 -->
<g id="edge5" class="edge">
<title>1&#45;&gt;3</title>
<path fill="none" stroke="darkred" d="M169.75,-42.58C180.08,-38.42 193.74,-32.92 205.53,-28.18"/>
<polygon fill="darkred" stroke="darkred" points="206.9,-31.4 214.87,-24.41 204.28,-24.9 206.9,-31.4"/>
<text text-anchor="middle" x="192.3" y="-37" font-family="Courier,monospace" font-size="10.00" fill="darkred">a</text>
</g>
<!-- 2 -->
<g id="node4" class="node">
<title>2</title>
<ellipse fill="#e0c4c4" stroke="black" cx="310.8" cy="-18" rx="18" ry="18"/>
<text text-anchor="middle" x="310.8" y="-15.5" font-family="Courier,monospace" font-size="10.00">2</text>
</g>
<!-- 2&#45;&gt;2 -->
<g id="edge6" class="edge">
<title>2&#45;&gt;2</title>
<path fill="none" stroke="black" d="M304.07,-35.04C302.69,-44.86 304.94,-54 310.8,-54 314.46,-54 316.72,-50.43 317.55,-45.35"/>
<polygon fill="black" stroke="black" points="321.05,-45.03 317.53,-35.04 314.05,-45.04 321.05,-45.03"/>
<text text-anchor="middle" x="310.8" y="-57" font-family="Courier,monospace" font-size="10.00">a,b</text>
</g>
<!-- 3&#45;&gt;0 -->
<g id="edge7" class="edge">
<title>3&#45;&gt;0</title>
<path fill="none" stroke="black" d="M214.02,-14.24C194.75,-10.52 162.26,-6.02 134.8,-11 122.82,-13.17 110.16,-17.46 99.3,-21.81"/>
<polygon fill="black" stroke="black" points="97.75,-18.67 89.89,-25.78 100.47,-25.12 97.75,-18.67"/>
<text text-anchor="middle" x="152.8" y="-14" font-family="Courier,monospace" font-size="10.00">b</text>
</g>
<!-- 3&#45;&gt;2 -->
<g id="edge8" class="edge">
<title>3&#45;&gt;2</title>
<path fill="none" stroke="darkred" d="M249.89,-18C259.46,-18 271.62,-18 282.48,-18"/>
<polygon fill="darkred" stroke="darkred" points="282.76,-21.5 292.76,-18 282.76,-14.5 282.76,-21.5"/>
<text text-anchor="middle" x="271.3" y="-21" font-family="Courier,monospace" font-size="10.00" fill="darkred">a</text>
</g>
</g>
</svg>
