<?xml version="1.0" encoding="UTF-8" standalone="no"?>
<!DOCTYPE svg PUBLIC "-//W3C//DTD SVG 1.1//EN"
 "http://www.w3.org/Graphics/SVG/1.1/DTD/svg11.dtd">
<!-- Generated by graphviz version 2.43.0 (0)
 -->
<!-- Title: EAD_DFA Pages: 1 -->
<svg width="496pt" height="191pt"
 viewBox="0.00 0.00 496.30 190.89" xmlns="http://www.w3.org/2000/svg" xmlns:xlink="http://www.w3.org/1999/xlink">
<g id="graph0" class="graph" transform="scale(1 1) rotate(0) translate(4 186.89)">
<title>EAD_DFA</title>
<polygon fill="white" stroke="transparent" points="-4,4 -4,-186.89 492.3,-186.89 492.3,4 -4,4"/>
<!-- _start -->
<g id="node1" class="node">
<title>_start</title>
<ellipse fill="black" stroke="black" cx="5.4" cy="-114.89" rx="5.4" ry="5.4"/>
</g>
<!-- 0 -->
<g id="node2" class="node">
<title>0</title>
<ellipse fill="none" stroke="black" cx="65.8" cy="-114.89" rx="18" ry="18"/>
<text text-anchor="middle" x="65.8" y="-112.39" font-family="Courier,monospace" font-size="10.00">0</text>
</g>
<!-- _start&#45;&gt;0 -->
<g id="edge1" class="edge">
<title>_start&#45;&gt;0</title>
<path fill="none" stroke="black" d="M10.98,-114.89C16.77,-114.89 27.2,-114.89 37.35,-114.89"/>
<polygon fill="black" stroke="black" points="37.62,-118.4 47.62,-114.89 37.62,-111.4 37.62,-118.4"/>
</g>
<!-- 1 -->
<g id="node3" class="node">
<title>1</title>
<ellipse fill="none" stroke="black" cx="144.8" cy="-146.89" rx="18" ry="18"/>
<text text-anchor="middle" x="144.8" y="-144.39" font-family="Courier,monospace" font-size="10.00">1</text>
</g>
<!-- 0&#45;&gt;1 -->
<g id="edge2" class="edge">
<title>0&#45;&gt;1</title>
<path fill="none" stroke="black" d="M82.75,-121.53C93.08,-125.82 106.74,-131.49 118.53,-136.39"/>
<polygon fill="black" stroke="black" points="117.29,-139.67 127.87,-140.27 119.97,-133.2 117.29,-139.67"/>
<text text-anchor="middle" x="105.3" y="-133.89" font-family="Courier,monospace" font-size="10.00">1</text>
</g>
<!-- 2 -->
<g id="node4" class="node">
<title>2</title>
<ellipse fill="none" stroke="black" cx="144.8" cy="-36.89" rx="18" ry="18"/>
<text text-anchor="middle" x="144.8" y="-34.39" font-family="Courier,monospace" font-size="10.00">2</text>
</g>
<!-- 0&#45;&gt;2 -->
<g id="edge3" class="edge">
<title>0&#45;&gt;2</title>
<path fill="none" stroke="darkred" d="M79.17,-102.36C91.3,-90.08 109.96,-71.17 124.13,-56.82"/>
<polygon fill="darkred" stroke="darkred" points="126.92,-58.97 131.46,-49.4 121.94,-54.05 126.92,-58.97"/>
<text text-anchor="middle" x="105.3" y="-80.89" font-family="Courier,monospace" font-size="10.00" fill="darkred">2</text>
</g>
<!-- 3 -->
<g id="node5" class="node">
<title>3</title>
<ellipse fill="none" stroke="black" cx="144.8" cy="-92.89" rx="18" ry="18"/>
<text text-anchor="middle" x="144.8" y="-90.39" font-family="Courier,monospace" font-size="10.00">3</text>
</g>
<!-- 0&#45;&gt;3 -->
<g id="edge4" class="edge">
<title>0&#45;&gt;3</title>
<path fill="none" stroke="darkgreen" d="M83.13,-109.58C89,-107.72 95.68,-105.66 101.8,-103.89 106.7,-102.48 111.95,-101.05 117.01,-99.7"/>
<polygon fill="darkgreen" stroke="darkgreen" points="118.2,-103.01 126.99,-97.1 116.43,-96.24 118.2,-103.01"/>
<text text-anchor="middle" x="105.3" y="-106.89" font-family="Courier,monospace" font-size="10.00" fill="darkgreen">3</text>
</g>
<!-- 5 -->
<g id="node7" class="node">
<title>5</title>
<ellipse fill="#e0c4c4" stroke="black" cx="442.8" cy="-102.89" rx="18" ry="18"/>
<text text-anchor="middle" x="442.8" y="-100.39" font-family="Courier,monospace" font-size="10.00">5</text>
</g>
<!-- 0&#45;&gt;5 -->
<g id="edge5" class="edge">
<title>0&#45;&gt;5</title>
<path fill="none" stroke="darkblue" d="M76.46,-129.56C86.91,-143.95 105.03,-164.99 126.8,-173.89 141.61,-179.96 146.85,-175.13 162.8,-173.89 272.22,-165.43 308.23,-184.15 406.8,-135.89 412.9,-132.91 418.66,-128.48 423.68,-123.84"/>
<polygon fill="darkblue" stroke="darkblue" points="426.36,-126.11 430.9,-116.54 421.38,-121.19 426.36,-126.11"/>
<text text-anchor="middle" x="208.3" y="-174.89" font-family="Courier,monospace" font-size="10.00" fill="darkblue">4,5,6,7,8</text>
</g>
<!-- 4 -->
<g id="node6" class="node">
<title>4</title>
<ellipse fill="none" stroke="black" cx="275.8" cy="-44.89" rx="18" ry="18"/>
<ellipse fill="none" stroke="black" cx="275.8" cy="-44.89" rx="22" ry="22"/>
<text text-anchor="middle" x="275.8" y="-42.39" font-family="Courier,monospace" font-size="10.00">4</text>
</g>
<!-- 1&#45;&gt;4 -->
<g id="edge6" class="edge">
<title>1&#45;&gt;4</title>
<path fill="none" stroke="black" d="M160.89,-138.33C179.41,-127.49 211.35,-107.71 235.8,-86.89 242.09,-81.54 248.39,-75.25 254.05,-69.19"/>
<polygon fill="black" stroke="black" points="256.7,-71.48 260.81,-61.72 251.51,-66.78 256.7,-71.48"/>
<text text-anchor="middle" x="208.3" y="-127.89" font-family="Courier,monospace" font-size="10.00">2,4,6,8</text>
</g>
<!-- 1&#45;&gt;5 -->
<g id="edge7" class="edge">
<title>1&#45;&gt;5</title>
<path fill="none" stroke="darkred" d="M163.09,-145.93C181.24,-144.82 210.58,-142.79 235.8,-139.89 312.17,-131.13 331.91,-131.25 406.8,-113.89 409.71,-113.22 412.73,-112.43 415.71,-111.57"/>
<polygon fill="darkred" stroke="darkred" points="417.02,-114.84 425.56,-108.57 414.98,-108.14 417.02,-114.84"/>
<text text-anchor="middle" x="275.8" y="-139.89" font-family="Courier,monospace" font-size="10.00" fill="darkred">1,3,5,7</text>
</g>
<!-- 2&#45;&gt;4 -->
<g id="edge8" class="edge">
<title>2&#45;&gt;4</title>
<path fill="none" stroke="black" d="M163.1,-36.24C181.25,-35.74 210.6,-35.51 235.8,-37.89 238.38,-38.14 241.04,-38.46 243.7,-38.84"/>
<polygon fill="black" stroke="black" points="243.41,-42.33 253.84,-40.47 244.52,-35.42 243.41,-42.33"/>
<text text-anchor="middle" x="208.3" y="-40.89" font-family="Courier,monospace" font-size="10.00">3,4,7,8</text>
</g>
<!-- 2&#45;&gt;5 -->
<g id="edge9" class="edge">
<title>2&#45;&gt;5</title>
<path fill="none" stroke="darkred" d="M161.28,-29.08C188.71,-16.22 247.67,7.05 297.8,-2.89 349.21,-13.09 366.64,-14.22 406.8,-47.89 416.36,-55.91 424.18,-67.23 429.98,-77.51"/>
<polygon fill="darkred" stroke="darkred" points="426.98,-79.32 434.74,-86.54 433.17,-76.06 426.98,-79.32"/>
<text text-anchor="middle" x="275.8" y="-5.89" font-family="Courier,monospace" font-size="10.00" fill="darkred">1,2,5,6</text>
</g>
<!-- 3&#45;&gt;4 -->
<g id="edge10" class="edge">
<title>3&#45;&gt;4</title>
<path fill="none" stroke="black" d="M159.99,-83.23C166.18,-79.32 173.65,-75 180.8,-71.89 201.3,-62.99 225.57,-56.1 244.31,-51.51"/>
<polygon fill="black" stroke="black" points="245.17,-54.91 254.1,-49.2 243.56,-48.09 245.17,-54.91"/>
<text text-anchor="middle" x="208.3" y="-74.89" font-family="Courier,monospace" font-size="10.00">5,6,7,8</text>
</g>
<!-- 3&#45;&gt;5 -->
<g id="edge11" class="edge">
<title>3&#45;&gt;5</title>
<path fill="none" stroke="darkred" d="M162.99,-93.48C212.24,-95.14 354.16,-99.93 414.32,-101.97"/>
<polygon fill="darkred" stroke="darkred" points="414.45,-105.47 424.56,-102.31 414.68,-98.48 414.45,-105.47"/>
<text text-anchor="middle" x="275.8" y="-100.89" font-family="Courier,monospace" font-size="10.00" fill="darkred">1,2,3,4</text>
</g>
<!-- 4&#45;&gt;5 -->
<g id="edge12" class="edge">
<title>4&#45;&gt;5</title>
<path fill="none" stroke="black" d="M297.87,-47.78C324.27,-51.94 370.47,-61.04 406.8,-77.89 411.38,-80.02 415.99,-82.77 420.29,-85.67"/>
<polygon fill="black" stroke="black" points="418.42,-88.63 428.57,-91.66 422.52,-82.96 418.42,-88.63"/>
<text text-anchor="middle" x="361.3" y="-80.89" font-family="Courier,monospace" font-size="10.00">1,2,3,4,5,6,7,8</text>
</g>
<!-- 5&#45;&gt;5 -->
<g id="edge13" class="edge">
<title>5&#45;&gt;5</title>
<path fill="none" stroke="black" d="M430.09,-116.19C424.66,-127.29 428.89,-138.89 442.8,-138.89 452.36,-138.89 457.35,-133.41 457.77,-126.37"/>
<polygon fill="black" stroke="black" points="461.09,-125.19 455.51,-116.19 454.26,-126.71 461.09,-125.19"/>
<text text-anchor="middle" x="442.8" y="-141.89" font-family="Courier,monospace" font-size="10.00">1,2,3,4,5,6,7,8</text>
</g>
</g>
</svg>
