<?xml version="1.0" encoding="UTF-8" standalone="no"?>
<!DOCTYPE svg PUBLIC "-//W3C//DTD SVG 1.1//EN"
 "http://www.w3.org/Graphics/SVG/1.1/DTD/svg11.dtd">
<!-- Generated by graphviz version 2.43.0 (0)
 -->
<!-- Title: TemplateAutomaton Pages: 1 -->
<svg width="767pt" height="3741pt"
 viewBox="0.00 0.00 767.02 3741.00" xmlns="http://www.w3.org/2000/svg" xmlns:xlink="http://www.w3.org/1999/xlink">
<g id="graph0" class="graph" transform="scale(1 1) rotate(0) translate(4 3737)">
<title>TemplateAutomaton</title>
<polygon fill="white" stroke="transparent" points="-4,4 -4,-3737 763.02,-3737 763.02,4 -4,4"/>
<!-- _rank_1&#45;&gt;_rank_2 -->
<!-- _rank_2&#45;&gt;_rank_3 -->
<!-- _rank_3&#45;&gt;_rank_4 -->
<!-- _label_0&#45;&gt;0 -->
<g id="edge4" class="edge">
<title>_label_0&#45;&gt;0</title>
<path fill="none" stroke="black" stroke-width="1.1" d="M50.81,-2777C73.53,-2777 109.17,-2777 136.16,-2777"/>
<polygon fill="black" stroke="black" stroke-width="1.1" points="136.23,-2779.8 144.23,-2777 136.23,-2774.2 136.23,-2779.8"/>
</g>
<!-- 0&#45;&gt;8 -->
<g id="edge7" class="edge">
<title>0&#45;&gt;8</title>
<path fill="none" stroke="black" d="M177.71,-2747.01C185.34,-2656.74 211.41,-2389.38 257.65,-2317 266.26,-2303.52 279.24,-2292.29 292.38,-2283.41"/>
<polygon fill="black" stroke="black" points="294.04,-2285.67 299.25,-2278.98 291.01,-2280.97 294.04,-2285.67"/>
<text text-anchor="middle" x="262.15" y="-2322.2" font-family="Times,serif" font-style="italic" font-size="16.00">8</text>
</g>
<!-- 0&#45;&gt;14 -->
<g id="edge8" class="edge">
<title>0&#45;&gt;14</title>
<path fill="none" stroke="black" d="M199.17,-2794.03C210.04,-2802.82 222.32,-2814.35 230.65,-2827 251.07,-2857.98 229.76,-2881.53 257.65,-2906 308.55,-2950.66 390.12,-2945.4 446.17,-2934.44"/>
<polygon fill="black" stroke="black" points="446.97,-2937.13 454.24,-2932.79 445.84,-2931.65 446.97,-2937.13"/>
<text text-anchor="middle" x="341.49" y="-2948.2" font-family="Times,serif" font-style="italic" font-size="16.00">7</text>
</g>
<!-- 0&#45;&gt;15 -->
<g id="edge9" class="edge">
<title>0&#45;&gt;15</title>
<path fill="none" stroke="black" d="M199.44,-2793.46C210.51,-2802.2 222.87,-2813.85 230.65,-2827 284.84,-2918.59 210.01,-2992.21 293.65,-3058 335.97,-3091.28 398.78,-3091.11 445.42,-3084.66"/>
<polygon fill="black" stroke="black" points="445.84,-3087.42 453.34,-3083.48 445.02,-3081.88 445.84,-3087.42"/>
<text text-anchor="middle" x="341.49" y="-3093.2" font-family="Times,serif" font-style="italic" font-size="16.00">6</text>
</g>
<!-- 0&#45;&gt;16 -->
<g id="edge10" class="edge">
<title>0&#45;&gt;16</title>
<path fill="none" stroke="black" d="M201.53,-2790.36C244.17,-2810.05 329.79,-2840.85 389.33,-2805 418.63,-2787.36 415.16,-2769.65 425.33,-2737 495.5,-2511.87 506.65,-2228.86 507.89,-2103.66"/>
<polygon fill="black" stroke="black" points="510.69,-2103.67 507.96,-2095.65 505.09,-2103.62 510.69,-2103.67"/>
<text text-anchor="middle" x="341.49" y="-2827.2" font-family="Times,serif" font-style="italic" font-size="16.00">4</text>
</g>
<!-- 0&#45;&gt;17 -->
<g id="edge11" class="edge">
<title>0&#45;&gt;17</title>
<path fill="none" stroke="black" d="M188.84,-2750.53C207.87,-2712.57 242.9,-2640.16 266.65,-2576 281.59,-2535.64 265.56,-2515.61 293.65,-2483 324.2,-2447.54 363.22,-2477.84 389.33,-2439 427.43,-2382.33 408.77,-1892.87 416.33,-1825 418.83,-1802.56 422.21,-1797.36 425.33,-1775 442.03,-1655.56 403.81,-1615.4 452.33,-1505 455.4,-1498.02 459.56,-1491.27 464.24,-1484.97"/>
<polygon fill="black" stroke="black" points="466.73,-1486.33 469.48,-1478.31 462.33,-1482.86 466.73,-1486.33"/>
<text text-anchor="middle" x="341.49" y="-2488.2" font-family="Times,serif" font-style="italic" font-size="16.00">3</text>
</g>
<!-- 0&#45;&gt;18 -->
<g id="edge12" class="edge">
<title>0&#45;&gt;18</title>
<path fill="none" stroke="black" d="M197.68,-2757.8C221.23,-2737.74 259.56,-2705.55 293.65,-2679 335.22,-2646.63 361.18,-2653.54 389.33,-2609 390.76,-2606.74 425.02,-2422.65 425.33,-2420 454.72,-2172.56 395.29,-2102.56 452.33,-1860 458.2,-1835.03 468.88,-1808.84 479.3,-1786.85"/>
<polygon fill="black" stroke="black" points="481.86,-1787.98 482.82,-1779.56 476.82,-1785.55 481.86,-1787.98"/>
<text text-anchor="middle" x="341.49" y="-2684.2" font-family="Times,serif" font-style="italic" font-size="16.00">2</text>
</g>
<!-- 0&#45;&gt;21 -->
<g id="edge13" class="edge">
<title>0&#45;&gt;21</title>
<path fill="none" stroke="black" d="M200.29,-2792.64C211.7,-2801.26 224.12,-2813.05 230.65,-2827 262.57,-2895.18 242.08,-3430.35 257.65,-3504 266.65,-3546.55 257.68,-3570.55 293.65,-3595 406.61,-3671.79 499,-3685.87 600.98,-3595 654.09,-3547.68 680.96,-3065.18 689.45,-2877.82"/>
<polygon fill="black" stroke="black" points="692.26,-2877.78 689.82,-2869.66 686.66,-2877.53 692.26,-2877.78"/>
<text text-anchor="middle" x="420.83" y="-3659.2" font-family="Times,serif" font-style="italic" font-size="16.00">5</text>
</g>
<!-- 0&#45;&gt;22 -->
<g id="edge14" class="edge">
<title>0&#45;&gt;22</title>
<path fill="none" stroke="black" d="M199.86,-2792.85C211.17,-2801.52 223.62,-2813.29 230.65,-2827 287.99,-2938.83 199.97,-3305.23 293.65,-3389 325.35,-3417.35 349.11,-3402.8 389.33,-3389 422.89,-3377.49 423.49,-3360.64 452.33,-3340 501.05,-3305.14 533.31,-3316.84 564.98,-3266 625.57,-3168.76 679.67,-1405.85 690.53,-1030.79"/>
<polygon fill="black" stroke="black" points="693.33,-1030.79 690.76,-1022.72 687.73,-1030.63 693.33,-1030.79"/>
<text text-anchor="middle" x="420.83" y="-3378.2" font-family="Times,serif" font-style="italic" font-size="16.00">1</text>
</g>
<!-- _label_20&#45;&gt;20 -->
<g id="edge5" class="edge">
<title>_label_20&#45;&gt;20</title>
<path fill="none" stroke="black" stroke-width="1.1" d="M535.45,-384.79C553.86,-371.68 579.12,-353.49 600.98,-337 612.05,-328.66 623.75,-319.62 634.95,-310.86"/>
<polygon fill="black" stroke="black" stroke-width="1.1" points="636.91,-312.88 641.48,-305.74 633.46,-308.47 636.91,-312.88"/>
</g>
<!-- 20&#45;&gt;2 -->
<g id="edge68" class="edge">
<title>20&#45;&gt;2</title>
<path fill="none" stroke="black" d="M631.36,-244.07C528.74,-208.95 323.67,-138.77 227.44,-105.84"/>
<polygon fill="black" stroke="black" points="228.34,-103.19 219.87,-103.24 226.53,-108.48 228.34,-103.19"/>
<text text-anchor="middle" x="420.83" y="-178.2" font-family="Times,serif" font-style="italic" font-size="16.00">3</text>
</g>
<!-- 20&#45;&gt;3 -->
<g id="edge69" class="edge">
<title>20&#45;&gt;3</title>
<path fill="none" stroke="black" d="M628.33,-257.7C574.26,-251.75 494.82,-243.45 425.33,-238 358.42,-232.75 281.27,-228.74 230.58,-226.38"/>
<polygon fill="black" stroke="black" points="230.49,-223.58 222.37,-226.01 230.23,-229.17 230.49,-223.58"/>
<text text-anchor="middle" x="420.83" y="-243.2" font-family="Times,serif" font-style="italic" font-size="16.00">2</text>
</g>
<!-- 20&#45;&gt;7 -->
<g id="edge70" class="edge">
<title>20&#45;&gt;7</title>
<path fill="none" stroke="black" d="M629.13,-277.81C578.44,-290.05 507.05,-311.93 452.33,-347 366.13,-402.25 344.73,-425.27 293.65,-514 183.8,-704.85 175.03,-1404 175.02,-1621.19"/>
<polygon fill="black" stroke="black" points="172.22,-1621.32 175.02,-1629.32 177.82,-1621.32 172.22,-1621.32"/>
<text text-anchor="middle" x="420.83" y="-376.2" font-family="Times,serif" font-style="italic" font-size="16.00">1</text>
</g>
<!-- _label_1&#45;&gt;1 -->
<g id="edge6" class="edge">
<title>_label_1&#45;&gt;1</title>
<path fill="none" stroke="black" stroke-width="1.1" d="M55.06,-1825.08C76.85,-1824.33 108.05,-1823.25 132.93,-1822.39"/>
<polygon fill="black" stroke="black" stroke-width="1.1" points="133.21,-1825.19 141.11,-1822.11 133.02,-1819.59 133.21,-1825.19"/>
</g>
<!-- 1&#45;&gt;4 -->
<g id="edge15" class="edge">
<title>1&#45;&gt;4</title>
<path fill="none" stroke="black" d="M153.42,-1847.34C140.64,-1865.08 125.38,-1889.61 118,-1914 88.61,-2011.09 79.5,-2733.14 118,-2827 122.2,-2837.25 128.76,-2846.97 135.94,-2855.61"/>
<polygon fill="black" stroke="black" points="133.88,-2857.51 141.25,-2861.69 138.1,-2853.82 133.88,-2857.51"/>
<text text-anchor="middle" x="86.5" y="-2427.2" font-family="Times,serif" font-style="italic" font-size="16.00">3</text>
</g>
<!-- 1&#45;&gt;5 -->
<g id="edge16" class="edge">
<title>1&#45;&gt;5</title>
<path fill="none" stroke="black" d="M152.72,-1846.66C125.95,-1881.53 85.08,-1946.48 96,-2007 100.97,-2034.54 103.63,-2041.99 118,-2066 123.51,-2075.21 130.42,-2084.34 137.49,-2092.69"/>
<polygon fill="black" stroke="black" points="135.55,-2094.72 142.91,-2098.92 139.77,-2091.04 135.55,-2094.72"/>
<text text-anchor="middle" x="86.5" y="-1994.2" font-family="Times,serif" font-style="italic" font-size="16.00">2</text>
</g>
<!-- 1&#45;&gt;6 -->
<g id="edge17" class="edge">
<title>1&#45;&gt;6</title>
<path fill="none" stroke="black" d="M174.33,-1854.39C174.33,-1874.61 174.33,-1901.09 174.33,-1925.28"/>
<polygon fill="black" stroke="black" points="171.53,-1925.38 174.33,-1933.38 177.13,-1925.38 171.53,-1925.38"/>
<text text-anchor="middle" x="162.33" y="-1890.15" font-family="Times,serif" font-style="italic" font-size="16.00">5</text>
</g>
<!-- 1&#45;&gt;9 -->
<g id="edge18" class="edge">
<title>1&#45;&gt;9</title>
<path fill="none" stroke="black" d="M201.13,-1801.31C226.52,-1781.94 265.79,-1751.99 296.18,-1728.81"/>
<polygon fill="black" stroke="black" points="298.25,-1730.75 302.91,-1723.67 294.85,-1726.3 298.25,-1730.75"/>
<text text-anchor="middle" x="262.15" y="-1763.2" font-family="Times,serif" font-style="italic" font-size="16.00">7</text>
</g>
<!-- 1&#45;&gt;10 -->
<g id="edge19" class="edge">
<title>1&#45;&gt;10</title>
<path fill="none" stroke="black" d="M207.56,-1822.95C229.67,-1824.29 259.57,-1826.1 285.41,-1827.66"/>
<polygon fill="black" stroke="black" points="285.49,-1830.47 293.64,-1828.16 285.83,-1824.88 285.49,-1830.47"/>
<text text-anchor="middle" x="262.15" y="-1832.2" font-family="Times,serif" font-style="italic" font-size="16.00">6</text>
</g>
<!-- 1&#45;&gt;11 -->
<g id="edge20" class="edge">
<title>1&#45;&gt;11</title>
<path fill="none" stroke="black" d="M199.23,-1798.92C209.73,-1788.41 221.68,-1775.26 230.65,-1762 267.76,-1707.16 260.76,-1684.46 293.65,-1627 297.96,-1619.48 302.85,-1611.71 307.8,-1604.24"/>
<polygon fill="black" stroke="black" points="310.21,-1605.67 312.35,-1597.47 305.56,-1602.55 310.21,-1605.67"/>
<text text-anchor="middle" x="262.15" y="-1715.2" font-family="Times,serif" font-style="italic" font-size="16.00">4</text>
</g>
<!-- 1&#45;&gt;19 -->
<g id="edge21" class="edge">
<title>1&#45;&gt;19</title>
<path fill="none" stroke="black" d="M201.15,-1800.81C212.33,-1790.51 224.28,-1776.99 230.65,-1762 295.7,-1608.88 166.38,-1123.14 293.65,-1016 338.46,-978.28 379.99,-983.93 425.33,-1021 432.37,-1026.75 465.9,-1126.59 487.94,-1193.98"/>
<polygon fill="black" stroke="black" points="485.29,-1194.89 490.43,-1201.62 490.61,-1193.15 485.29,-1194.89"/>
<text text-anchor="middle" x="341.49" y="-1021.2" font-family="Times,serif" font-style="italic" font-size="16.00">8</text>
</g>
<!-- 4&#45;&gt;7 -->
<g id="edge22" class="edge">
<title>4&#45;&gt;7</title>
<path fill="none" stroke="black" d="M141.3,-2862.11C132.02,-2852.03 123.07,-2839.96 118,-2827 82.21,-2735.62 97.22,-2042.13 96,-1944 95.02,-1865.18 89.48,-1841.49 118,-1768 122.16,-1757.27 127.97,-1746.57 134.29,-1736.62"/>
<polygon fill="black" stroke="black" points="136.68,-1738.08 138.73,-1729.85 132,-1735 136.68,-1738.08"/>
<text text-anchor="middle" x="86.5" y="-1931.2" font-family="Times,serif" font-style="italic" font-size="16.00">2</text>
</g>
<!-- 5&#45;&gt;7 -->
<g id="edge23" class="edge">
<title>5&#45;&gt;7</title>
<path fill="none" stroke="black" d="M141.45,-2100.61C132.29,-2090.58 123.39,-2078.67 118,-2066 77.58,-1970.96 93.02,-1790.36 96,-1782 102.63,-1763.38 114.59,-1745.76 127.2,-1730.82"/>
<polygon fill="black" stroke="black" points="129.49,-1732.46 132.63,-1724.59 125.26,-1728.78 129.49,-1732.46"/>
<text text-anchor="middle" x="86.5" y="-1787.2" font-family="Times,serif" font-style="italic" font-size="16.00">1</text>
</g>
<!-- 8&#45;&gt;4 -->
<g id="edge24" class="edge">
<title>8&#45;&gt;4</title>
<path fill="none" stroke="black" d="M313.3,-2296.06C305.79,-2307.96 298.4,-2321.56 293.65,-2335 220.17,-2542.84 320.56,-2625.72 230.65,-2827 226.12,-2837.14 219.44,-2846.88 212.27,-2855.57"/>
<polygon fill="black" stroke="black" points="210.09,-2853.81 206.99,-2861.69 214.33,-2857.46 210.09,-2853.81"/>
<text text-anchor="middle" x="262.15" y="-2754.2" font-family="Times,serif" font-style="italic" font-size="16.00">3</text>
</g>
<!-- 8&#45;&gt;5 -->
<g id="edge25" class="edge">
<title>8&#45;&gt;5</title>
<path fill="none" stroke="black" d="M298.93,-2240.15C285.23,-2233.11 270.28,-2224.49 257.65,-2215 240.11,-2201.81 222.88,-2184.83 208.74,-2169.52"/>
<polygon fill="black" stroke="black" points="210.74,-2167.55 203.29,-2163.52 206.6,-2171.32 210.74,-2167.55"/>
<text text-anchor="middle" x="262.15" y="-2226.2" font-family="Times,serif" font-style="italic" font-size="16.00">2</text>
</g>
<!-- 8&#45;&gt;6 -->
<g id="edge26" class="edge">
<title>8&#45;&gt;6</title>
<path fill="none" stroke="black" d="M309.11,-2225.02C291.97,-2204.98 271.47,-2178.44 257.65,-2152 239.1,-2116.49 248.68,-2101.78 230.65,-2066 226.29,-2057.35 220.98,-2048.62 215.39,-2040.32"/>
<polygon fill="black" stroke="black" points="217.49,-2038.44 210.64,-2033.45 212.89,-2041.63 217.49,-2038.44"/>
<text text-anchor="middle" x="262.15" y="-2170.2" font-family="Times,serif" font-style="italic" font-size="16.00">5</text>
</g>
<!-- 8&#45;&gt;9 -->
<g id="edge27" class="edge">
<title>8&#45;&gt;9</title>
<path fill="none" stroke="black" d="M314.31,-2220.8C306.84,-2209.07 299.27,-2195.86 293.65,-2183 277.82,-2146.74 275.81,-2136.23 270.65,-2097 260.96,-2023.24 268.64,-1833.07 293.65,-1763 296.66,-1754.57 301.02,-1746.23 305.9,-1738.44"/>
<polygon fill="black" stroke="black" points="308.44,-1739.67 310.5,-1731.45 303.76,-1736.59 308.44,-1739.67"/>
<text text-anchor="middle" x="262.15" y="-2084.2" font-family="Times,serif" font-style="italic" font-size="16.00">7</text>
</g>
<!-- 8&#45;&gt;10 -->
<g id="edge28" class="edge">
<title>8&#45;&gt;10</title>
<path fill="none" stroke="black" d="M313.64,-2221.56C306.06,-2209.75 298.59,-2196.3 293.65,-2183 268.43,-2115.07 264.01,-2072.21 270.65,-2012 275.79,-1965.38 276.04,-1952.47 293.65,-1909 297.97,-1898.35 303.66,-1887.5 309.61,-1877.4"/>
<polygon fill="black" stroke="black" points="312.01,-1878.84 313.76,-1870.54 307.22,-1875.94 312.01,-1878.84"/>
<text text-anchor="middle" x="262.15" y="-2017.2" font-family="Times,serif" font-style="italic" font-size="16.00">6</text>
</g>
<!-- 8&#45;&gt;11 -->
<g id="edge29" class="edge">
<title>8&#45;&gt;11</title>
<path fill="none" stroke="black" d="M313.94,-2221.45C306.37,-2209.63 298.83,-2196.21 293.65,-2183 273.37,-2131.22 275.78,-2115.38 270.65,-2060 261.76,-1964.05 262.04,-1718.03 293.65,-1627 296.59,-1618.54 300.91,-1610.19 305.77,-1602.4"/>
<polygon fill="black" stroke="black" points="308.31,-1603.62 310.37,-1595.4 303.63,-1600.55 308.31,-1603.62"/>
<text text-anchor="middle" x="262.15" y="-2047.2" font-family="Times,serif" font-style="italic" font-size="16.00">4</text>
</g>
<!-- 8&#45;&gt;19 -->
<g id="edge30" class="edge">
<title>8&#45;&gt;19</title>
<path fill="none" stroke="black" d="M370.47,-2222.2C378.02,-2210.31 385.22,-2196.65 389.33,-2183 416.02,-2094.33 380.35,-1435.33 416.33,-1350 425.2,-1328.97 441.02,-1309.91 457.03,-1294.47"/>
<polygon fill="black" stroke="black" points="459,-1296.46 462.93,-1288.95 455.18,-1292.37 459,-1296.46"/>
<text text-anchor="middle" x="420.83" y="-1355.2" font-family="Times,serif" font-style="italic" font-size="16.00">8</text>
</g>
<!-- 14&#45;&gt;4 -->
<g id="edge31" class="edge">
<title>14&#45;&gt;4</title>
<path fill="none" stroke="black" d="M466.63,-2955.85C445.26,-2973.07 417.7,-2991.66 389.33,-3001 167.24,-3074.12 268.49,-3009.51 257.65,-3004 230.38,-2990.13 210.01,-2962.52 196.35,-2938.06"/>
<polygon fill="black" stroke="black" points="198.76,-2936.64 192.5,-2930.93 193.83,-2939.3 198.76,-2936.64"/>
<text text-anchor="middle" x="341.49" y="-3035.2" font-family="Times,serif" font-style="italic" font-size="16.00">3</text>
</g>
<!-- 14&#45;&gt;5 -->
<g id="edge32" class="edge">
<title>14&#45;&gt;5</title>
<path fill="none" stroke="black" d="M452.31,-2911.47C438.99,-2907.46 425.88,-2901.09 416.33,-2891 380.54,-2853.19 418.12,-2820.39 389.33,-2777 360.2,-2733.1 322.12,-2751.34 293.65,-2707 237.49,-2619.52 195.9,-2307.01 181.16,-2182.12"/>
<polygon fill="black" stroke="black" points="183.9,-2181.43 180.19,-2173.81 178.34,-2182.08 183.9,-2181.43"/>
<text text-anchor="middle" x="341.49" y="-2782.2" font-family="Times,serif" font-style="italic" font-size="16.00">2</text>
</g>
<!-- 14&#45;&gt;6 -->
<g id="edge33" class="edge">
<title>14&#45;&gt;6</title>
<path fill="none" stroke="black" d="M458.89,-2890.43C442.38,-2878.43 425.76,-2862.79 416.33,-2844 382.97,-2777.51 428.93,-2237.98 389.33,-2175 354.05,-2118.89 307.18,-2149.05 257.65,-2105 241.9,-2090.99 242.86,-2083.19 230.65,-2066 225.12,-2058.2 219.22,-2049.99 213.41,-2041.97"/>
<polygon fill="black" stroke="black" points="215.52,-2040.12 208.56,-2035.29 210.99,-2043.41 215.52,-2040.12"/>
<text text-anchor="middle" x="341.49" y="-2180.2" font-family="Times,serif" font-style="italic" font-size="16.00">5</text>
</g>
<!-- 14&#45;&gt;7 -->
<g id="edge34" class="edge">
<title>14&#45;&gt;7</title>
<path fill="none" stroke="black" d="M469.74,-2876.77C462.96,-2867.53 456.68,-2857.38 452.33,-2847 416.99,-2762.65 439.44,-2733.36 425.33,-2643 421.85,-2620.69 418.95,-2615.43 416.33,-2593 403.57,-2483.8 436.82,-2198.16 389.33,-2099 364.64,-2047.43 323.3,-2061.89 293.65,-2013 235.35,-1916.87 276.77,-1870.54 230.65,-1768 225.96,-1757.56 219.96,-1747.01 213.66,-1737.1"/>
<polygon fill="black" stroke="black" points="215.97,-1735.52 209.25,-1730.35 211.28,-1738.58 215.97,-1735.52"/>
<text text-anchor="middle" x="341.49" y="-2104.2" font-family="Times,serif" font-style="italic" font-size="16.00">1</text>
</g>
<!-- 14&#45;&gt;9 -->
<g id="edge35" class="edge">
<title>14&#45;&gt;9</title>
<path fill="none" stroke="black" d="M473.09,-2873.81C464.82,-2861 457.03,-2846.53 452.33,-2832 418.15,-2726.34 432.63,-2443.81 425.33,-2333 421.94,-2281.4 419.87,-2268.59 416.33,-2217 409.42,-2116.17 422.21,-1858.57 389.33,-1763 386.44,-1754.59 382.2,-1746.27 377.44,-1738.48"/>
<polygon fill="black" stroke="black" points="379.62,-1736.7 372.94,-1731.49 374.91,-1739.73 379.62,-1736.7"/>
<text text-anchor="middle" x="420.83" y="-2338.2" font-family="Times,serif" font-style="italic" font-size="16.00">7</text>
</g>
<!-- 14&#45;&gt;10 -->
<g id="edge36" class="edge">
<title>14&#45;&gt;10</title>
<path fill="none" stroke="black" d="M473.36,-2873.72C465.09,-2860.91 457.24,-2846.46 452.33,-2832 405.61,-2694.33 439.77,-2650.67 425.33,-2506 421.91,-2471.72 419.23,-2463.33 416.33,-2429 406.61,-2313.7 423.12,-2019.67 389.33,-1909 385.92,-1897.83 380.57,-1886.61 374.69,-1876.29"/>
<polygon fill="black" stroke="black" points="377.04,-1874.76 370.55,-1869.31 372.22,-1877.62 377.04,-1874.76"/>
<text text-anchor="middle" x="420.83" y="-2511.2" font-family="Times,serif" font-style="italic" font-size="16.00">6</text>
</g>
<!-- 14&#45;&gt;11 -->
<g id="edge37" class="edge">
<title>14&#45;&gt;11</title>
<path fill="none" stroke="black" d="M472.95,-2873.86C464.68,-2861.04 456.93,-2846.56 452.33,-2832 407.14,-2688.85 438.8,-2306.51 425.33,-2157 422.76,-2128.39 419.17,-2121.58 416.33,-2093 406.1,-1989.78 423,-1725.11 389.33,-1627 386.45,-1618.59 382.21,-1610.27 377.45,-1602.48"/>
<polygon fill="black" stroke="black" points="379.63,-1600.7 372.95,-1595.49 374.93,-1603.73 379.63,-1600.7"/>
<text text-anchor="middle" x="420.83" y="-2162.2" font-family="Times,serif" font-style="italic" font-size="16.00">4</text>
</g>
<!-- 14&#45;&gt;19 -->
<g id="edge38" class="edge">
<title>14&#45;&gt;19</title>
<path fill="none" stroke="black" d="M473.12,-2874C464.71,-2861.18 456.86,-2846.67 452.33,-2832 414.23,-2708.62 425.59,-1799.05 430.33,-1670 435.23,-1536.84 417.72,-1499.68 452.33,-1371 457.83,-1350.58 466.93,-1329.43 476.24,-1310.88"/>
<polygon fill="black" stroke="black" points="478.8,-1312.03 479.95,-1303.64 473.81,-1309.48 478.8,-1312.03"/>
<text text-anchor="middle" x="420.83" y="-1675.2" font-family="Times,serif" font-style="italic" font-size="16.00">8</text>
</g>
<!-- 15&#45;&gt;4 -->
<g id="edge39" class="edge">
<title>15&#45;&gt;4</title>
<path fill="none" stroke="black" d="M479.3,-3119.31C470.15,-3135.77 460.32,-3154.44 452.33,-3172 418.79,-3245.72 455.77,-3296.67 389.33,-3343 354.45,-3367.32 327.31,-3368.98 293.65,-3343 230.13,-3293.97 194.12,-3050.76 181.04,-2942.79"/>
<polygon fill="black" stroke="black" points="183.79,-2942.24 180.06,-2934.63 178.23,-2942.91 183.79,-2942.24"/>
<text text-anchor="middle" x="341.49" y="-3366.2" font-family="Times,serif" font-style="italic" font-size="16.00">3</text>
</g>
<!-- 15&#45;&gt;6 -->
<g id="edge40" class="edge">
<title>15&#45;&gt;6</title>
<path fill="none" stroke="black" d="M469.61,-3029.92C449.99,-3006.1 427.82,-2974.46 416.33,-2942 389.5,-2866.16 428.39,-2651.33 389.33,-2581 363.75,-2534.94 324.77,-2553.52 293.65,-2511 264.02,-2470.51 267.72,-2453.15 257.65,-2404 227.4,-2256.37 282.96,-2207.33 230.65,-2066 227.21,-2056.7 222.29,-2047.53 216.78,-2038.96"/>
<polygon fill="black" stroke="black" points="219.03,-2037.3 212.25,-2032.22 214.39,-2040.43 219.03,-2037.3"/>
<text text-anchor="middle" x="341.49" y="-2586.2" font-family="Times,serif" font-style="italic" font-size="16.00">5</text>
</g>
<!-- 15&#45;&gt;9 -->
<g id="edge41" class="edge">
<title>15&#45;&gt;9</title>
<path fill="none" stroke="black" d="M470.95,-3028.6C463.54,-3017.94 456.7,-3006.07 452.33,-2994 423.68,-2914.81 432.72,-2699.89 425.33,-2616 421.96,-2577.72 419.01,-2568.34 416.33,-2530 410.39,-2444.93 416.09,-1843.97 389.33,-1763 386.54,-1754.56 382.36,-1746.22 377.61,-1738.42"/>
<polygon fill="black" stroke="black" points="379.8,-1736.65 373.12,-1731.43 375.09,-1739.67 379.8,-1736.65"/>
<text text-anchor="middle" x="420.83" y="-2621.2" font-family="Times,serif" font-style="italic" font-size="16.00">7</text>
</g>
<!-- 15&#45;&gt;10 -->
<g id="edge42" class="edge">
<title>15&#45;&gt;10</title>
<path fill="none" stroke="black" d="M472.2,-3027.56C464.83,-3017.03 457.69,-3005.49 452.33,-2994 424.99,-2935.39 425.31,-2917.05 416.33,-2853 387.2,-2645.17 448.28,-2110.42 389.33,-1909 386.05,-1897.79 380.76,-1886.55 374.89,-1876.23"/>
<polygon fill="black" stroke="black" points="377.24,-1874.7 370.75,-1869.25 372.42,-1877.56 377.24,-1874.7"/>
<text text-anchor="middle" x="420.83" y="-2919.2" font-family="Times,serif" font-style="italic" font-size="16.00">6</text>
</g>
<!-- 15&#45;&gt;11 -->
<g id="edge43" class="edge">
<title>15&#45;&gt;11</title>
<path fill="none" stroke="black" d="M471.01,-3029.09C463.5,-3018.32 456.6,-3006.28 452.33,-2994 409.05,-2869.39 441.6,-2531.91 425.33,-2401 422.87,-2381.19 418.71,-2376.82 416.33,-2357 397,-2195.82 440.41,-1781.09 389.33,-1627 386.54,-1618.56 382.35,-1610.22 377.6,-1602.43"/>
<polygon fill="black" stroke="black" points="379.79,-1600.65 373.11,-1595.43 375.08,-1603.68 379.79,-1600.65"/>
<text text-anchor="middle" x="420.83" y="-2406.2" font-family="Times,serif" font-style="italic" font-size="16.00">4</text>
</g>
<!-- 15&#45;&gt;13 -->
<g id="edge44" class="edge">
<title>15&#45;&gt;13</title>
<path fill="none" stroke="black" d="M477.42,-3117.9C462.52,-3140.06 443.81,-3166.52 425.33,-3189 412.09,-3205.12 396.46,-3221.85 382.36,-3236.23"/>
<polygon fill="black" stroke="black" points="380.06,-3234.57 376.43,-3242.23 384.04,-3238.51 380.06,-3234.57"/>
<text text-anchor="middle" x="420.83" y="-3204.2" font-family="Times,serif" font-style="italic" font-size="16.00">2</text>
</g>
<!-- 15&#45;&gt;19 -->
<g id="edge45" class="edge">
<title>15&#45;&gt;19</title>
<path fill="none" stroke="black" d="M470.81,-3028.85C463.3,-3018.17 456.46,-3006.24 452.33,-2994 408.43,-2863.62 426.41,-1893.52 430.33,-1756 435.22,-1584.68 409.17,-1536.87 452.33,-1371 457.66,-1350.53 466.72,-1329.38 476.04,-1310.83"/>
<polygon fill="black" stroke="black" points="478.6,-1311.98 479.76,-1303.59 473.61,-1309.42 478.6,-1311.98"/>
<text text-anchor="middle" x="420.83" y="-1761.2" font-family="Times,serif" font-style="italic" font-size="16.00">8</text>
</g>
<!-- 16&#45;&gt;5 -->
<g id="edge46" class="edge">
<title>16&#45;&gt;5</title>
<path fill="none" stroke="black" d="M504.88,-2095.23C496.75,-2248.17 470.68,-2662.93 425.33,-2703 377,-2745.71 437.02,-2458.43 389.33,-2415 357.89,-2386.37 331.69,-2395.98 293.65,-2415 259.83,-2431.91 275.21,-2464.62 257.65,-2451 215.41,-2418.22 191.11,-2263.83 180.97,-2181.7"/>
<polygon fill="black" stroke="black" points="183.71,-2181.1 179.97,-2173.5 178.15,-2181.78 183.71,-2181.1"/>
<text text-anchor="middle" x="341.49" y="-2420.2" font-family="Times,serif" font-style="italic" font-size="16.00">2</text>
</g>
<!-- 16&#45;&gt;6 -->
<g id="edge47" class="edge">
<title>16&#45;&gt;6</title>
<path fill="none" stroke="black" d="M506.47,-2095.33C502.58,-2192.22 486.05,-2374.1 416.33,-2310 363.64,-2261.55 442.03,-2037.45 389.33,-1989 348.79,-1951.72 283.43,-1957.95 235.6,-1969.8"/>
<polygon fill="black" stroke="black" points="234.83,-1967.11 227.78,-1971.83 236.23,-1972.53 234.83,-1967.11"/>
<text text-anchor="middle" x="341.49" y="-1994.2" font-family="Times,serif" font-style="italic" font-size="16.00">5</text>
</g>
<!-- 16&#45;&gt;9 -->
<g id="edge48" class="edge">
<title>16&#45;&gt;9</title>
<path fill="none" stroke="black" d="M454.33,-2023.98C439.85,-2017.38 425.62,-2008.05 416.33,-1995 356.12,-1910.44 425.86,-1860.17 389.33,-1763 386.21,-1754.68 381.84,-1746.4 377.03,-1738.63"/>
<polygon fill="black" stroke="black" points="379.21,-1736.84 372.51,-1731.65 374.51,-1739.88 379.21,-1736.84"/>
<text text-anchor="middle" x="420.83" y="-2011.2" font-family="Times,serif" font-style="italic" font-size="16.00">7</text>
</g>
<!-- 16&#45;&gt;10 -->
<g id="edge49" class="edge">
<title>16&#45;&gt;10</title>
<path fill="none" stroke="black" d="M494.89,-2093.93C479.96,-2147.63 452.59,-2216.87 416.33,-2184 370.84,-2142.76 408.61,-1967.3 389.33,-1909 385.67,-1897.91 380.21,-1886.72 374.3,-1876.41"/>
<polygon fill="black" stroke="black" points="376.65,-1874.88 370.16,-1869.43 371.84,-1877.74 376.65,-1874.88"/>
<text text-anchor="middle" x="420.83" y="-2194.2" font-family="Times,serif" font-style="italic" font-size="16.00">6</text>
</g>
<!-- 16&#45;&gt;11 -->
<g id="edge50" class="edge">
<title>16&#45;&gt;11</title>
<path fill="none" stroke="black" d="M478.74,-1991.25C469.5,-1974.75 459.76,-1955.92 452.33,-1938 430.52,-1885.38 428.41,-1870.66 416.33,-1815 398.43,-1732.51 420.09,-1705.61 389.33,-1627 386.09,-1618.72 381.68,-1610.46 376.84,-1602.7"/>
<polygon fill="black" stroke="black" points="379.01,-1600.9 372.3,-1595.73 374.32,-1603.96 379.01,-1600.9"/>
<text text-anchor="middle" x="420.83" y="-1862.2" font-family="Times,serif" font-style="italic" font-size="16.00">4</text>
</g>
<!-- 16&#45;&gt;12 -->
<g id="edge51" class="edge">
<title>16&#45;&gt;12</title>
<path fill="none" stroke="black" d="M476.71,-1992.27C467.26,-1975.78 457.91,-1956.68 452.33,-1938 408.74,-1791.89 445.34,-1747.15 425.33,-1596 413.88,-1509.5 419.39,-1484.92 389.33,-1403 384.98,-1391.13 379,-1378.97 372.76,-1367.78"/>
<polygon fill="black" stroke="black" points="375.05,-1366.13 368.65,-1360.57 370.18,-1368.91 375.05,-1366.13"/>
<text text-anchor="middle" x="420.83" y="-1601.2" font-family="Times,serif" font-style="italic" font-size="16.00">3</text>
</g>
<!-- 16&#45;&gt;19 -->
<g id="edge52" class="edge">
<title>16&#45;&gt;19</title>
<path fill="none" stroke="black" d="M477.01,-1992.08C467.44,-1975.65 457.99,-1956.64 452.33,-1938 415.75,-1817.43 419.24,-1492.58 452.33,-1371 457.89,-1350.6 467.01,-1329.45 476.32,-1310.9"/>
<polygon fill="black" stroke="black" points="478.87,-1312.05 480.02,-1303.66 473.89,-1309.5 478.87,-1312.05"/>
<text text-anchor="middle" x="420.83" y="-1652.2" font-family="Times,serif" font-style="italic" font-size="16.00">8</text>
</g>
<!-- 17&#45;&gt;5 -->
<g id="edge53" class="edge">
<title>17&#45;&gt;5</title>
<path fill="none" stroke="black" d="M481.38,-1398.04C470.81,-1378.1 459.46,-1353.99 452.33,-1331 439.83,-1290.69 457.23,-1170.64 425.33,-1143 422.31,-1140.38 420.13,-1141.74 416.33,-1143 415.83,-1143.17 293.9,-1234.53 293.65,-1235 261.48,-1295.99 273.96,-1786.43 266.65,-1855 256.56,-1949.6 271.25,-1979.97 230.65,-2066 225.96,-2075.94 219.28,-2085.54 212.18,-2094.14"/>
<polygon fill="black" stroke="black" points="210.05,-2092.33 206.96,-2100.23 214.3,-2095.98 210.05,-2092.33"/>
<text text-anchor="middle" x="341.49" y="-1240.2" font-family="Times,serif" font-style="italic" font-size="16.00">2</text>
</g>
<!-- 17&#45;&gt;6 -->
<g id="edge54" class="edge">
<title>17&#45;&gt;6</title>
<path fill="none" stroke="black" d="M480.94,-1398.48C470.23,-1378.52 458.89,-1354.28 452.33,-1331 434.2,-1266.58 479,-1008.51 416.33,-1032 348.59,-1057.39 326.74,-1074.66 293.65,-1139 218.68,-1284.78 272.74,-1715.56 230.65,-1874 225.22,-1894.47 216.21,-1915.7 207.02,-1934.32"/>
<polygon fill="black" stroke="black" points="204.46,-1933.18 203.36,-1941.59 209.46,-1935.7 204.46,-1933.18"/>
<text text-anchor="middle" x="341.49" y="-1144.2" font-family="Times,serif" font-style="italic" font-size="16.00">5</text>
</g>
<!-- 17&#45;&gt;7 -->
<g id="edge55" class="edge">
<title>17&#45;&gt;7</title>
<path fill="none" stroke="black" d="M480.7,-1398.55C469.94,-1378.6 458.64,-1354.35 452.33,-1331 406.7,-1161.97 466.4,-1108.19 425.33,-938 415.81,-898.52 423.24,-876.36 389.33,-854 353.83,-830.59 332.83,-837.46 293.65,-854 272.52,-862.93 267.37,-870.22 257.65,-891 197.14,-1020.4 180.71,-1455.92 176.6,-1621.44"/>
<polygon fill="black" stroke="black" points="173.8,-1621.52 176.4,-1629.59 179.39,-1621.66 173.8,-1621.52"/>
<text text-anchor="middle" x="341.49" y="-859.2" font-family="Times,serif" font-style="italic" font-size="16.00">1</text>
</g>
<!-- 17&#45;&gt;9 -->
<g id="edge56" class="edge">
<title>17&#45;&gt;9</title>
<path fill="none" stroke="black" d="M462.26,-1418.3C446.15,-1413.07 428.91,-1411.98 416.33,-1423 381.94,-1453.14 405.76,-1584.32 389.33,-1627 386.14,-1635.3 381.74,-1643.56 376.92,-1651.33"/>
<polygon fill="black" stroke="black" points="374.4,-1650.07 372.39,-1658.31 379.09,-1653.12 374.4,-1650.07"/>
<text text-anchor="middle" x="420.83" y="-1428.2" font-family="Times,serif" font-style="italic" font-size="16.00">7</text>
</g>
<!-- 17&#45;&gt;10 -->
<g id="edge57" class="edge">
<title>17&#45;&gt;10</title>
<path fill="none" stroke="black" d="M457.54,-1455.88C441.93,-1462.37 426.23,-1471.96 416.33,-1486 380.7,-1536.55 410.55,-1704.91 389.33,-1763 386.28,-1771.35 381.96,-1779.65 377.16,-1787.42"/>
<polygon fill="black" stroke="black" points="374.64,-1786.17 372.65,-1794.41 379.34,-1789.21 374.64,-1786.17"/>
<text text-anchor="middle" x="420.83" y="-1491.2" font-family="Times,serif" font-style="italic" font-size="16.00">6</text>
</g>
<!-- 17&#45;&gt;11 -->
<g id="edge58" class="edge">
<title>17&#45;&gt;11</title>
<path fill="none" stroke="black" d="M481.85,-1397.89C471.37,-1377.92 459.95,-1353.84 452.33,-1331 431.72,-1269.23 475.44,-1228.58 425.33,-1187 422.26,-1184.45 419.29,-1184.3 416.33,-1187 367.87,-1231.22 409.73,-1418.64 389.33,-1481 385.7,-1492.1 380.26,-1503.29 374.36,-1513.6"/>
<polygon fill="black" stroke="black" points="371.89,-1512.28 370.21,-1520.59 376.7,-1515.14 371.89,-1512.28"/>
<text text-anchor="middle" x="420.83" y="-1192.2" font-family="Times,serif" font-style="italic" font-size="16.00">4</text>
</g>
<!-- 17&#45;&gt;12 -->
<g id="edge59" class="edge">
<title>17&#45;&gt;12</title>
<path fill="none" stroke="black" d="M481.52,-1398C470.97,-1378.05 459.6,-1353.95 452.33,-1331 440.58,-1293.91 454.89,-1183.3 425.33,-1158 396.63,-1133.43 404.67,-1200.47 389.33,-1235 383.74,-1247.6 376.99,-1260.84 370.37,-1273.06"/>
<polygon fill="black" stroke="black" points="367.89,-1271.76 366.51,-1280.13 372.81,-1274.45 367.89,-1271.76"/>
<text text-anchor="middle" x="420.83" y="-1163.2" font-family="Times,serif" font-style="italic" font-size="16.00">3</text>
</g>
<!-- 17&#45;&gt;19 -->
<g id="edge60" class="edge">
<title>17&#45;&gt;19</title>
<path fill="none" stroke="black" d="M508.66,-1390.49C508.66,-1368.47 508.66,-1342.64 508.66,-1319.48"/>
<polygon fill="black" stroke="black" points="511.46,-1319.41 508.66,-1311.41 505.86,-1319.41 511.46,-1319.41"/>
<text text-anchor="middle" x="496.66" y="-1347.2" font-family="Times,serif" font-style="italic" font-size="16.00">8</text>
</g>
<!-- 18&#45;&gt;6 -->
<g id="edge61" class="edge">
<title>18&#45;&gt;6</title>
<path fill="none" stroke="black" d="M479.14,-1690.76C459.32,-1659.18 433.49,-1614.76 416.33,-1573 398.84,-1530.42 425.88,-1500.99 389.33,-1473 355.57,-1447.14 326.21,-1445.64 293.65,-1473 224.6,-1531.03 256.56,-1787.6 230.65,-1874 224.6,-1894.19 215.48,-1915.27 206.38,-1933.84"/>
<polygon fill="black" stroke="black" points="203.83,-1932.69 202.77,-1941.1 208.84,-1935.18 203.83,-1932.69"/>
<text text-anchor="middle" x="341.49" y="-1478.2" font-family="Times,serif" font-style="italic" font-size="16.00">5</text>
</g>
<!-- 18&#45;&gt;9 -->
<g id="edge62" class="edge">
<title>18&#45;&gt;9</title>
<path fill="none" stroke="black" d="M471.75,-1771.17C455.13,-1783.8 434.98,-1792.76 416.33,-1784 405.64,-1778.98 389.17,-1759.76 374.5,-1740.46"/>
<polygon fill="black" stroke="black" points="376.64,-1738.66 369.6,-1733.94 372.16,-1742.02 376.64,-1738.66"/>
<text text-anchor="middle" x="420.83" y="-1792.2" font-family="Times,serif" font-style="italic" font-size="16.00">7</text>
</g>
<!-- 18&#45;&gt;10 -->
<g id="edge63" class="edge">
<title>18&#45;&gt;10</title>
<path fill="none" stroke="black" d="M483.71,-1780.12C472.54,-1803.49 460.04,-1832.64 452.33,-1860 440.29,-1902.74 458.79,-2028.8 425.33,-2058 374.01,-2102.8 413.33,-1972.76 389.33,-1909 385.26,-1898.19 379.7,-1887.19 373.82,-1876.99"/>
<polygon fill="black" stroke="black" points="376.21,-1875.53 369.72,-1870.07 371.39,-1878.38 376.21,-1875.53"/>
<text text-anchor="middle" x="420.83" y="-2070.2" font-family="Times,serif" font-style="italic" font-size="16.00">6</text>
</g>
<!-- 18&#45;&gt;11 -->
<g id="edge64" class="edge">
<title>18&#45;&gt;11</title>
<path fill="none" stroke="black" d="M458.95,-1717.63C443.82,-1710.68 428.05,-1701.28 416.33,-1689 395.59,-1667.25 403.93,-1653.27 389.33,-1627 385.07,-1619.32 380.17,-1611.43 375.17,-1603.86"/>
<polygon fill="black" stroke="black" points="377.36,-1602.09 370.57,-1597.01 372.71,-1605.21 377.36,-1602.09"/>
<text text-anchor="middle" x="420.83" y="-1702.2" font-family="Times,serif" font-style="italic" font-size="16.00">4</text>
</g>
<!-- 18&#45;&gt;12 -->
<g id="edge65" class="edge">
<title>18&#45;&gt;12</title>
<path fill="none" stroke="black" d="M484.34,-1687.5C472.99,-1662.95 460.13,-1631.97 452.33,-1603 427.54,-1510.85 471.18,-1473.69 425.33,-1390 416.83,-1374.48 403.31,-1361.02 389.64,-1350.2"/>
<polygon fill="black" stroke="black" points="391,-1347.72 382.94,-1345.11 387.62,-1352.18 391,-1347.72"/>
<text text-anchor="middle" x="420.83" y="-1395.2" font-family="Times,serif" font-style="italic" font-size="16.00">3</text>
</g>
<!-- 18&#45;&gt;13 -->
<g id="edge66" class="edge">
<title>18&#45;&gt;13</title>
<path fill="none" stroke="black" d="M482.66,-1779.53C471.16,-1802.86 458.68,-1832.16 452.33,-1860 413.78,-2029.1 433.93,-2466.78 425.33,-2640 423.8,-2670.97 398.58,-3167.4 389.33,-3197 385.85,-3208.15 380.47,-3219.36 374.59,-3229.68"/>
<polygon fill="black" stroke="black" points="372.12,-3228.35 370.45,-3236.66 376.93,-3231.21 372.12,-3228.35"/>
<text text-anchor="middle" x="420.83" y="-2802.2" font-family="Times,serif" font-style="italic" font-size="16.00">2</text>
</g>
<!-- 18&#45;&gt;19 -->
<g id="edge67" class="edge">
<title>18&#45;&gt;19</title>
<path fill="none" stroke="black" d="M469.07,-1699.49C453.88,-1683.69 438.3,-1663.65 430.33,-1642 409.47,-1585.3 436.25,-1429.24 452.33,-1371 457.96,-1350.62 467.1,-1329.48 476.4,-1310.92"/>
<polygon fill="black" stroke="black" points="478.96,-1312.08 480.11,-1303.68 473.97,-1309.53 478.96,-1312.08"/>
<text text-anchor="middle" x="420.83" y="-1629.2" font-family="Times,serif" font-style="italic" font-size="16.00">8</text>
</g>
<!-- 21&#45;&gt;4 -->
<g id="edge71" class="edge">
<title>21&#45;&gt;4</title>
<path fill="none" stroke="black" d="M690.19,-2869.61C683.42,-3039.96 660.2,-3492.6 600.98,-3629 591.19,-3651.55 586.9,-3659.86 564.98,-3671 457.2,-3725.8 375.09,-3740.39 293.65,-3651 198.72,-3546.79 179.89,-3097.52 176.21,-2943.25"/>
<polygon fill="black" stroke="black" points="179,-2942.75 176.01,-2934.82 173.4,-2942.88 179,-2942.75"/>
<text text-anchor="middle" x="420.83" y="-3720.2" font-family="Times,serif" font-style="italic" font-size="16.00">3</text>
</g>
<!-- 21&#45;&gt;6 -->
<g id="edge72" class="edge">
<title>21&#45;&gt;6</title>
<path fill="none" stroke="black" d="M689.89,-2869.65C682.95,-2978.96 657.59,-3202.1 564.98,-3363 518.64,-3443.53 502.3,-3545.26 416.33,-3510 345.48,-3480.94 324.88,-3458.93 293.65,-3389 233.65,-3254.62 279.51,-2204.82 230.65,-2066 227.32,-2056.53 222.39,-2047.21 216.82,-2038.53"/>
<polygon fill="black" stroke="black" points="219.03,-2036.8 212.24,-2031.72 214.38,-2039.92 219.03,-2036.8"/>
<text text-anchor="middle" x="420.83" y="-3517.2" font-family="Times,serif" font-style="italic" font-size="16.00">5</text>
</g>
<!-- 21&#45;&gt;7 -->
<g id="edge73" class="edge">
<title>21&#45;&gt;7</title>
<path fill="none" stroke="black" d="M692.11,-2738.42C689.68,-2423.81 672.99,-1078.26 564.98,-929 512.32,-856.22 476.17,-851.99 389.33,-829 330.68,-813.47 283.64,-810.18 257.65,-865 194.22,-998.8 179.55,-1451.93 176.25,-1621.36"/>
<polygon fill="black" stroke="black" points="173.45,-1621.41 176.1,-1629.46 179.05,-1621.51 173.45,-1621.41"/>
<text text-anchor="middle" x="420.83" y="-844.2" font-family="Times,serif" font-style="italic" font-size="16.00">1</text>
</g>
<!-- 21&#45;&gt;9 -->
<g id="edge74" class="edge">
<title>21&#45;&gt;9</title>
<path fill="none" stroke="black" d="M688.62,-2738.61C677.26,-2562.52 640.04,-2082.45 564.98,-1945 522.92,-1867.97 470.53,-1884.03 416.33,-1815 400.25,-1794.52 402.75,-1785.32 389.33,-1763 384.87,-1755.57 379.9,-1747.85 374.91,-1740.4"/>
<polygon fill="black" stroke="black" points="377.14,-1738.7 370.34,-1733.65 372.5,-1741.84 377.14,-1738.7"/>
<text text-anchor="middle" x="508.66" y="-1950.2" font-family="Times,serif" font-style="italic" font-size="16.00">7</text>
</g>
<!-- 21&#45;&gt;10 -->
<g id="edge75" class="edge">
<title>21&#45;&gt;10</title>
<path fill="none" stroke="black" d="M628.46,-2812.02C556.23,-2819.46 445.08,-2825.56 416.33,-2797 382.97,-2763.86 398.77,-1997.07 389.33,-1951 384.5,-1927.39 375.43,-1902.39 366.56,-1881.36"/>
<polygon fill="black" stroke="black" points="369.04,-1880.04 363.3,-1873.8 363.89,-1882.26 369.04,-1880.04"/>
<text text-anchor="middle" x="508.66" y="-2824.2" font-family="Times,serif" font-style="italic" font-size="16.00">6</text>
</g>
<!-- 21&#45;&gt;11 -->
<g id="edge76" class="edge">
<title>21&#45;&gt;11</title>
<path fill="none" stroke="black" d="M690.44,-2738.49C682.86,-2523.69 652.38,-1843.08 564.98,-1644 534.39,-1574.3 485.42,-1583.55 452.33,-1515 423.45,-1455.18 476.37,-1410.52 425.33,-1368 378.28,-1328.8 415.41,-1445.59 389.33,-1501 386.66,-1506.68 383.32,-1512.29 379.65,-1517.66"/>
<polygon fill="black" stroke="black" points="377.27,-1516.18 374.87,-1524.3 381.82,-1519.45 377.27,-1516.18"/>
<text text-anchor="middle" x="508.66" y="-1649.2" font-family="Times,serif" font-style="italic" font-size="16.00">4</text>
</g>
<!-- 21&#45;&gt;13 -->
<g id="edge77" class="edge">
<title>21&#45;&gt;13</title>
<path fill="none" stroke="black" d="M690.98,-2869.57C685.35,-2964.75 661.55,-3141.62 564.98,-3250 441.83,-3388.22 476.91,-3320.92 416.33,-3308 408.2,-3306.26 399.87,-3303.56 391.88,-3300.44"/>
<polygon fill="black" stroke="black" points="392.48,-3297.66 384.02,-3297.19 390.34,-3302.84 392.48,-3297.66"/>
<text text-anchor="middle" x="508.66" y="-3340.2" font-family="Times,serif" font-style="italic" font-size="16.00">2</text>
</g>
<!-- 21&#45;&gt;19 -->
<g id="edge78" class="edge">
<title>21&#45;&gt;19</title>
<path fill="none" stroke="black" d="M691.43,-2738.43C687.55,-2549.29 670.56,-1986.8 600.98,-1526 590.43,-1456.07 588.34,-1437.75 564.98,-1371 558.02,-1351.11 548.67,-1330.1 539.63,-1311.51"/>
<polygon fill="black" stroke="black" points="542.1,-1310.19 536.05,-1304.24 537.07,-1312.66 542.1,-1310.19"/>
<text text-anchor="middle" x="596.48" y="-1531.2" font-family="Times,serif" font-style="italic" font-size="16.00">8</text>
</g>
<!-- 22&#45;&gt;6 -->
<g id="edge79" class="edge">
<title>22&#45;&gt;6</title>
<path fill="none" stroke="black" d="M673.85,-902.34C632.29,-780.46 527,-519.45 416.33,-622 358.46,-675.62 430.64,-908.78 389.33,-976 363.3,-1018.37 322,-993.14 293.65,-1034 244.66,-1104.62 267.46,-1138.61 257.65,-1224 241.15,-1367.62 265.48,-1733.69 230.65,-1874 225.55,-1894.55 216.63,-1915.81 207.42,-1934.42"/>
<polygon fill="black" stroke="black" points="204.86,-1933.28 203.75,-1941.69 209.85,-1935.81 204.86,-1933.28"/>
<text text-anchor="middle" x="420.83" y="-627.2" font-family="Times,serif" font-style="italic" font-size="16.00">5</text>
</g>
<!-- 22&#45;&gt;7 -->
<g id="edge80" class="edge">
<title>22&#45;&gt;7</title>
<path fill="none" stroke="black" d="M687.53,-899.54C677.83,-796.61 652.68,-596.17 600.98,-551 480.53,-445.74 333.74,-518.29 257.65,-659 211.97,-743.47 185,-1408.96 177.49,-1621.2"/>
<polygon fill="black" stroke="black" points="174.68,-1621.36 177.2,-1629.46 180.28,-1621.56 174.68,-1621.36"/>
<text text-anchor="middle" x="420.83" y="-516.2" font-family="Times,serif" font-style="italic" font-size="16.00">1</text>
</g>
<!-- 22&#45;&gt;9 -->
<g id="edge81" class="edge">
<title>22&#45;&gt;9</title>
<path fill="none" stroke="black" d="M633.72,-946.24C570.38,-934.25 471.3,-927.52 416.33,-985 366.99,-1036.6 411.97,-1559.29 389.33,-1627 386.51,-1635.43 382.31,-1643.77 377.56,-1651.56"/>
<polygon fill="black" stroke="black" points="375.04,-1650.31 373.07,-1658.55 379.75,-1653.34 375.04,-1650.31"/>
<text text-anchor="middle" x="508.66" y="-963.2" font-family="Times,serif" font-style="italic" font-size="16.00">7</text>
</g>
<!-- 22&#45;&gt;10 -->
<g id="edge82" class="edge">
<title>22&#45;&gt;10</title>
<path fill="none" stroke="black" d="M635.08,-980.52C569.22,-1006.31 464.2,-1058.58 416.33,-1143 382.32,-1202.98 411.24,-1697.62 389.33,-1763 386.51,-1771.43 382.3,-1779.77 377.55,-1787.56"/>
<polygon fill="black" stroke="black" points="375.03,-1786.31 373.06,-1794.55 379.74,-1789.33 375.03,-1786.31"/>
<text text-anchor="middle" x="508.66" y="-1098.2" font-family="Times,serif" font-style="italic" font-size="16.00">6</text>
</g>
<!-- 22&#45;&gt;11 -->
<g id="edge83" class="edge">
<title>22&#45;&gt;11</title>
<path fill="none" stroke="black" d="M655.16,-912.8C598.21,-844.83 488.65,-736.44 416.33,-806 360.64,-859.57 416.49,-1428.65 389.33,-1501 387.09,-1506.96 383.98,-1512.78 380.42,-1518.28"/>
<polygon fill="black" stroke="black" points="377.97,-1516.9 375.7,-1525.07 382.57,-1520.1 377.97,-1516.9"/>
<text text-anchor="middle" x="508.66" y="-827.2" font-family="Times,serif" font-style="italic" font-size="16.00">4</text>
</g>
<!-- 22&#45;&gt;12 -->
<g id="edge84" class="edge">
<title>22&#45;&gt;12</title>
<path fill="none" stroke="black" d="M673.66,-902.6C657.95,-858.55 633,-797.76 600.98,-750 563.08,-693.44 513.54,-683.18 452.33,-713 347.3,-764.18 421.36,-1122.63 389.33,-1235 385.51,-1248.39 379.34,-1262.02 372.72,-1274.36"/>
<polygon fill="black" stroke="black" points="370.21,-1273.12 368.78,-1281.47 375.1,-1275.83 370.21,-1273.12"/>
<text text-anchor="middle" x="508.66" y="-718.2" font-family="Times,serif" font-style="italic" font-size="16.00">3</text>
</g>
<!-- 22&#45;&gt;13 -->
<g id="edge85" class="edge">
<title>22&#45;&gt;13</title>
<path fill="none" stroke="black" d="M690.56,-1022.59C679.43,-1368.19 622.36,-3054.15 564.98,-3147 527.22,-3208.12 448.77,-3243.02 395.87,-3260.49"/>
<polygon fill="black" stroke="black" points="394.69,-3257.93 387.93,-3263.04 396.41,-3263.26 394.69,-3257.93"/>
<text text-anchor="middle" x="508.66" y="-3243.2" font-family="Times,serif" font-style="italic" font-size="16.00">2</text>
</g>
<!-- 22&#45;&gt;19 -->
<g id="edge86" class="edge">
<title>22&#45;&gt;19</title>
<path fill="none" stroke="black" d="M660.19,-1012.95C627.44,-1065.62 576.96,-1146.79 543.62,-1200.39"/>
<polygon fill="black" stroke="black" points="541.09,-1199.16 539.24,-1207.44 545.84,-1202.12 541.09,-1199.16"/>
<text text-anchor="middle" x="596.48" y="-1122.2" font-family="Times,serif" font-style="italic" font-size="16.00">8</text>
</g>
<!-- _rank_1 -->
<!-- _rank_2 -->
<!-- _rank_3 -->
<!-- _rank_4 -->
<!-- _label_0 -->
<g id="node5" class="node">
<title>_label_0</title>
<polygon fill="none" stroke="black" points="7.5,-2779 7.5,-2809 47.5,-2809 47.5,-2779 7.5,-2779"/>
<text text-anchor="start" x="12.5" y="-2789.6" font-family="Times,serif" font-size="18.00">SFF</text>
<polygon fill="none" stroke="black" points="5.5,-2777 5.5,-2811 49.5,-2811 49.5,-2777 5.5,-2777"/>
<polygon fill="none" stroke="black" points="7.5,-2744 7.5,-2774 47.5,-2774 47.5,-2744 7.5,-2744"/>
<text text-anchor="start" x="12.5" y="-2754.6" font-family="Times,serif" font-size="18.00">SFP</text>
<polygon fill="none" stroke="black" stroke-dasharray="5,2" points="5.5,-2742 5.5,-2776 49.5,-2776 49.5,-2742 5.5,-2742"/>
</g>
<!-- 0 -->
<g id="node6" class="node">
<title>0</title>
<ellipse fill="none" stroke="black" cx="174.33" cy="-2777" rx="30.04" ry="30.04"/>
<text text-anchor="middle" x="174.33" y="-2772.6" font-family="Times,serif" font-size="18.00">u[5]</text>
</g>
<!-- _label_20 -->
<g id="node7" class="node">
<title>_label_20</title>
<polygon fill="none" stroke="black" points="485.66,-405 485.66,-435 532.66,-435 532.66,-405 485.66,-405"/>
<text text-anchor="start" x="494.16" y="-415.6" font-family="Times,serif" font-size="18.00">SFS</text>
<polygon fill="none" stroke="black" points="483.66,-403 483.66,-437 534.66,-437 534.66,-403 483.66,-403"/>
<polygon fill="none" stroke="black" points="485.66,-370 485.66,-400 532.66,-400 532.66,-370 485.66,-370"/>
<text text-anchor="start" x="490.66" y="-380.6" font-family="Times,serif" font-size="18.00">SFW</text>
<polygon fill="none" stroke="black" stroke-dasharray="5,2" points="483.66,-368 483.66,-402 534.66,-402 534.66,-368 483.66,-368"/>
</g>
<!-- 20 -->
<g id="node8" class="node">
<title>20</title>
<ellipse fill="none" stroke="black" stroke-width="1.2" stroke-dasharray="5,2" cx="693.5" cy="-265" rx="61.54" ry="61.54"/>
<ellipse fill="none" stroke="black" stroke-width="1.2" stroke-dasharray="5,2" cx="693.5" cy="-265" rx="65.54" ry="65.54"/>
<text text-anchor="start" x="658.5" y="-266.6" font-family="Times,serif" font-size="18.00">u[0,1,2,3]</text>
<text text-anchor="start" x="689" y="-252.2" font-family="Times,serif" font-size="11.00" fill="#8c8c8c">5&#45;</text>
</g>
<!-- _label_1 -->
<g id="node9" class="node">
<title>_label_1</title>
<polygon fill="none" stroke="black" points="3.5,-1828 3.5,-1858 52.5,-1858 52.5,-1828 3.5,-1828"/>
<text text-anchor="start" x="11.5" y="-1838.6" font-family="Times,serif" font-size="18.00">SAS</text>
<polygon fill="none" stroke="black" points="1.5,-1826 1.5,-1860 54.5,-1860 54.5,-1826 1.5,-1826"/>
<polygon fill="none" stroke="black" points="3.5,-1793 3.5,-1823 52.5,-1823 52.5,-1793 3.5,-1793"/>
<text text-anchor="start" x="8.5" y="-1803.6" font-family="Times,serif" font-size="18.00">SAW</text>
<polygon fill="none" stroke="black" stroke-dasharray="5,2" points="1.5,-1791 1.5,-1825 54.5,-1825 54.5,-1791 1.5,-1791"/>
</g>
<!-- 1 -->
<g id="node10" class="node">
<title>1</title>
<ellipse fill="none" stroke="black" cx="174.33" cy="-1821" rx="33.47" ry="33.47"/>
<text text-anchor="start" x="159.33" y="-1822.6" font-family="Times,serif" font-size="18.00">u[4]</text>
<text text-anchor="start" x="169.83" y="-1808.2" font-family="Times,serif" font-size="11.00" fill="#8c8c8c">5&#45;</text>
</g>
<!-- 2 -->
<g id="node11" class="node">
<title>2</title>
<ellipse fill="none" stroke="black" stroke-width="1.2" stroke-dasharray="5,2" cx="174.33" cy="-88" rx="43.7" ry="43.7"/>
<ellipse fill="none" stroke="black" stroke-width="1.2" stroke-dasharray="5,2" cx="174.33" cy="-88" rx="47.68" ry="47.68"/>
<text text-anchor="start" x="158.83" y="-89.6" font-family="Times,serif" font-size="18.00">u[0]</text>
<text text-anchor="start" x="151.33" y="-75.2" font-family="Times,serif" font-size="11.00" fill="#8c8c8c">1&#45;,3&#45;,4&#45;,5&#45;</text>
</g>
<!-- 3 -->
<g id="node12" class="node">
<title>3</title>
<ellipse fill="none" stroke="black" stroke-width="1.2" stroke-dasharray="5,2" cx="174.33" cy="-224" rx="43.7" ry="43.7"/>
<ellipse fill="none" stroke="black" stroke-width="1.2" stroke-dasharray="5,2" cx="174.33" cy="-224" rx="47.68" ry="47.68"/>
<text text-anchor="start" x="158.83" y="-225.6" font-family="Times,serif" font-size="18.00">u[0]</text>
<text text-anchor="start" x="151.33" y="-211.2" font-family="Times,serif" font-size="11.00" fill="#8c8c8c">2&#45;,3&#45;,4&#45;,5&#45;</text>
</g>
<!-- 4 -->
<g id="node13" class="node">
<title>4</title>
<ellipse fill="none" stroke="black" cx="174.33" cy="-2891" rx="43.68" ry="43.68"/>
<text text-anchor="start" x="158.83" y="-2892.6" font-family="Times,serif" font-size="18.00">u[2]</text>
<text text-anchor="start" x="151.33" y="-2878.2" font-family="Times,serif" font-size="11.00" fill="#8c8c8c">1&#45;,3&#45;,4&#45;,5&#45;</text>
</g>
<!-- 5 -->
<g id="node14" class="node">
<title>5</title>
<ellipse fill="none" stroke="black" cx="174.33" cy="-2130" rx="43.68" ry="43.68"/>
<text text-anchor="start" x="158.83" y="-2131.6" font-family="Times,serif" font-size="18.00">u[1]</text>
<text text-anchor="start" x="151.33" y="-2117.2" font-family="Times,serif" font-size="11.00" fill="#8c8c8c">2&#45;,3&#45;,4&#45;,5&#45;</text>
</g>
<!-- 6 -->
<g id="node15" class="node">
<title>6</title>
<ellipse fill="none" stroke="black" stroke-width="1.2" cx="174.33" cy="-1990" rx="52.16" ry="52.16"/>
<ellipse fill="none" stroke="black" stroke-width="1.2" cx="174.33" cy="-1990" rx="56.15" ry="56.15"/>
<text text-anchor="start" x="158.83" y="-1991.6" font-family="Times,serif" font-size="18.00">u[3]</text>
<text text-anchor="start" x="145.33" y="-1977.2" font-family="Times,serif" font-size="11.00" fill="#8c8c8c">0&#45;,1&#45;,2&#45;,4&#45;,5&#45;</text>
</g>
<!-- 7 -->
<g id="node16" class="node">
<title>7</title>
<ellipse fill="none" stroke="black" stroke-width="1.2" cx="174.33" cy="-1686" rx="52.16" ry="52.16"/>
<ellipse fill="none" stroke="black" stroke-width="1.2" cx="174.33" cy="-1686" rx="56.15" ry="56.15"/>
<text text-anchor="start" x="158.83" y="-1687.6" font-family="Times,serif" font-size="18.00">u[0]</text>
<text text-anchor="start" x="145.33" y="-1673.2" font-family="Times,serif" font-size="11.00" fill="#8c8c8c">1&#45;,2&#45;,3&#45;,4&#45;,5&#45;</text>
</g>
<!-- 8 -->
<g id="node17" class="node">
<title>8</title>
<ellipse fill="none" stroke="black" stroke-width="1.2" stroke-dasharray="5,2" cx="341.49" cy="-2259" rx="42.36" ry="42.36"/>
<ellipse fill="none" stroke="black" stroke-width="1.2" stroke-dasharray="5,2" cx="341.49" cy="-2259" rx="46.35" ry="46.35"/>
<text text-anchor="start" x="319.49" y="-2260.6" font-family="Times,serif" font-size="18.00">u[0,4]</text>
<text text-anchor="start" x="336.49" y="-2246.2" font-family="Times,serif" font-size="11.00" fill="#8c8c8c">5&#45;</text>
</g>
<!-- 9 -->
<g id="node18" class="node">
<title>9</title>
<ellipse fill="none" stroke="black" stroke-width="1.2" cx="341.49" cy="-1695" rx="43.7" ry="43.7"/>
<ellipse fill="none" stroke="black" stroke-width="1.2" cx="341.49" cy="-1695" rx="47.68" ry="47.68"/>
<text text-anchor="start" x="319.49" y="-1696.6" font-family="Times,serif" font-size="18.00">u[2,3]</text>
<text text-anchor="start" x="318.49" y="-1682.2" font-family="Times,serif" font-size="11.00" fill="#8c8c8c">0&#45;,1&#45;,4&#45;,5&#45;</text>
</g>
<!-- 10 -->
<g id="node19" class="node">
<title>10</title>
<ellipse fill="none" stroke="black" stroke-width="1.2" cx="341.49" cy="-1831" rx="43.7" ry="43.7"/>
<ellipse fill="none" stroke="black" stroke-width="1.2" cx="341.49" cy="-1831" rx="47.68" ry="47.68"/>
<text text-anchor="start" x="319.49" y="-1832.6" font-family="Times,serif" font-size="18.00">u[1,3]</text>
<text text-anchor="start" x="318.49" y="-1818.2" font-family="Times,serif" font-size="11.00" fill="#8c8c8c">0&#45;,2&#45;,4&#45;,5&#45;</text>
</g>
<!-- 11 -->
<g id="node20" class="node">
<title>11</title>
<ellipse fill="none" stroke="black" stroke-width="1.2" cx="341.49" cy="-1559" rx="43.7" ry="43.7"/>
<ellipse fill="none" stroke="black" stroke-width="1.2" cx="341.49" cy="-1559" rx="47.68" ry="47.68"/>
<text text-anchor="start" x="319.49" y="-1560.6" font-family="Times,serif" font-size="18.00">u[1,2]</text>
<text text-anchor="start" x="318.49" y="-1546.2" font-family="Times,serif" font-size="11.00" fill="#8c8c8c">0&#45;,3&#45;,4&#45;,5&#45;</text>
</g>
<!-- 12 -->
<g id="node21" class="node">
<title>12</title>
<ellipse fill="none" stroke="black" stroke-width="1.2" cx="341.49" cy="-1321" rx="43.7" ry="43.7"/>
<ellipse fill="none" stroke="black" stroke-width="1.2" cx="341.49" cy="-1321" rx="47.68" ry="47.68"/>
<text text-anchor="start" x="319.49" y="-1322.6" font-family="Times,serif" font-size="18.00">u[0,2]</text>
<text text-anchor="start" x="318.49" y="-1308.2" font-family="Times,serif" font-size="11.00" fill="#8c8c8c">1&#45;,3&#45;,4&#45;,5&#45;</text>
</g>
<!-- 13 -->
<g id="node22" class="node">
<title>13</title>
<ellipse fill="none" stroke="black" stroke-width="1.2" cx="341.49" cy="-3275" rx="43.7" ry="43.7"/>
<ellipse fill="none" stroke="black" stroke-width="1.2" cx="341.49" cy="-3275" rx="47.68" ry="47.68"/>
<text text-anchor="start" x="319.49" y="-3276.6" font-family="Times,serif" font-size="18.00">u[0,1]</text>
<text text-anchor="start" x="318.49" y="-3262.2" font-family="Times,serif" font-size="11.00" fill="#8c8c8c">2&#45;,3&#45;,4&#45;,5&#45;</text>
</g>
<!-- 14 -->
<g id="node23" class="node">
<title>14</title>
<ellipse fill="none" stroke="black" stroke-width="1.2" stroke-dasharray="5,2" cx="508.66" cy="-2918" rx="52.16" ry="52.16"/>
<ellipse fill="none" stroke="black" stroke-width="1.2" stroke-dasharray="5,2" cx="508.66" cy="-2918" rx="56.15" ry="56.15"/>
<text text-anchor="start" x="479.66" y="-2919.6" font-family="Times,serif" font-size="18.00">u[0,1,4]</text>
<text text-anchor="start" x="503.66" y="-2905.2" font-family="Times,serif" font-size="11.00" fill="#8c8c8c">5&#45;</text>
</g>
<!-- 15 -->
<g id="node24" class="node">
<title>15</title>
<ellipse fill="none" stroke="black" stroke-width="1.2" stroke-dasharray="5,2" cx="508.66" cy="-3071" rx="52.16" ry="52.16"/>
<ellipse fill="none" stroke="black" stroke-width="1.2" stroke-dasharray="5,2" cx="508.66" cy="-3071" rx="56.15" ry="56.15"/>
<text text-anchor="start" x="479.66" y="-3072.6" font-family="Times,serif" font-size="18.00">u[0,2,4]</text>
<text text-anchor="start" x="503.66" y="-3058.2" font-family="Times,serif" font-size="11.00" fill="#8c8c8c">5&#45;</text>
</g>
<!-- 16 -->
<g id="node25" class="node">
<title>16</title>
<ellipse fill="none" stroke="black" stroke-width="1.2" stroke-dasharray="5,2" cx="508.66" cy="-2039" rx="52.16" ry="52.16"/>
<ellipse fill="none" stroke="black" stroke-width="1.2" stroke-dasharray="5,2" cx="508.66" cy="-2039" rx="56.15" ry="56.15"/>
<text text-anchor="start" x="479.66" y="-2040.6" font-family="Times,serif" font-size="18.00">u[0,3,4]</text>
<text text-anchor="start" x="503.66" y="-2026.2" font-family="Times,serif" font-size="11.00" fill="#8c8c8c">5&#45;</text>
</g>
<!-- 17 -->
<g id="node26" class="node">
<title>17</title>
<ellipse fill="none" stroke="black" cx="508.66" cy="-1443" rx="52.15" ry="52.15"/>
<text text-anchor="start" x="479.66" y="-1444.6" font-family="Times,serif" font-size="18.00">u[1,3,4]</text>
<text text-anchor="start" x="503.66" y="-1430.2" font-family="Times,serif" font-size="11.00" fill="#8c8c8c">5&#45;</text>
</g>
<!-- 18 -->
<g id="node27" class="node">
<title>18</title>
<ellipse fill="none" stroke="black" cx="508.66" cy="-1734" rx="52.15" ry="52.15"/>
<text text-anchor="start" x="479.66" y="-1735.6" font-family="Times,serif" font-size="18.00">u[2,3,4]</text>
<text text-anchor="start" x="503.66" y="-1721.2" font-family="Times,serif" font-size="11.00" fill="#8c8c8c">5&#45;</text>
</g>
<!-- 19 -->
<g id="node28" class="node">
<title>19</title>
<ellipse fill="none" stroke="black" stroke-width="1.2" cx="508.66" cy="-1255" rx="52.16" ry="52.16"/>
<ellipse fill="none" stroke="black" stroke-width="1.2" cx="508.66" cy="-1255" rx="56.15" ry="56.15"/>
<text text-anchor="start" x="479.66" y="-1256.6" font-family="Times,serif" font-size="18.00">u[1,2,3]</text>
<text text-anchor="start" x="491.66" y="-1242.2" font-family="Times,serif" font-size="11.00" fill="#8c8c8c">0&#45;,4&#45;,5&#45;</text>
</g>
<!-- 21 -->
<g id="node29" class="node">
<title>21</title>
<ellipse fill="none" stroke="black" stroke-width="1.2" stroke-dasharray="5,2" cx="693.5" cy="-2804" rx="61.54" ry="61.54"/>
<ellipse fill="none" stroke="black" stroke-width="1.2" stroke-dasharray="5,2" cx="693.5" cy="-2804" rx="65.54" ry="65.54"/>
<text text-anchor="start" x="658.5" y="-2805.6" font-family="Times,serif" font-size="18.00">u[0,1,2,4]</text>
<text text-anchor="start" x="689" y="-2791.2" font-family="Times,serif" font-size="11.00" fill="#8c8c8c">5&#45;</text>
</g>
<!-- 22 -->
<g id="node30" class="node">
<title>22</title>
<ellipse fill="none" stroke="black" cx="693.5" cy="-961" rx="61.54" ry="61.54"/>
<text text-anchor="start" x="658.5" y="-962.6" font-family="Times,serif" font-size="18.00">u[1,2,3,4]</text>
<text text-anchor="start" x="689" y="-948.2" font-family="Times,serif" font-size="11.00" fill="#8c8c8c">5&#45;</text>
</g>
</g>
</svg>
